<?xml version="1.0" standalone="no"?>
<!DOCTYPE svg PUBLIC "-//W3C//DTD SVG 1.1//EN" "http://www.w3.org/Graphics/SVG/1.1/DTD/svg11.dtd" >
<svg xmlns="http://www.w3.org/2000/svg" xmlns:xlink="http://www.w3.org/1999/xlink" version="1.1">
<metadata>
Created by FontForge 20230101 at Wed May 19 07:45:40 2021
 By Unknown
Copyright (c) 2018 by Marc Lohner. All rights reserved.
</metadata>
<defs>
<font id="Arlon-Regular" horiz-adv-x="0" >
  <font-face 
    font-family="Arlon-Regular"
    font-weight="400"
    font-stretch="normal"
    units-per-em="2000"
    panose-1="1 0 0 0 0 0 0 0 0 0"
    ascent="1600"
    descent="-400"
    x-height="973"
    cap-height="1300"
    bbox="-1241 -483 4381.61 2073"
    underline-thickness="100"
    underline-position="-250"
    unicode-range="U+0020-25CA"
  />
<missing-glyph horiz-adv-x="1334" 
d="M1080 1194q54 0 90 -36t36 -90v-828q0 -54 -36 -90t-90 -36h-826q-54 0 -90 36t-36 90v828q0 54 36 90t90 36h826zM1156 240v828q0 32 -22 54t-54 22h-826q-32 0 -54 -22t-22 -54v-828q0 -32 22 -54t54 -22h826q32 0 54 22t22 54zM704 656l294 -294q20 -20 2 -38t-38 2
l-294 294l-294 -294q-19 -19 -38 -2q-20 16 2 38l294 294l-292 292q-22 22 -4 40t40 -4l292 -292l292 292q22 22 40 4t-4 -40z" />
    <glyph glyph-name="f_f.liga" unicode="ff" horiz-adv-x="1520" 
d="M1533 1319q0 -33 -20.5 -47.5t-58.5 -8.5q-204 33 -298 -11.5t-94 -183.5v-95h337q70 0 70 -70v-5q0 -70 -70 -70h-337v-758q0 -70 -70 -70h-18q-70 0 -70 70v758h-607v-758q0 -70 -70 -70h-18q-70 0 -70 70v998q0 115 41.5 194t116.5 117t179 46t229 -21q62 -13 62 -78
q0 -36 -20.5 -52.5t-58.5 -10.5q-203 33 -297 -12t-94 -183v-95h607v95q0 115 42 194t117 117t179 46t229 -21q62 -13 62 -78v-7z" />
    <glyph glyph-name="f_f_i.liga" unicode="ffi" horiz-adv-x="1994" 
d="M1761 973q70 0 70 -70v-833q0 -70 -70 -70h-18q-70 0 -70 70v758h-621v-758q0 -70 -70 -70h-18q-70 0 -70 70v758h-597v-758q0 -70 -70 -70h-18q-70 0 -70 70v998q0 115 41.5 194t116.5 117t179 46t229 -21q62 -13 62 -78q0 -36 -20.5 -52.5t-58.5 -10.5
q-203 33 -297 -12t-94 -183v-95h597v95q0 115 42 194t117 117t179 46t228 -21q62 -13 62 -78q0 -36 -20.5 -52.5t-58.5 -10.5q-203 33 -297 -12t-94 -183v-95h709zM1753 1144q-48 0 -73 26.5t-25 75.5q0 48 25 75.5t73 27.5t72 -27t24 -76q0 -102 -96 -102z" />
    <glyph glyph-name="f_f_l.liga" unicode="ffl" horiz-adv-x="2014" 
d="M904 1068q0 99 26.5 165.5t86.5 112t163.5 64t250 16t352.5 -27.5q69 -9 69 -75v-1253q0 -70 -70 -70h-19q-70 0 -70 70v1193q-136 11 -232.5 14t-168 -4t-115 -21t-70 -41t-36 -60t-9.5 -83v-95h337q70 0 70 -70v-5q0 -70 -70 -70h-337v-758q0 -70 -70 -70h-18
q-70 0 -70 70v758h-607v-758q0 -70 -70 -70h-18q-70 0 -70 70v998q0 115 41.5 194t116.5 117t179 46t229 -21q62 -13 62 -78q0 -36 -20.5 -52.5t-58.5 -10.5q-203 33 -297 -12t-94 -183v-95h607v95z" />
    <glyph glyph-name="f_i.liga" unicode="fi" horiz-adv-x="1239" 
d="M1006 973q70 0 70 -70v-833q0 -70 -70 -70h-18q-70 0 -70 70v758h-621v-758q0 -70 -70 -70h-18q-70 0 -70 70v998q0 115 41.5 194t116.5 117t179 46t229 -21q62 -13 62 -78q0 -36 -20.5 -52.5t-58.5 -10.5q-203 33 -297 -12t-94 -183v-95h709zM998 1144q-48 0 -73 26.5
t-25 75.5q0 48 25 75.5t73 27.5t72 -27t24 -76q0 -102 -96 -102z" />
    <glyph glyph-name="f_l.liga" unicode="fl" horiz-adv-x="1249" 
d="M139 1068q0 99 26.5 165.5t86.5 112t163.5 64t249.5 16t352 -27.5q69 -9 69 -75v-1253q0 -70 -70 -70h-18q-70 0 -70 70v1193q-136 11 -232.5 14t-168 -4t-115.5 -21t-70 -41t-35.5 -60t-9.5 -83v-95h337q70 0 70 -70v-5q0 -70 -70 -70h-337v-758q0 -70 -70 -70h-18
q-70 0 -70 70v998z" />
    <glyph glyph-name=".notdef" horiz-adv-x="1334" 
d="M1080 1194q54 0 90 -36t36 -90v-828q0 -54 -36 -90t-90 -36h-826q-54 0 -90 36t-36 90v828q0 54 36 90t90 36h826zM1156 240v828q0 32 -22 54t-54 22h-826q-32 0 -54 -22t-22 -54v-828q0 -32 22 -54t54 -22h826q32 0 54 22t22 54zM704 656l294 -294q20 -20 2 -38t-38 2
l-294 294l-294 -294q-19 -19 -38 -2q-20 16 2 38l294 294l-292 292q-22 22 -4 40t40 -4l292 -292l292 292q22 22 40 4t-4 -40z" />
    <glyph glyph-name=".null" 
 />
    <glyph glyph-name="nonmarkingreturn" horiz-adv-x="666" 
 />
    <glyph glyph-name="space" unicode=" " horiz-adv-x="495" 
 />
    <glyph glyph-name="exclam" unicode="!" horiz-adv-x="529" 
d="M265 372q-57 0 -60 68l-21 496v294q0 70 70 70h22q70 0 70 -70v-294l-21 -496q-3 -68 -60 -68zM266 -7q-50 0 -76.5 28t-26.5 78q0 51 26.5 79.5t76.5 28.5q49 0 74.5 -28.5t25.5 -79.5q0 -50 -25.5 -78t-74.5 -28z" />
    <glyph glyph-name="quotedbl" unicode="&#x22;" horiz-adv-x="725" 
d="M139 1254q0 70 70 70h5q70 0 70 -70v-355q0 -70 -70 -70h-5q-70 0 -70 70v355zM441 1254q0 70 70 70h5q70 0 70 -70v-355q0 -70 -70 -70h-5q-70 0 -70 70v355z" />
    <glyph glyph-name="numbersign" unicode="#" horiz-adv-x="1424" 
d="M1257 948q56 0 56 -65v-10q0 -65 -56 -65h-213l-65 -287h178q56 0 56 -65v-10q0 -65 -56 -65h-210l-73 -320q-13 -61 -77 -61h-11q-37 0 -53 20t-8 57l69 304h-290l-73 -320q-13 -61 -77 -61h-11q-37 0 -53 20t-8 57l69 304h-184q-56 0 -56 65v10q0 65 56 65h216l66 287
h-186q-56 0 -56 65v10q0 65 56 65h218l67 291q13 61 77 61h11q37 0 53 -20t8 -57l-63 -275h289l66 291q13 61 77 61h11q37 0 53 -20t8 -57l-62 -275h181zM826 521l65 287h-289l-66 -287h290z" />
    <glyph glyph-name="dollar" unicode="$" horiz-adv-x="1050" 
d="M953 343q0 -148 -92.5 -235.5t-248.5 -114.5v-155q0 -70 -69 -70q-70 0 -70 70v144q-155 -2 -317 46q-58 16 -58 79q0 37 21 53t58 7q115 -27 222.5 -32.5t197 11t143.5 67t54 130.5q0 76 -57.5 131.5t-195.5 109.5l-114 45q-173 67 -247 152t-74 203q0 149 100.5 233
t266.5 98v147q0 70 70 70q33 0 51 -18t18 -52v-147q98 -8 203 -35q58 -16 58 -79v-4q0 -37 -21 -52.5t-58 -7.5q-105 23 -198 28t-168.5 -9.5t-119.5 -57t-44 -110.5q0 -70 52 -121.5t178 -98.5l104 -40q184 -71 269.5 -160t85.5 -225z" />
    <glyph glyph-name="percent" unicode="%" horiz-adv-x="1756" 
d="M1058 1304q22 54 81 54h12q39 0 54 -22.5t0 -58.5l-506 -1223q-22 -54 -81 -54h-12q-39 0 -54 22.5t0 58.5zM414 727q-141 0 -220.5 81t-79.5 215q0 133 79.5 214t220.5 81t220 -81t79 -214q0 -134 -79 -215t-220 -81zM414 855q77 0 117.5 45.5t40.5 122.5
q0 76 -40.5 121.5t-117.5 45.5t-118 -45t-41 -122t41 -122.5t118 -45.5zM1343 40q-142 0 -221.5 81t-79.5 215q0 133 80 214t221 81q140 0 219.5 -81t79.5 -214q0 -134 -79.5 -215t-219.5 -81zM1343 168q77 0 117.5 45.5t40.5 122.5q0 76 -40.5 121.5t-117.5 45.5
t-118.5 -45.5t-41.5 -121.5q0 -77 41 -122.5t119 -45.5z" />
    <glyph glyph-name="ampersand" unicode="&#x26;" horiz-adv-x="1329" 
d="M1219 60q39 -44 -1 -88l-21 -22q-43 -48 -89 0l-128 136q-137 -104 -352 -104q-135 0 -241.5 41.5t-168.5 107.5t-88 151t-10.5 169.5t75 166.5t157.5 139q-69 89 -96.5 176.5t-13.5 159t68 125t137 80t204 19t261 -53.5q59 -20 59 -81q0 -36 -22.5 -50t-61.5 -3
q-119 34 -213 41t-151.5 -9.5t-87.5 -52t-27.5 -85t35 -111t94.5 -127.5l438 -466q63 136 25 351q-7 37 9 57.5t52 20.5h14q66 0 76 -64q50 -301 -65 -482zM628 129q150 0 247 68l-431 458q-72 -40 -116.5 -96t-56.5 -113.5t6 -115t61.5 -102t119 -72t170.5 -27.5z" />
    <glyph glyph-name="quotesingle" unicode="'" horiz-adv-x="423" 
d="M139 1254q0 70 70 70h5q70 0 70 -70v-355q0 -70 -70 -70h-5q-70 0 -70 70v355z" />
    <glyph glyph-name="parenleft" unicode="(" horiz-adv-x="670" 
d="M413 1357q29 43 84 43q42 0 54 -23.5t-11 -60.5q-215 -350 -215 -785.5t215 -786.5q23 -37 17.5 -60.5t-37.5 -23.5h-23q-55 0 -84 44q-165 239 -222.5 532.5t0 587.5t222.5 533z" />
    <glyph glyph-name="parenright" unicode=")" horiz-adv-x="670" 
d="M173 1400q55 0 84 -43q165 -239 222.5 -533t0 -587.5t-222.5 -533.5q-29 -43 -84 -43q-42 0 -54 23.5t11 60.5q215 350 215 785.5t-215 786.5q-23 37 -11 60.5t54 23.5z" />
    <glyph glyph-name="asterisk" unicode="*" horiz-adv-x="625" 
d="M556 1259q17 -30 -34 -72l-88 -70l88 -70q50 -41 34 -71q-19 -31 -79 -7l-105 42l-17 -112q-9 -65 -44 -65q-36 0 -45 64l-16 112l-105 -41q-61 -24 -78 7q-18 30 33 71l89 70l-89 71q-50 40 -33 71q17 30 78 6l105 -42l17 112q9 65 44 65t44 -65l17 -112l106 42
q60 24 78 -6z" />
    <glyph glyph-name="plus" unicode="+" horiz-adv-x="1290" 
d="M1093 722q70 0 70 -70v-8q0 -70 -70 -70h-375v-374q0 -70 -70 -70h-8q-70 0 -70 70v374h-374q-70 0 -70 70v8q0 70 70 70h374v375q0 70 70 70h8q70 0 70 -70v-375h375z" />
    <glyph glyph-name="comma" unicode="," horiz-adv-x="401" 
d="M135 -288q-27 0 -38.5 20t-6.5 55l55 355q11 64 75 64h33q37 0 53.5 -21.5t5.5 -57.5l-103 -356q-17 -59 -74 -59z" />
    <glyph glyph-name="hyphen" unicode="-" horiz-adv-x="892" 
d="M196 574q-70 0 -70 70v8q0 70 70 70h500q70 0 70 -70v-8q0 -70 -70 -70h-500z" />
    <glyph glyph-name="period" unicode="." horiz-adv-x="412" 
d="M207 -7q-50 0 -76.5 28t-26.5 78q0 51 26.5 79.5t76.5 28.5q49 0 74.5 -28.5t25.5 -79.5q0 -50 -25.5 -78t-74.5 -28z" />
    <glyph glyph-name="slash" unicode="/" horiz-adv-x="726" 
d="M544 1304q22 54 81 54h12q39 0 54 -22.5t0 -58.5l-509 -1223q-22 -54 -81 -54h-12q-39 0 -54 22.5t0 58.5z" />
    <glyph glyph-name="zero" unicode="0" horiz-adv-x="1215" 
d="M608 -18q-230 0 -362 170t-132 498t132 498t362 170q229 0 361.5 -170t132.5 -498t-132.5 -498t-361.5 -170zM608 133q161 0 248 122t87 395t-87 395t-248 122q-79 0 -139 -28t-105 -87.5t-68.5 -160.5t-23.5 -241t23.5 -241t68.5 -160.5t105 -87.5t139 -28z" />
    <glyph glyph-name="one" unicode="1" horiz-adv-x="851" 
d="M108 1220q0 64 64 75l92 14q165 26 233.5 -27t68.5 -208v-1004q0 -70 -70 -70h-19q-70 0 -70 70v983q0 80 -30.5 104.5t-112.5 13.5l-82 -9q-74 -8 -74 58z" />
    <glyph glyph-name="two" unicode="2" horiz-adv-x="1058" 
d="M114 164q0 106 103 187l311 252q148 120 203 192t55 140q0 91 -74 152t-198.5 74t-287.5 -31q-39 -11 -60.5 2t-21.5 47v15q0 61 58 80q153 49 288 43t236 -49.5t159.5 -129t58.5 -195.5q0 -112 -68 -214.5t-230 -232.5l-334 -267q-26 -20 -26 -42q0 -36 51 -36h521
q70 0 70 -70v-11q0 -70 -70 -70h-537q-100 0 -153.5 46.5t-53.5 117.5z" />
    <glyph glyph-name="three" unicode="3" horiz-adv-x="1077" 
d="M152 35q-55 20 -55 81v3q0 37 21.5 52.5t58.5 4.5q117 -33 228.5 -40t201 10.5t144 68t54.5 128.5q0 103 -92 170.5t-260 67.5h-109q-30 0 -46.5 16.5t-16.5 47.5v24q0 30 16.5 46.5t46.5 16.5h109q167 0 249.5 65t82.5 164q0 79 -52 129t-138 66.5t-193.5 8
t-223.5 -41.5q-38 -11 -59.5 1t-21.5 44v12q0 61 55 81q131 47 270.5 55t255.5 -22.5t190.5 -111.5t74.5 -201q0 -107 -59.5 -193t-173.5 -128q122 -41 187.5 -126t65.5 -196q0 -121 -77.5 -205.5t-197 -119t-262 -29.5t-274.5 51z" />
    <glyph glyph-name="four" unicode="4" horiz-adv-x="1107" 
d="M755 778q0 70 70 70h19q70 0 70 -70v-708q0 -70 -70 -70h-19q-70 0 -70 70v258h-516q-117 0 -161.5 69.5t9.5 182.5l330 669q25 51 82 51h28q40 0 54.5 -23.5t-3.5 -59.5l-336 -679q-13 -27 -2.5 -43t36.5 -16h479v299z" />
    <glyph glyph-name="five" unicode="5" horiz-adv-x="1065" 
d="M462 778q489 0 489 -381q0 -132 -59 -225t-162 -136.5t-242.5 -49.5t-300.5 36q-56 13 -56 70v22q0 33 19.5 48t52.5 8q127 -29 234.5 -30t186.5 26t124 86t45 145q0 127 -96 178.5t-297 51.5q-96 0 -206 -9q-38 -3 -55.5 16t-11.5 56l65 411q18 110 78.5 154.5
t183.5 44.5h378q70 0 70 -70v-11q0 -70 -70 -70h-388q-48 0 -67.5 -15t-26.5 -59l-51 -306q86 9 163 9z" />
    <glyph glyph-name="six" unicode="6" horiz-adv-x="1166" 
d="M275 744q261 67 434 43t258 -123t85 -267q0 -198 -116 -306.5t-321 -108.5q-501 0 -501 668q0 325 130 496.5t359 171.5q135 0 291 -59q55 -20 55 -81q0 -37 -21.5 -51.5t-58.5 -3.5q-143 44 -248 44q-161 0 -246.5 -103.5t-99.5 -319.5zM615 133q133 0 206 68.5
t73 195.5q0 96 -40.5 153.5t-121.5 78t-194 10t-265 -51.5q10 -233 95 -343.5t247 -110.5z" />
    <glyph glyph-name="seven" unicode="7" horiz-adv-x="954" 
d="M860 1028l-497 -977q-26 -51 -83 -51h-31q-41 0 -55.5 23.5t4.5 59.5l497 973q28 53 15.5 74t-73.5 21h-488q-70 0 -70 70v9q0 70 70 70h545q142 0 185.5 -77.5t-19.5 -194.5z" />
    <glyph glyph-name="eight" unicode="8" horiz-adv-x="1215" 
d="M838 689q264 -74 264 -339q0 -183 -129 -275.5t-365 -92.5q-238 0 -366 92t-128 276q0 265 263 339q-223 73 -223 298q0 163 120 247t334 84q213 0 333.5 -84t120.5 -247q0 -225 -224 -298zM312 963q0 -104 75.5 -158t220.5 -54q144 0 219.5 54.5t75.5 157.5t-75.5 157
t-219.5 54q-145 0 -220.5 -54t-75.5 -157zM608 127q168 0 251.5 58.5t83.5 183.5t-83.5 183t-251.5 58q-169 0 -252.5 -58t-83.5 -183t83.5 -183.5t252.5 -58.5z" />
    <glyph glyph-name="nine" unicode="9" horiz-adv-x="1166" 
d="M551 1318q501 0 501 -668q0 -325 -130 -496.5t-359 -171.5q-135 0 -291 59q-55 20 -55 81q0 37 21.5 51.5t58.5 3.5q143 -44 248 -44q161 0 246.5 103.5t99.5 319.5q-261 -67 -434 -43t-258 123t-85 267q0 198 116 306.5t321 108.5zM272 903q0 -96 40.5 -153.5t121.5 -78
t194 -10t265 51.5q-10 233 -95 343.5t-247 110.5q-133 0 -206 -68.5t-73 -195.5z" />
    <glyph glyph-name="colon" unicode=":" horiz-adv-x="412" 
d="M207 751q-50 0 -76.5 28t-26.5 78q0 51 26.5 79.5t76.5 28.5q49 0 74.5 -28.5t25.5 -79.5q0 -50 -25.5 -78t-74.5 -28zM207 -7q-50 0 -76.5 28t-26.5 78q0 51 26.5 79.5t76.5 28.5q49 0 74.5 -28.5t25.5 -79.5q0 -50 -25.5 -78t-74.5 -28z" />
    <glyph glyph-name="semicolon" unicode=";" horiz-adv-x="411" 
d="M245 751q-50 0 -76.5 28t-26.5 78q0 51 26.5 79.5t76.5 28.5q49 0 74.5 -28.5t25.5 -79.5q0 -50 -25.5 -78t-74.5 -28zM135 -288q-27 0 -38.5 20t-6.5 55l55 355q11 64 75 64h33q37 0 53.5 -21.5t5.5 -57.5l-103 -356q-17 -59 -74 -59z" />
    <glyph glyph-name="less" unicode="&#x3c;" horiz-adv-x="975" 
d="M793 1052q37 19 60 8t23 -47v-27q0 -57 -51 -82l-506 -254l506 -254q51 -25 51 -82v-16q0 -41 -23 -55t-60 5l-675 354q-38 20 -38 48t38 48z" />
    <glyph glyph-name="equal" unicode="=" horiz-adv-x="1290" 
d="M196 793q-70 0 -70 70v8q0 70 70 70h897q70 0 70 -70v-8q0 -70 -70 -70h-897zM196 355q-70 0 -70 70v8q0 70 70 70h897q70 0 70 -70v-8q0 -70 -70 -70h-897z" />
    <glyph glyph-name="greater" unicode="&#x3e;" horiz-adv-x="975" 
d="M99 1013q0 36 23 47t60 -8l676 -354q38 -20 38 -48t-38 -48l-676 -354q-37 -19 -60 -7.5t-23 47.5v26q0 57 51 82l506 254l-506 254q-51 25 -51 82v27z" />
    <glyph glyph-name="question" unicode="?" horiz-adv-x="1059" 
d="M103 1264q130 37 252 49t229.5 -4.5t188 -60t127 -124t46.5 -190.5q0 -181 -121.5 -278.5t-346.5 -87.5v-126q0 -70 -70 -70h-22q-68 0 -72 67l-15 205q-3 36 16.5 53.5t57.5 15.5q221 -14 319 42.5t98 178.5q0 94 -50 151.5t-141.5 76.5t-211 8t-268.5 -49
q-30 -7 -46.5 5.5t-16.5 41.5v34q0 49 47 62zM400 207q49 0 74.5 -28.5t25.5 -79.5q0 -50 -25.5 -78t-74.5 -28q-50 0 -76.5 28t-26.5 78q0 51 26.5 79.5t76.5 28.5z" />
    <glyph glyph-name="at" unicode="@" horiz-adv-x="1502" 
d="M828 1318q111 0 206 -22.5t169.5 -67t117.5 -118.5t43 -169v-291q0 -141 -64 -202t-210 -61h-154q-165 0 -247 61t-82 197t82.5 198.5t246.5 62.5h272v35q0 118 -101.5 175t-278.5 57q-278 0 -418.5 -138.5t-140.5 -389.5q0 -612 927 -500q37 5 57.5 -10.5t20.5 -48.5v-6
q0 -66 -66 -75q-273 -38 -478 -11t-342 113.5t-205.5 222.5t-68.5 315q0 210 91 363t251.5 231.5t371.5 78.5zM1076 521q75 0 103.5 31.5t28.5 105.5v114h-281q-81 0 -118 -30t-37 -97q0 -66 37 -95t118 -29h149z" />
    <glyph glyph-name="A" unicode="A" horiz-adv-x="1324" 
d="M1181 0q-62 0 -79 58l-107 341h-666l-107 -341q-17 -58 -79 -58h-19q-38 0 -53.5 21.5t-4.5 57.5l302 957q49 153 114.5 217.5t179.5 64.5q115 0 182.5 -64.5t111.5 -217.5l302 -957q11 -36 -4.5 -57.5t-53.5 -21.5h-19zM376 547h572l-147 468q-28 89 -59 123.5t-80 34.5
t-80 -34.5t-59 -123.5z" />
    <glyph glyph-name="B" unicode="B" horiz-adv-x="1276" 
d="M912 681q127 -36 189 -118t62 -219q0 -101 -32.5 -168.5t-102.5 -106t-166 -54t-237 -15.5h-141q-163 0 -230 65t-67 210v750q0 144 67 209.5t229 65.5h98q272 0 395 -70t123 -252q0 -221 -187 -297zM344 1015v-273h259q183 0 261 46t78 163q0 112 -76.5 155t-262.5 43
h-122q-82 0 -109.5 -33t-27.5 -101zM667 151q187 0 263 45.5t76 167.5q0 127 -77 175.5t-262 48.5h-323v-303q0 -68 27.5 -101t109.5 -33h186z" />
    <glyph glyph-name="C" unicode="C" horiz-adv-x="1118" 
d="M114 650q0 256 101.5 423t289 221t452.5 -16q59 -16 59 -79v-11q0 -37 -21.5 -52.5t-59.5 -5.5q-141 37 -249 34t-185 -36t-126 -101t-71.5 -161t-22.5 -216t22.5 -216t71.5 -161t126 -101t185 -36t249 34q38 10 59.5 -4t21.5 -49v-16q0 -62 -65 -81q-263 -68 -449 -13.5
t-287 221.5t-101 422z" />
    <glyph glyph-name="D" unicode="D" horiz-adv-x="1292" 
d="M484 0q-163 0 -230 63.5t-67 207.5v758q0 144 67 207.5t230 63.5h76q153 0 265 -34t192.5 -109.5t120.5 -201.5t40 -305t-40 -305t-120.5 -201.5t-192.5 -109.5t-265 -34h-76zM483 151h111q104 0 181 25.5t133 83t84 155t28 235.5t-28 235.5t-84 155t-133 83t-181 25.5
h-111q-83 0 -110.5 -34t-27.5 -108v-714q0 -74 27.5 -108t110.5 -34z" />
    <glyph glyph-name="E" unicode="E" horiz-adv-x="1193" 
d="M483 0q-162 0 -229 65.5t-67 209.5v750q0 144 67 209.5t229 65.5h495q70 0 70 -70v-11q0 -70 -70 -70h-481q-91 0 -121.5 -33t-30.5 -101v-284h532q70 0 70 -70v-11q0 -70 -70 -70h-532v-295q0 -68 30.5 -101t121.5 -33h522q70 0 70 -70v-11q0 -70 -70 -70h-536z" />
    <glyph glyph-name="F" unicode="F" horiz-adv-x="1125" 
d="M257 0q-70 0 -70 70v955q0 144 67 209.5t229 65.5h495q70 0 70 -70v-11q0 -70 -70 -70h-481q-91 0 -121.5 -33t-30.5 -101v-284h559q70 0 70 -70v-11q0 -70 -70 -70h-559v-510q0 -70 -70 -70h-18z" />
    <glyph glyph-name="G" unicode="G" horiz-adv-x="1262" 
d="M965 619q0 70 70 70h18q70 0 70 -70v-364q0 -155 -88 -214t-316 -59q-299 0 -452 177t-153 491q0 258 103 424t300.5 220.5t486.5 -17.5q61 -16 61 -79v-5q0 -37 -21 -52.5t-59 -7.5q-373 85 -543 -39.5t-170 -443.5q0 -517 438 -517q154 0 204.5 26t50.5 118v342z" />
    <glyph glyph-name="H" unicode="H" horiz-adv-x="1430" 
d="M1085 1230q0 70 70 70h18q70 0 70 -70v-1160q0 -70 -70 -70h-18q-70 0 -70 70v518h-740v-518q0 -70 -70 -70h-18q-70 0 -70 70v1160q0 70 70 70h18q70 0 70 -70v-491h740v491z" />
    <glyph glyph-name="I" unicode="I" horiz-adv-x="618" 
d="M299 0q-70 0 -70 70v1160q0 70 70 70h20q70 0 70 -70v-1160q0 -70 -70 -70h-20z" />
    <glyph glyph-name="J" unicode="J" horiz-adv-x="883" 
d="M530 1230q0 70 70 70h20q70 0 70 -70v-851q0 -132 -42.5 -220t-118 -127.5t-180.5 -47.5t-229 20q-50 9 -50 60v34q0 27 16.5 41t44.5 10q209 -35 304 14t95 216v851z" />
    <glyph glyph-name="K" unicode="K" horiz-adv-x="1231" 
d="M1097 67q24 -26 6 -46.5t-65 -20.5h-21q-70 0 -98 31l-574 577v-538q0 -70 -70 -70h-18q-70 0 -70 70v1160q0 70 70 70h18q70 0 70 -70v-530l574 571q29 29 98 29h20q47 0 65 -20.5t-6 -46.5l-591 -579z" />
    <glyph glyph-name="L" unicode="L" horiz-adv-x="1072" 
d="M483 0q-162 0 -229 65.5t-67 209.5v955q0 70 70 70h18q70 0 70 -70v-945q0 -66 31 -100t121 -34h443q70 0 70 -70v-11q0 -70 -70 -70h-457z" />
    <glyph glyph-name="M" unicode="M" horiz-adv-x="1693" 
d="M146 0q-36 0 -53 19.5t-12 55.5l149 1038q15 111 59 158t130 47q85 0 130 -46.5t68 -155.5l191 -914q10 -51 38 -51q29 0 39 51l191 914q23 109 68 155.5t129 46.5q86 0 130.5 -47t59.5 -158l148 -1038q5 -36 -12 -55.5t-53 -19.5h-20q-65 0 -74 65l-148 1043
q-7 39 -35 39q-27 0 -34 -35l-202 -961q-16 -80 -61.5 -115.5t-125.5 -35.5q-79 0 -125 36t-62 115l-201 961q-7 35 -34 35q-28 0 -36 -39l-147 -1043q-9 -65 -74 -65h-21z" />
    <glyph glyph-name="N" unicode="N" horiz-adv-x="1443" 
d="M257 0q-70 0 -70 70v1016q0 125 43.5 169.5t143.5 44.5q79 0 129.5 -37t99.5 -153l406 -907q13 -29 24 -39t27 -10q38 0 38 53v1023q0 70 70 70h18q70 0 70 -70v-1016q0 -125 -43.5 -169.5t-143.5 -44.5q-79 0 -129.5 37t-99.5 153l-407 907q-12 28 -23 38.5t-27 10.5
q-38 0 -38 -53v-1023q0 -70 -70 -70h-18z" />
    <glyph glyph-name="O" unicode="O" horiz-adv-x="1358" 
d="M679 -18q-125 0 -228 42.5t-178.5 124.5t-117 210t-41.5 291t41.5 291t117 210t178.5 124.5t228 42.5t228 -42.5t179 -124.5t117.5 -210t41.5 -291t-41.5 -291t-117.5 -210t-179 -124.5t-228 -42.5zM679 133q190 0 298.5 124.5t108.5 392.5t-108.5 392.5t-298.5 124.5
t-298.5 -124.5t-108.5 -392.5t108.5 -392.5t298.5 -124.5z" />
    <glyph glyph-name="P" unicode="P" horiz-adv-x="1239" 
d="M257 0q-70 0 -70 70v955q0 144 67 209.5t229 65.5h97q141 0 238 -20t169 -68t105.5 -131.5t33.5 -208.5q0 -100 -22.5 -173.5t-65.5 -123t-111 -79t-151.5 -42t-195.5 -12.5h-235v-372q0 -70 -70 -70h-18zM345 593h249q203 0 288 60.5t85 218.5t-85 217.5t-288 59.5h-111
q-82 0 -110 -35.5t-28 -110.5v-410z" />
    <glyph glyph-name="Q" unicode="Q" horiz-adv-x="1358" 
d="M679 -18q-125 0 -228 42.5t-178.5 124.5t-117 210t-41.5 291t41.5 291t117 210t178.5 124.5t228 42.5t228 -42.5t179 -124.5t117.5 -210t41.5 -291t-41.5 -291t-117.5 -210t-179 -124.5t-228 -42.5zM679 133q190 0 298.5 124.5t108.5 392.5t-108.5 392.5t-298.5 124.5
t-298.5 -124.5t-108.5 -392.5t108.5 -392.5t298.5 -124.5zM1193 -318q-6 -35 -27.5 -49t-55.5 -5l-425 114q-65 17 -54 75t80 44l428 -81q68 -12 57 -81z" />
    <glyph glyph-name="R" unicode="R" horiz-adv-x="1253" 
d="M1107 85q23 -36 11 -60.5t-53 -24.5h-43q-55 0 -84 47l-315 515h-278v-492q0 -70 -70 -70h-18q-70 0 -70 70v955q0 144 67 209.5t229 65.5h131q256 0 384 -83.5t128 -284.5q0 -163 -84 -248t-251 -110zM345 1015v-302h284q182 0 260 51t78 168t-77.5 167t-260.5 50h-146
q-82 0 -110 -34t-28 -100z" />
    <glyph glyph-name="S" unicode="S" horiz-adv-x="1050" 
d="M156 28q-58 16 -58 79q0 37 21 53t58 7q115 -27 222.5 -32.5t197 11t143.5 67t54 130.5q0 76 -57.5 131.5t-195.5 109.5l-114 45q-173 67 -247 152t-74 203q0 112 60 189.5t159.5 111t226 33t262.5 -37.5q59 -16 59 -79v-4q0 -37 -21 -52.5t-58 -7.5q-105 23 -198 28
t-168.5 -9.5t-119.5 -57t-44 -110.5q0 -70 52 -121.5t178 -98.5l104 -40q184 -71 269.5 -160t85.5 -225q0 -85 -33 -152t-90 -109.5t-134 -67.5t-166 -30t-184 6t-190 38z" />
    <glyph glyph-name="T" unicode="T" horiz-adv-x="1156" 
d="M1045 1300q70 0 70 -70v-11q0 -70 -70 -70h-387v-1079q0 -70 -70 -70h-20q-70 0 -70 70v1079h-387q-70 0 -70 70v11q0 70 70 70h934z" />
    <glyph glyph-name="U" unicode="U" horiz-adv-x="1432" 
d="M1175 1300q70 0 70 -70v-736q0 -259 -124.5 -385.5t-404.5 -126.5t-404.5 126.5t-124.5 385.5v736q0 70 70 70h18q70 0 70 -70v-746q0 -179 88.5 -265t282.5 -86t282 86t88 265v746q0 70 70 70h19z" />
    <glyph glyph-name="V" unicode="V" horiz-adv-x="1324" 
d="M1102 1242q17 58 79 58h19q38 0 53.5 -21.5t4.5 -57.5l-302 -957q-49 -153 -114.5 -217.5t-179.5 -64.5t-179.5 64.5t-114.5 217.5l-302 957q-11 36 4.5 57.5t52.5 21.5h20q62 0 79 -58l301 -957q28 -89 59 -124t80 -35t80 35t59 124z" />
    <glyph glyph-name="W" unicode="W" horiz-adv-x="1693" 
d="M81 1225q-5 36 12 55.5t53 19.5h21q65 0 74 -65l147 -1043q8 -39 36 -39q27 0 34 35l201 961q16 79 62 115t125 36q80 0 125.5 -35.5t61.5 -115.5l202 -961q7 -35 34 -35q28 0 35 39l148 1043q9 65 74 65h20q36 0 53 -19.5t12 -55.5l-148 -1038q-15 -111 -59.5 -158
t-130.5 -47q-84 0 -129 46.5t-68 155.5l-191 914q-10 51 -39 51q-28 0 -38 -51l-191 -914q-23 -109 -68 -155.5t-130 -46.5q-86 0 -130 47t-59 158z" />
    <glyph glyph-name="X" unicode="X" horiz-adv-x="1167" 
d="M1037 1300q37 0 46.5 -25t-14.5 -60l-380 -565l380 -565q24 -35 14.5 -60t-46.5 -25h-36q-54 0 -84 45l-333 496l-334 -496q-30 -45 -84 -45h-23q-43 0 -56 25t11 60l380 565l-380 565q-24 35 -14.5 60t47.5 25h35q54 0 84 -45l334 -496l333 496q30 45 84 45h36z" />
    <glyph glyph-name="Y" unicode="Y" horiz-adv-x="1269" 
d="M1035 1255q30 45 84 45h34q43 0 56.5 -25t-11.5 -60l-259 -376q-83 -122 -128.5 -173.5t-94.5 -69.5v-526q0 -70 -70 -70h-23q-70 0 -70 70v527q-49 18 -94.5 69t-127.5 173l-259 376q-25 35 -14 60t51 25h41q54 0 84 -45l257 -387q53 -79 80 -103t64 -24t63.5 24
t79.5 103z" />
    <glyph glyph-name="Z" unicode="Z" horiz-adv-x="1204" 
d="M195 255l603 847q33 47 -16 47h-559q-70 0 -70 70v11q0 70 70 70h661q68 0 99.5 -37.5t22 -96t-55.5 -121.5l-602 -847q-33 -47 16 -47h631q70 0 70 -70v-11q0 -70 -70 -70h-734q-68 0 -99 37.5t-21.5 96t54.5 121.5z" />
    <glyph glyph-name="bracketleft" unicode="[" horiz-adv-x="651" 
d="M622 1325q0 -70 -70 -70h-209v-1450h209q70 0 70 -70v-5q0 -70 -70 -70h-294q-70 0 -70 70v1600q0 70 70 70h294q70 0 70 -70v-5z" />
    <glyph glyph-name="backslash" unicode="\" horiz-adv-x="726" 
d="M101 1358q59 0 81 -54l509 -1223q15 -36 2.5 -58.5t-47.5 -22.5h-21q-59 0 -81 54l-509 1223q-15 36 0 58.5t54 22.5h12z" />
    <glyph glyph-name="bracketright" unicode="]" horiz-adv-x="651" 
d="M393 1400q70 0 70 -70v-1600q0 -70 -70 -70h-294q-70 0 -70 70v5q0 70 70 70h209v1450h-209q-70 0 -70 70v5q0 70 70 70h294z" />
    <glyph glyph-name="asciicircum" unicode="^" horiz-adv-x="799" 
d="M612 1227q62 -35 34 -80q-27 -46 -88 -16l-206 101l-207 -101q-59 -29 -88 16q-28 45 34 81l212 121q48 28 96 0z" />
    <glyph glyph-name="underscore" unicode="_" horiz-adv-x="1404" 
d="M196 -246q-70 0 -70 65t70 65h1012q70 0 70 -65t-70 -65h-1012z" />
    <glyph glyph-name="grave" unicode="`" horiz-adv-x="555" 
d="M399 1181q19 -36 8.5 -59.5t-45.5 -23.5h-23q-56 0 -83 49l-94 168q-20 37 -8.5 60.5t48.5 23.5h29q57 0 83 -51z" />
    <glyph glyph-name="a" unicode="a" horiz-adv-x="1076" 
d="M517 991q191 0 306 -91.5t115 -272.5v-346q0 -145 -67.5 -213t-228.5 -68h-191q-176 0 -264.5 65t-88.5 222t88.5 222.5t264.5 65.5h331v52q0 109 -73.5 163t-207.5 54q-120 0 -269 -36q-37 -8 -57.5 5.5t-20.5 47.5v10q0 64 73 82q158 38 290 38zM627 140q93 0 124 36.5
t31 111.5v147h-331q-112 0 -155.5 -33.5t-43.5 -114.5t43.5 -114t155.5 -33h176z" />
    <glyph glyph-name="b" unicode="b" horiz-adv-x="1134" 
d="M504 991q257 0 387 -118t130 -386q0 -269 -130 -387t-387 -118q-202 0 -283.5 69.5t-81.5 217.5v1061q0 70 70 70h15q70 0 70 -70v-353q118 14 210 14zM514 127q182 0 266.5 82.5t84.5 277.5q0 197 -84 278t-267 81q-94 0 -220 -20v-537q0 -41 7 -67t29 -49.5t67.5 -34.5
t116.5 -11z" />
    <glyph glyph-name="c" unicode="c" horiz-adv-x="959" 
d="M585 846q-158 0 -236 -88.5t-78 -271.5t78 -271t236 -88q86 0 205 26q37 8 57.5 -5t20.5 -45v-10q0 -63 -59 -79q-122 -32 -231 -32q-215 0 -339.5 129.5t-124.5 374.5t124.5 375t339.5 130q109 0 231 -32q59 -16 59 -79q0 -37 -23.5 -52t-65.5 -5q-113 23 -194 23z" />
    <glyph glyph-name="d" unicode="d" horiz-adv-x="1134" 
d="M840 1330q0 70 70 70h15q70 0 70 -70v-1061q0 -148 -81.5 -217.5t-283.5 -69.5q-257 0 -387 118t-130 387q0 268 130 386t387 118q92 0 210 -14v353zM620 127q71 0 116.5 11t67.5 34.5t29 49.5t7 67v537q-126 20 -220 20q-183 0 -267 -81t-84 -278q0 -195 84.5 -277.5
t266.5 -82.5z" />
    <glyph glyph-name="e" unicode="e" horiz-adv-x="1088" 
d="M986 639q0 -100 -52.5 -148.5t-185.5 -62.5l-470 -50q24 -127 107 -189t215 -62q104 0 232 36q38 11 59 -1.5t21 -45.5v-12q0 -62 -58 -79q-147 -43 -272 -43q-217 0 -342.5 129.5t-125.5 374.5q0 243 118.5 374t343.5 131q192 0 301 -94.5t109 -257.5zM270 521l446 47
q69 7 92 25t23 59q0 90 -65.5 142.5t-189.5 52.5q-291 0 -306 -326z" />
    <glyph glyph-name="f" unicode="f" horiz-adv-x="755" 
d="M767 1319q0 -33 -20.5 -47.5t-58.5 -8.5q-203 33 -297 -12t-94 -183v-95h337q70 0 70 -70v-5q0 -70 -70 -70h-337v-758q0 -70 -70 -70h-18q-70 0 -70 70v998q0 115 41.5 194t116.5 117t179 46t229 -21q62 -13 62 -78v-7z" />
    <glyph glyph-name="g" unicode="g" horiz-adv-x="1134" 
d="M630 991q202 0 284 -69.5t82 -217.5v-758q0 -178 -118.5 -271t-308.5 -93q-123 0 -254 39q-58 17 -58 79v4q0 37 21 53t58 6q132 -33 227 -33q128 0 202.5 54t74.5 162v50q-117 -14 -210 -14q-256 0 -386 118t-130 386q0 269 130 387t386 118zM620 127q94 0 220 20v537
q0 41 -7 67t-28.5 49.5t-67 34.5t-117.5 11q-182 0 -266.5 -82.5t-84.5 -277.5t84.5 -277t266.5 -82z" />
    <glyph glyph-name="h" unicode="h" horiz-adv-x="1159" 
d="M504 991q257 0 387 -118t130 -386v-417q0 -70 -70 -70h-16q-70 0 -70 70v417q0 198 -85 278.5t-273 80.5q-91 0 -213 -17v-759q0 -70 -70 -70h-15q-70 0 -70 70v1260q0 70 70 70h15q70 0 70 -70v-353q118 14 210 14z" />
    <glyph glyph-name="i" unicode="i" horiz-adv-x="484" 
d="M243 1144q-48 0 -73 26.5t-25 75.5q0 48 25 75.5t73 27.5t72 -27t24 -76q0 -102 -96 -102zM233 0q-70 0 -70 70v833q0 70 70 70h18q70 0 70 -70v-833q0 -70 -70 -70h-18z" />
    <glyph glyph-name="j" unicode="j" horiz-adv-x="524" 
d="M265 1144q-48 0 -73 26.5t-25 75.5q0 48 25 75.5t73 27.5t72 -27t24 -76q0 -102 -96 -102zM185 -62v965q0 70 70 70h18q70 0 70 -70v-965q0 -119 -36 -199t-100 -115t-152 -41.5t-193 20.5q-44 9 -44 67q0 41 12 57t50 16q12 0 54 -5.5t69 -5.5q93 0 137.5 47.5
t44.5 158.5z" />
    <glyph glyph-name="k" unicode="k" horiz-adv-x="1053" 
d="M958 67q26 -26 8.5 -46.5t-65.5 -20.5h-17q-68 0 -98 29l-492 459v-418q0 -70 -70 -70h-15q-70 0 -70 70v1260q0 70 70 70h15q70 0 70 -70v-780l490 397q29 26 98 26h10q49 0 65.5 -20.5t-11.5 -46.5l-478 -386z" />
    <glyph glyph-name="l" unicode="l" horiz-adv-x="484" 
d="M163 1330q0 70 70 70h18q70 0 70 -70v-1260q0 -70 -70 -70h-18q-70 0 -70 70v1260z" />
    <glyph glyph-name="m" unicode="m" horiz-adv-x="1768" 
d="M1225 991q194 0 299 -109.5t105 -339.5v-472q0 -70 -70 -70h-16q-70 0 -70 70v482q0 294 -261 294q-130 0 -190 -72t-60 -222v-482q0 -70 -70 -70h-16q-70 0 -70 70v482q0 150 -60 222t-190 72q-262 0 -262 -294v-482q0 -70 -70 -70h-15q-70 0 -70 70v472q0 449 404 449
q257 0 341 -189q84 189 341 189z" />
    <glyph glyph-name="n" unicode="n" horiz-adv-x="1174" 
d="M587 991q111 0 191 -23t139.5 -75.5t89 -143t29.5 -220.5v-459q0 -70 -70 -70h-16q-70 0 -70 70v459q0 179 -68 248t-225 69t-225 -69t-68 -248v-459q0 -70 -70 -70h-15q-70 0 -70 70v459q0 130 29.5 220.5t89 143t139 75.5t190.5 23z" />
    <glyph glyph-name="o" unicode="o" horiz-adv-x="1150" 
d="M575 -18q-220 0 -340.5 131.5t-120.5 372.5t120.5 373t340.5 132t341 -132t121 -373t-121 -372.5t-341 -131.5zM575 127q304 0 304 359q0 360 -304 360t-304 -360q0 -359 304 -359z" />
    <glyph glyph-name="p" unicode="p" horiz-adv-x="1134" 
d="M504 991q257 0 387 -118t130 -387q0 -268 -130 -386t-387 -118q-92 0 -210 14v-326q0 -70 -70 -70h-15q-70 0 -70 70v1034q0 148 81.5 217.5t283.5 69.5zM514 127q182 0 266.5 82t84.5 277t-84.5 277.5t-266.5 82.5q-72 0 -117 -11t-67 -36t-29 -53t-7 -73v-526
q126 -20 220 -20z" />
    <glyph glyph-name="q" unicode="q" horiz-adv-x="1134" 
d="M630 991q202 0 283.5 -69.5t81.5 -217.5v-1034q0 -70 -70 -70h-15q-70 0 -70 70v326q-118 -14 -210 -14q-257 0 -387 118t-130 386q0 269 130 387t387 118zM620 127q94 0 220 20v526q0 45 -7 73t-29 53t-67 36t-117 11q-182 0 -266.5 -82.5t-84.5 -277.5t84.5 -277
t266.5 -82z" />
    <glyph glyph-name="r" unicode="r" horiz-adv-x="711" 
d="M582 982q37 1 56 -17t19 -52v-5q0 -70 -76 -70q-82 -1 -133 -6t-83 -12t-46 -23t-18 -32t-4 -47v-648q0 -70 -70 -70h-18q-70 0 -70 70v665q0 58 10 95.5t36.5 68t77.5 47t127 25.5t192 11z" />
    <glyph glyph-name="s" unicode="s" horiz-adv-x="961" 
d="M162 28q-58 17 -58 79q0 37 21 53t58 7q102 -24 193 -33t167 -1.5t121 42t45 92.5q0 52 -37.5 86t-122.5 58l-204 56q-248 68 -248 260q0 93 56 155.5t148.5 87t207.5 20t236 -37.5q59 -16 59 -79q0 -37 -21 -52.5t-58 -6.5q-83 21 -165.5 28t-152 0t-112.5 -36t-43 -77
q0 -82 121 -118l218 -58q141 -39 207 -107t66 -173q0 -84 -41.5 -146t-112 -94.5t-161 -44.5t-190 -1t-197.5 41z" />
    <glyph glyph-name="t" unicode="t" horiz-adv-x="758" 
d="M704 898q0 -70 -70 -70h-337v-490q0 -108 48 -157t146 -49q42 0 89.5 8.5t59.5 8.5q35 0 48.5 -12t13.5 -40v-22q0 -55 -49 -67q-88 -23 -164.5 -26t-141.5 16.5t-111 61.5t-71.5 112.5t-25.5 165.5v798q0 70 70 70h18q70 0 70 -70v-163h337q70 0 70 -70v-5z" />
    <glyph glyph-name="u" unicode="u" horiz-adv-x="1174" 
d="M880 903q0 70 70 70h16q70 0 70 -70v-459q0 -130 -29.5 -220.5t-89 -143t-139.5 -75.5t-191 -23t-190.5 23t-139 75.5t-89 143t-29.5 220.5v459q0 70 70 70h15q70 0 70 -70v-459q0 -179 68 -248t225 -69t225 69t68 248v459z" />
    <glyph glyph-name="v" unicode="v" horiz-adv-x="1162" 
d="M906 916q19 57 79 57h22q38 0 53.5 -22t3.5 -58l-230 -673q-47 -138 -100.5 -188t-152.5 -50q-100 0 -153 50.5t-100 187.5l-231 673q-13 36 3 58t54 22h23q60 0 79 -57l217 -658q26 -79 49.5 -104t58.5 -25t58 25t50 104z" />
    <glyph glyph-name="w" unicode="w" horiz-adv-x="1623" 
d="M1380 911q12 62 77 62h18q37 0 53.5 -20.5t8.5 -56.5l-149 -728q-20 -95 -70 -140.5t-140 -45.5q-176 0 -211 183l-126 609q-7 32 -29 32q-25 0 -31 -32l-124 -609q-20 -93 -71 -138t-141 -45t-141 46t-69 140l-149 728q-8 36 8.5 56.5t53.5 20.5h18q65 0 77 -62
l140 -683q11 -52 24 -70.5t42 -18.5q30 0 42.5 18t23.5 69l125 590q32 157 172 157q136 0 171 -157l125 -590q9 -50 22.5 -68.5t43.5 -18.5q29 0 41 18t25 71z" />
    <glyph glyph-name="x" unicode="x" horiz-adv-x="1091" 
d="M646 486l324 -419q20 -29 10.5 -48t-43.5 -19h-60q-41 0 -66 33l-265 347l-266 -347q-26 -33 -66 -33h-60q-34 0 -43.5 19t10.5 48l324 419l-324 420q-20 28 -10.5 47.5t43.5 19.5h60q40 0 66 -33l266 -347l265 347q25 33 66 33h60q34 0 43.5 -19.5t-10.5 -47.5z" />
    <glyph glyph-name="y" unicode="y" horiz-adv-x="1159" 
d="M865 903q0 70 70 70h16q70 0 70 -70v-957q0 -178 -118 -271t-309 -93q-124 0 -254 39q-58 17 -58 79v4q0 37 21 53t58 6q132 -33 228 -33q127 0 201.5 54t74.5 162v50q-117 -14 -209 -14q-257 0 -387 118t-130 386v417q0 70 70 70h15q70 0 70 -70v-406q0 -204 85 -287
t274 -83q90 0 212 17v759z" />
    <glyph glyph-name="z" unicode="z" horiz-adv-x="936" 
d="M155 254l469 528q15 17 10 31t-30 14h-464q-70 0 -70 70v6q0 70 70 70h562q68 0 102 -40t24.5 -100t-59.5 -114l-469 -529q-14 -17 -9.5 -31t29.5 -14h476q70 0 70 -70v-5q0 -70 -70 -70h-574q-69 0 -103 39.5t-24 99t60 115.5z" />
    <glyph glyph-name="braceleft" unicode="{" horiz-adv-x="850" 
d="M349 -21v267q0 116 -33.5 167t-127.5 51h-10q-64 0 -64 56v21q0 56 64 56h10q94 0 127.5 51t33.5 167v267q0 114 19 182t63 106t117.5 44.5t183.5 -1.5q24 -3 41 -18t17 -37v-22q0 -58 -62 -58q-5 0 -29 1.5t-38 1.5q-94 0 -125 -38t-31 -149v-298q0 -118 -38.5 -180.5
t-123.5 -84.5q85 -22 123.5 -85t38.5 -181v-298q0 -111 31 -149t125 -38q14 0 38 1.5t29 1.5q62 0 62 -58v-22q0 -22 -17 -37t-41 -17q-87 -12 -152 -7t-109 22.5t-71 59t-39 102.5t-12 153z" />
    <glyph glyph-name="bar" unicode="|" horiz-adv-x="657" 
d="M251 1330q0 70 70 70h15q70 0 70 -70v-1660q0 -70 -70 -70h-15q-70 0 -70 70v1660z" />
    <glyph glyph-name="braceright" unicode="}" horiz-adv-x="850" 
d="M501 -21q0 -92 -12 -153t-39 -102.5t-71 -59t-109 -22.5t-152 7q-24 2 -41 17t-17 37v22q0 58 62 58q5 0 29 -1.5t38 -1.5q94 0 125 38t31 149v298q0 118 38.5 181t123.5 85q-85 22 -123.5 84.5t-38.5 180.5v298q0 111 -31 149t-125 38q-14 0 -38 -1.5t-29 -1.5
q-62 0 -62 58v22q0 22 17 37t41 18q110 8 183.5 1.5t117.5 -44.5t63 -106t19 -182v-267q0 -116 33.5 -167t127.5 -51h10q64 0 64 -56v-21q0 -56 -64 -56h-10q-94 0 -127.5 -51t-33.5 -167v-267z" />
    <glyph glyph-name="asciitilde" unicode="~" horiz-adv-x="1374" 
d="M194 588q-58 40 -18 95q112 160 289 160q57 0 109 -17.5t91 -42.5t76.5 -50.5t81.5 -43t90 -17.5q52 0 91.5 22.5t79.5 71.5q44 54 97 19q58 -40 19 -96q-113 -160 -289 -160q-58 0 -110 17.5t-91.5 43t-77 51t-81.5 43t-89 17.5q-52 0 -91.5 -23t-80.5 -72
q-44 -53 -96 -18z" />
    <glyph glyph-name="exclamdown" unicode="&#xa1;" horiz-adv-x="529" 
d="M266 907q49 0 74.5 -28t25.5 -78q0 -51 -25.5 -79.5t-74.5 -28.5q-50 0 -76.5 28.5t-26.5 79.5q0 50 26.5 78t76.5 28zM205 460q3 68 60 68t60 -68l21 -496v-294q0 -70 -70 -70h-22q-70 0 -70 70v294z" />
    <glyph glyph-name="cent" unicode="&#xa2;" horiz-adv-x="959" 
d="M585 846q-158 0 -236 -88.5t-78 -271.5t78 -271t236 -88q86 0 205 26q37 8 57.5 -5t20.5 -45v-10q0 -63 -59 -78q-84 -24 -166 -30v-147q0 -70 -69 -70q-70 0 -70 70v148q-183 22 -286.5 149.5t-103.5 350.5t103.5 351t286.5 150v148q0 70 70 70q33 0 51 -18t18 -52v-147
q82 -6 166 -30q59 -15 59 -78q0 -37 -23.5 -52t-65.5 -5q-113 23 -194 23z" />
    <glyph glyph-name="sterling" unicode="&#xa3;" horiz-adv-x="1171" 
d="M1032 1217q0 -32 -20.5 -46.5t-58.5 -9.5q-189 29 -280.5 -21t-105.5 -183l-15 -137h274q70 0 70 -70v-11q0 -70 -70 -70h-290l-56 -518h482q70 0 70 -70v-11q0 -70 -70 -70h-753q-70 0 -70 70v11q0 70 70 70h107l55 518h-162q-70 0 -70 70v11q0 70 70 70h178l15 137
q12 114 59 193t121.5 117.5t173.5 48t214 -15.5q62 -12 62 -77v-6z" />
    <glyph glyph-name="currency" unicode="&#xa4;" horiz-adv-x="1412" 
d="M1160 620q0 -150 -72 -254l148 -149q49 -49 0 -99l-6 -6q-50 -50 -99 0l-151 151q-112 -69 -274 -69t-274 69l-151 -151q-49 -50 -99 0l-7 7q-49 49 0 98l149 149q-72 104 -72 254t72 254l-149 149q-49 49 0 98l7 7q50 50 99 0l151 -151q112 69 274 69t274 -69l150 151
q50 51 99 0l7 -7q49 -49 0 -99l-148 -148q72 -104 72 -254zM706 328q142 -2 228 77.5t86 214.5t-86 214.5t-228 77.5q-142 2 -228 -77.5t-86 -214.5t86 -214.5t228 -77.5z" />
    <glyph glyph-name="yen" unicode="&#xa5;" horiz-adv-x="1306" 
d="M960 801q-75 -118 -120 -170h231q70 0 70 -67t-70 -67h-337v-163h337q70 0 70 -67t-70 -67h-337v-130q0 -70 -70 -70h-20q-70 0 -70 70v130h-337q-70 0 -70 67t70 67h337v163h-337q-70 0 -70 67t70 67h231q-45 52 -120 170l-262 415q-22 36 -12.5 60t46.5 24h32
q55 0 83 -48l259 -438q53 -89 85 -115t75 -26t75 26t85 115l259 438q28 48 83 48h19q42 0 55.5 -24t-8.5 -60z" />
    <glyph glyph-name="brokenbar" unicode="&#xa6;" horiz-adv-x="657" 
d="M251 1230q0 70 70 70h15q70 0 70 -70v-480q0 -70 -70 -70h-15q-70 0 -70 70v480zM251 210q0 70 70 70h15q70 0 70 -70v-480q0 -70 -70 -70h-15q-70 0 -70 70v480z" />
    <glyph glyph-name="section" unicode="&#xa7;" horiz-adv-x="1121" 
d="M902 240q96 -83 96 -208q0 -92 -47.5 -155.5t-126 -93t-183.5 -36.5t-216 6.5t-228 43.5q-60 15 -60 78v5q0 37 21.5 53t58.5 8q149 -32 261 -43t194.5 -1.5t124.5 46t42 99.5q0 65 -49 107t-167 82l-197 72q-239 88 -296.5 231.5t89.5 286.5q-95 80 -95 209
q0 92 45.5 155.5t120.5 93t175 36.5t205.5 -6t214.5 -43q60 -16 60 -78v-5q0 -37 -21.5 -53t-59.5 -8q-582 134 -582 -102q0 -66 48 -106.5t168 -82.5l198 -72q238 -88 296 -231.5t-90 -287.5zM478 432l193 -71q63 -22 115 -48q188 197 -142 317l-193 71q-65 23 -117 48
q-185 -197 144 -317z" />
    <glyph glyph-name="dieresis" unicode="&#xa8;" horiz-adv-x="795" 
d="M201 1135q-46 0 -70 26t-24 72t24 72.5t70 26.5q45 0 68.5 -26.5t23.5 -72.5q0 -98 -92 -98zM594 1135q-45 0 -69 26t-24 72t24 72.5t69 26.5t69 -26.5t24 -72.5q0 -47 -23.5 -72.5t-69.5 -25.5z" />
    <glyph glyph-name="copyright" unicode="&#xa9;" horiz-adv-x="1645" 
d="M822 -18q-330 0 -519 176.5t-189 491.5t189 491.5t519 176.5t520 -176.5t190 -491.5t-190 -491.5t-520 -176.5zM822 117q266 0 419.5 140.5t153.5 392.5t-153.5 392.5t-419.5 140.5q-267 0 -420 -140.5t-153 -392.5t153 -392.5t420 -140.5zM496 650q0 228 129.5 329.5
t362.5 39.5q38 -9 38 -50v-35q0 -24 -13.5 -34.5t-37.5 -4.5q-176 42 -254 -19.5t-78 -225.5t78 -225.5t254 -19.5q24 6 37.5 -4.5t13.5 -34.5v-35q0 -40 -44 -52q-230 -59 -358 42.5t-128 328.5z" />
    <glyph glyph-name="ordfeminine" unicode="&#xaa;" horiz-adv-x="841" 
d="M415 1300q146 0 233 -69t87 -207v-263q0 -110 -51.5 -161.5t-173.5 -51.5h-145q-134 0 -201.5 50t-67.5 169q0 118 67.5 167.5t201.5 49.5h228v40q0 152 -189 152q-83 0 -187 -22q-37 -8 -57.5 3t-20.5 39q0 63 73 79q107 25 203 25zM493 670q60 0 80 25t20 77v91h-228
q-71 0 -99.5 -21.5t-28.5 -74.5t28.5 -75t99.5 -22h128z" />
    <glyph glyph-name="guillemotleft" unicode="&#xab;" horiz-adv-x="1040" 
d="M451 924q34 0 42.5 -23.5t-11.5 -60.5l-188 -340l188 -340q20 -37 11.5 -60.5t-42.5 -23.5h-22q-56 0 -83 49l-181 327q-26 48 0 96l181 327q27 49 83 49h22zM825 924q34 0 42.5 -23.5t-11.5 -60.5l-188 -340l188 -340q20 -37 11.5 -60.5t-42.5 -23.5h-22q-56 0 -83 49
l-181 327q-26 48 0 96l181 327q27 49 83 49h22z" />
    <glyph glyph-name="logicalnot" unicode="&#xac;" horiz-adv-x="1288" 
d="M126 839q0 70 70 70h896q70 0 70 -70v-370q0 -70 -70 -70h-11q-70 0 -70 70v292h-815q-70 0 -70 70v8z" />
    <glyph glyph-name="registered" unicode="&#xae;" horiz-adv-x="1645" 
d="M822 1318q330 0 520 -176.5t190 -491.5t-190 -491.5t-520 -176.5t-519 176.5t-189 491.5t189 491.5t519 176.5zM822 119q266 0 419.5 140t153.5 391t-153.5 391t-419.5 140t-419 -140t-153 -391t153 -391t419 -140zM1104 820q0 -93 -48 -142.5t-148 -64.5l183 -280
q14 -23 5.5 -38.5t-34.5 -15.5h-47q-36 0 -54 31l-182 295h-96v-281q0 -21 -12 -33t-33 -12h-33q-20 0 -32 12t-12 33v549q0 84 38.5 122t132.5 38h56q163 0 239.5 -47.5t76.5 -165.5zM819 713q85 0 123.5 25.5t38.5 81.5q0 52 -38.5 76t-123.5 24h-58q-47 0 -62.5 -16.5
t-15.5 -55.5v-135h136z" />
    <glyph glyph-name="macron" unicode="&#xaf;" horiz-adv-x="751" 
d="M108 1210q0 61 70 61h393q70 0 70 -61t-70 -61h-393q-70 0 -70 61z" />
    <glyph glyph-name="degree" unicode="&#xb0;" horiz-adv-x="710" 
d="M355 842q-115 0 -178 62t-63 176t63 176t178 62t178.5 -62t63.5 -176t-63.5 -176t-178.5 -62zM355 934q129 0 129 146t-129 146q-131 0 -131 -146t131 -146z" />
    <glyph glyph-name="plusminus" unicode="&#xb1;" horiz-adv-x="1290" 
d="M718 889h375q70 0 70 -70v-8q0 -70 -70 -70h-375v-374q0 -70 -70 -70h-8q-70 0 -70 70v374h-374q-70 0 -70 70v8q0 70 70 70h374v375q0 70 70 70h8q70 0 70 -70v-375zM196 45q-70 0 -70 70v8q0 70 70 70h897q70 0 70 -70v-8q0 -70 -70 -70h-897z" />
    <glyph glyph-name="acute" unicode="&#xb4;" horiz-adv-x="631" 
d="M280 1098q-35 0 -45.5 23.5t8.5 59.5l85 167q26 51 83 51h19q41 0 55.5 -23.5t-5.5 -60.5l-94 -168q-27 -49 -83 -49h-23z" />
    <glyph glyph-name="uni00B5" unicode="&#xb5;" horiz-adv-x="1134" 
d="M865 903q0 70 70 70h16q70 0 70 -70v-417q0 -268 -130 -386t-387 -118q-92 0 -210 14v-326q0 -70 -70 -70h-15q-70 0 -70 70v1233q0 70 70 70h15q70 0 70 -70v-756q126 -20 220 -20q182 0 266.5 82t84.5 277v417z" />
    <glyph glyph-name="paragraph" unicode="&#xb6;" horiz-adv-x="1335" 
d="M114 926q0 178 101 276t285 98h226q70 0 70 -70v-1400q0 -70 -70 -70h-17q-70 0 -70 70v722h-139q-184 0 -285 98t-101 276zM991 1230q0 70 70 70h17q70 0 70 -70v-1400q0 -70 -70 -70h-17q-70 0 -70 70v1400z" />
    <glyph glyph-name="periodcentered" unicode="&#xb7;" horiz-adv-x="412" 
d="M207 429q-50 0 -76.5 28t-26.5 78q0 51 26.5 79.5t76.5 28.5q49 0 74.5 -28.5t25.5 -79.5q0 -50 -25.5 -78t-74.5 -28z" />
    <glyph glyph-name="cedilla" unicode="&#xb8;" horiz-adv-x="510" 
d="M90 -345v15q0 23 10.5 36t29.5 13q8 0 36 -3t47 -3q51 0 66.5 30t-5.5 83l-55 139q-14 36 -2.5 58.5t45.5 24.5l14 1q61 4 83 -52l51 -127q24 -60 28.5 -108.5t-13 -87.5t-66 -60t-127.5 -21q-50 0 -103 9q-39 8 -39 53z" />
    <glyph glyph-name="ordmasculine" unicode="&#xba;" horiz-adv-x="865" 
d="M432 548q-167 0 -255 97.5t-88 278.5t88 278.5t255 97.5t255.5 -97.5t88.5 -278.5t-88.5 -278.5t-255.5 -97.5zM432 680q195 0 195 244t-195 244q-95 0 -145 -61.5t-50 -182.5t50 -182.5t145 -61.5z" />
    <glyph glyph-name="guillemotright" unicode="&#xbb;" horiz-adv-x="1040" 
d="M237 924q56 0 83 -49l181 -327q26 -48 0 -96l-181 -327q-27 -49 -83 -49h-4q-41 0 -55 23.5t6 60.5l188 340l-188 340q-20 37 -6 60.5t55 23.5h4zM611 924q56 0 83 -49l181 -327q26 -48 0 -96l-181 -327q-27 -49 -83 -49h-4q-41 0 -55 23.5t6 60.5l188 340l-188 340
q-20 37 -6 60.5t55 23.5h4z" />
    <glyph glyph-name="onequarter" unicode="&#xbc;" horiz-adv-x="1739" 
d="M338 453h-35q-52 0 -52 51v530q0 82 -25.5 106t-100.5 13l-36 -5q-54 -6 -54 45v36q0 46 50 56l37 6q151 23 209.5 -29t58.5 -208v-550q0 -51 -52 -51zM1303 1300q37 0 47 -21t-12 -49l-919 -1195q-25 -35 -71 -35h-23q-37 0 -47 21t12 49l919 1195q25 35 71 35h23z
M1573 583q46 0 46 -46v-489q0 -46 -46 -46h-40q-46 0 -46 46v178h-319q-83 0 -113.5 56t9.5 128l216 405q18 33 54 33h45q26 0 36.5 -16t-2.5 -39l-205 -384q-13 -26 -3.5 -41t40.5 -15h242v184q0 46 46 46h40z" />
    <glyph glyph-name="onehalf" unicode="&#xbd;" horiz-adv-x="1775" 
d="M35 1229q0 46 50 56l37 6q151 23 209.5 -29t58.5 -208v-550q0 -51 -52 -51h-35q-52 0 -52 51v530q0 82 -25.5 106t-100.5 13l-36 -5q-54 -6 -54 45v36zM1209 1265q25 35 71 35h23q37 0 47 -21t-12 -49l-919 -1195q-25 -35 -71 -35h-23q-37 0 -47 21t12 49zM1163 135
q0 67 62 118l218 175q64 50 89 89.5t25 78.5q0 50 -33 84t-103 44.5t-178 -23.5q-25 -7 -40 3t-15 34v33q0 40 38 53q134 40 238.5 25.5t168.5 -78.5t64 -159q0 -71 -42 -141.5t-143 -151.5l-162 -132q-19 -15 -19 -30q0 -21 34 -21h279q46 0 46 -46v-42q0 -46 -46 -46h-342
q-64 0 -101.5 39.5t-37.5 93.5z" />
    <glyph glyph-name="threequarters" unicode="&#xbe;" horiz-adv-x="1875" 
d="M640 673q0 -80 -47 -134.5t-122.5 -76t-168.5 -17.5t-187 35q-39 12 -39 52v34q0 24 14.5 33.5t38.5 4.5q97 -29 180.5 -30.5t137 30t53.5 93.5q0 122 -204 122h-54q-47 0 -47 46v29q0 46 47 46h54q190 0 190 116q0 59 -51 88.5t-131.5 28t-173.5 -30.5q-54 -11 -54 38
v35q0 41 37 53q92 30 183.5 34t164.5 -17t119 -74.5t46 -130.5q0 -70 -36 -121.5t-103 -78.5q74 -25 113.5 -79t39.5 -128zM1439 1300q37 0 47 -21t-12 -49l-919 -1195q-25 -35 -71 -35h-23q-37 0 -47 21t12 49l919 1195q25 35 71 35h23zM1709 583q46 0 46 -46v-489
q0 -46 -46 -46h-40q-46 0 -46 46v178h-319q-83 0 -113.5 56t9.5 128l216 405q18 33 54 33h45q26 0 36.5 -16t-2.5 -39l-205 -384q-13 -26 -3.5 -41t40.5 -15h242v184q0 46 46 46h40z" />
    <glyph glyph-name="questiondown" unicode="&#xbf;" horiz-adv-x="1059" 
d="M659 693q-49 0 -74.5 28.5t-25.5 79.5q0 50 25.5 78t74.5 28q50 0 76.5 -28t26.5 -78q0 -51 -26.5 -79.5t-76.5 -28.5zM940 -221q30 7 46.5 -5.5t16.5 -41.5v-34q0 -49 -47 -62q-130 -37 -252 -49t-229.5 4.5t-188 60t-127 124t-46.5 190.5q0 181 121.5 278.5t346.5 87.5
v126q0 70 70 70h22q68 0 72 -67l15 -205q3 -36 -16.5 -53.5t-57.5 -15.5q-221 14 -319 -42.5t-98 -178.5q0 -94 50 -151.5t141.5 -76.5t211 -8t268.5 49z" />
    <glyph glyph-name="Agrave" unicode="&#xc0;" horiz-adv-x="1324" 
d="M693 1508q19 -36 8.5 -59.5t-45.5 -23.5h-23q-56 0 -83 49l-94 168q-20 37 -9 60.5t49 23.5h29q57 0 83 -51zM1181 0q-62 0 -79 58l-107 341h-666l-107 -341q-17 -58 -79 -58h-19q-38 0 -53.5 21.5t-4.5 57.5l302 957q49 153 114.5 217.5t179.5 64.5q115 0 182.5 -64.5
t111.5 -217.5l302 -957q11 -36 -4.5 -57.5t-53.5 -21.5h-19zM376 547h572l-147 468q-28 89 -59 123.5t-80 34.5t-80 -34.5t-59 -123.5z" />
    <glyph glyph-name="Aacute" unicode="&#xc1;" horiz-adv-x="1324" 
d="M828 1726q37 0 48.5 -23.5t-8.5 -60.5l-94 -168q-27 -49 -83 -49h-9q-41 0 -55.5 23.5t4.5 59.5l85 167q26 51 83 51h29zM1181 0q-62 0 -79 58l-107 341h-666l-107 -341q-17 -58 -79 -58h-19q-38 0 -53.5 21.5t-4.5 57.5l302 957q49 153 114.5 217.5t179.5 64.5
q115 0 182.5 -64.5t111.5 -217.5l302 -957q11 -36 -4.5 -57.5t-53.5 -21.5h-19zM376 547h572l-147 468q-28 89 -59 123.5t-80 34.5t-80 -34.5t-59 -123.5z" />
    <glyph glyph-name="Acircumflex" unicode="&#xc2;" horiz-adv-x="1324" 
d="M662 1559l-207 -101q-59 -29 -88 16q-28 45 34 81l212 121q48 28 96 0l213 -122q62 -35 34 -80q-27 -46 -88 -16zM1181 0q-62 0 -79 58l-107 341h-666l-107 -341q-17 -58 -79 -58h-19q-38 0 -53.5 21.5t-4.5 57.5l302 957q49 153 114.5 217.5t179.5 64.5
q115 0 182.5 -64.5t111.5 -217.5l302 -957q11 -36 -4.5 -57.5t-53.5 -21.5h-19zM376 547h572l-147 468q-28 89 -59 123.5t-80 34.5t-80 -34.5t-59 -123.5z" />
    <glyph glyph-name="Atilde" unicode="&#xc3;" horiz-adv-x="1324" 
d="M354 1503q-17 9 -18 28t15 42q72 98 187 98q52 0 97 -22t83.5 -44t72.5 -22q48 0 80 43q26 34 64 16l37 -18q17 -9 18 -28t-15 -42q-73 -99 -187 -99q-52 0 -97.5 22t-83.5 44t-72 22q-49 0 -80 -42q-27 -35 -64 -16zM1181 0q-62 0 -79 58l-107 341h-666l-107 -341
q-17 -58 -79 -58h-19q-38 0 -53.5 21.5t-4.5 57.5l302 957q49 153 114.5 217.5t179.5 64.5q115 0 182.5 -64.5t111.5 -217.5l302 -957q11 -36 -4.5 -57.5t-53.5 -21.5h-19zM376 547h572l-147 468q-28 89 -59 123.5t-80 34.5t-80 -34.5t-59 -123.5z" />
    <glyph glyph-name="Adieresis" unicode="&#xc4;" horiz-adv-x="1324" 
d="M465 1462q-46 0 -70 26t-24 72t24 72.5t70 26.5q45 0 68.5 -26.5t23.5 -72.5q0 -98 -92 -98zM858 1462q-45 0 -69 26t-24 72t24 72.5t69 26.5t69 -26.5t24 -72.5q0 -47 -23.5 -72.5t-69.5 -25.5zM1181 0q-62 0 -79 58l-107 341h-666l-107 -341q-17 -58 -79 -58h-19
q-38 0 -53.5 21.5t-4.5 57.5l302 957q49 153 114.5 217.5t179.5 64.5q115 0 182.5 -64.5t111.5 -217.5l302 -957q11 -36 -4.5 -57.5t-53.5 -21.5h-19zM376 547h572l-147 468q-28 89 -59 123.5t-80 34.5t-80 -34.5t-59 -123.5z" />
    <glyph glyph-name="Aring" unicode="&#xc5;" horiz-adv-x="1324" 
d="M662 1415q-85 0 -138 43t-53 113t53 113.5t138 43.5q84 0 136 -43.5t52 -113.5t-52.5 -113t-135.5 -43zM662 1634q-35 0 -54.5 -17.5t-19.5 -45.5t19.5 -45t54.5 -17q33 0 52 17t19 45t-19 45.5t-52 17.5zM1181 0q-62 0 -79 58l-107 341h-666l-107 -341q-17 -58 -79 -58
h-19q-38 0 -53.5 21.5t-4.5 57.5l302 957q49 153 114.5 217.5t179.5 64.5q115 0 182.5 -64.5t111.5 -217.5l302 -957q11 -36 -4.5 -57.5t-53.5 -21.5h-19zM376 547h572l-147 468q-28 89 -59 123.5t-80 34.5t-80 -34.5t-59 -123.5z" />
    <glyph glyph-name="AE" unicode="&#xc6;" horiz-adv-x="1862" 
d="M1236 151h452q70 0 70 -70v-11q0 -70 -70 -70h-466q-162 0 -229 65.5t-67 209.5v124h-497l-185 -349q-26 -50 -82 -50h-26q-41 0 -55.5 23.5t5.5 59.5l504 934q85 164 151 223.5t185 59.5h720q70 0 70 -70v-11q0 -70 -70 -70h-561v-418h461q70 0 70 -70v-11
q0 -70 -70 -70h-461v-295q0 -68 30 -101t121 -33zM508 547h418v602q-59 0 -93 -26t-77 -107z" />
    <glyph glyph-name="Ccedilla" unicode="&#xc7;" horiz-adv-x="1118" 
d="M1016 1184q0 -35 -21.5 -49.5t-59.5 -4.5q-141 37 -249 34t-185 -36t-126 -101t-71.5 -161t-22.5 -216t22.5 -216t71.5 -161t126 -101t185 -36t249 34q38 10 59.5 -4t21.5 -49v-16q0 -63 -59 -79q-120 -33 -227 -39l46 -113q24 -60 28.5 -108.5t-13 -87.5t-66 -60
t-127.5 -21q-50 0 -103 9q-39 8 -39 53v15q0 23 10.5 36t29.5 13q8 0 36 -3t47 -3q51 0 66.5 30t-5.5 83l-65 164q-220 35 -340.5 207.5t-120.5 452.5q0 256 101.5 423t289 221t452.5 -16q59 -16 59 -79v-15z" />
    <glyph glyph-name="Egrave" unicode="&#xc8;" horiz-adv-x="1193" 
d="M721 1508q19 -36 8.5 -59.5t-45.5 -23.5h-23q-56 0 -83 49l-94 168q-20 37 -8.5 60.5t48.5 23.5h29q57 0 83 -51zM483 0q-162 0 -229 65.5t-67 209.5v750q0 144 67 209.5t229 65.5h495q70 0 70 -70v-11q0 -70 -70 -70h-481q-91 0 -121.5 -33t-30.5 -101v-284h532
q70 0 70 -70v-11q0 -70 -70 -70h-532v-295q0 -68 30.5 -101t121.5 -33h522q70 0 70 -70v-11q0 -70 -70 -70h-536z" />
    <glyph glyph-name="Eacute" unicode="&#xc9;" horiz-adv-x="1193" 
d="M668 1425q-35 0 -45.5 23.5t8.5 59.5l85 167q26 51 83 51h19q41 0 55.5 -23.5t-5.5 -60.5l-94 -168q-27 -49 -83 -49h-23zM483 0q-162 0 -229 65.5t-67 209.5v750q0 144 67 209.5t229 65.5h495q70 0 70 -70v-11q0 -70 -70 -70h-481q-91 0 -121.5 -33t-30.5 -101v-284h532
q70 0 70 -70v-11q0 -70 -70 -70h-532v-295q0 -68 30.5 -101t121.5 -33h522q70 0 70 -70v-11q0 -70 -70 -70h-536z" />
    <glyph glyph-name="Ecircumflex" unicode="&#xca;" horiz-adv-x="1193" 
d="M664 1559l-207 -101q-59 -29 -88 16q-28 45 34 81l212 121q48 28 96 0l213 -122q62 -35 34 -80q-27 -46 -88 -16zM497 151h522q70 0 70 -70v-11q0 -70 -70 -70h-536q-162 0 -229 65.5t-67 209.5v750q0 144 67 209.5t229 65.5h495q70 0 70 -70v-11q0 -70 -70 -70h-481
q-91 0 -121.5 -33t-30.5 -101v-284h532q70 0 70 -70v-11q0 -70 -70 -70h-532v-295q0 -68 30.5 -101t121.5 -33z" />
    <glyph glyph-name="Edieresis" unicode="&#xcb;" horiz-adv-x="1193" 
d="M467 1462q-46 0 -70 26t-24 72t24 72.5t70 26.5q45 0 68.5 -26.5t23.5 -72.5q0 -98 -92 -98zM860 1462q-45 0 -69 26t-24 72t24 72.5t69 26.5t69 -26.5t24 -72.5q0 -47 -23.5 -72.5t-69.5 -25.5zM483 0q-162 0 -229 65.5t-67 209.5v750q0 144 67 209.5t229 65.5h495
q70 0 70 -70v-11q0 -70 -70 -70h-481q-91 0 -121.5 -33t-30.5 -101v-284h532q70 0 70 -70v-11q0 -70 -70 -70h-532v-295q0 -68 30.5 -101t121.5 -33h522q70 0 70 -70v-11q0 -70 -70 -70h-536z" />
    <glyph glyph-name="Igrave" unicode="&#xcc;" horiz-adv-x="618" 
d="M342 1508q19 -36 8.5 -59.5t-45.5 -23.5h-23q-56 0 -83 49l-94 168q-20 37 -8.5 60.5t48.5 23.5h29q57 0 83 -51zM299 0q-70 0 -70 70v1160q0 70 70 70h20q70 0 70 -70v-1160q0 -70 -70 -70h-20z" />
    <glyph glyph-name="Iacute" unicode="&#xcd;" horiz-adv-x="618" 
d="M313 1425q-35 0 -45.5 23.5t8.5 59.5l85 167q26 51 83 51h19q41 0 55.5 -23.5t-5.5 -60.5l-94 -168q-27 -49 -83 -49h-23zM299 0q-70 0 -70 70v1160q0 70 70 70h20q70 0 70 -70v-1160q0 -70 -70 -70h-20z" />
    <glyph glyph-name="Icircumflex" unicode="&#xce;" horiz-adv-x="618" 
d="M260 1663q49 36 98 0l140 -103q60 -45 25 -82q-37 -37 -89 -1l-125 83l-125 -83q-53 -36 -88 1q-36 37 24 82zM299 0q-70 0 -70 70v1160q0 70 70 70h20q70 0 70 -70v-1160q0 -70 -70 -70h-20z" />
    <glyph glyph-name="Idieresis" unicode="&#xcf;" horiz-adv-x="618" 
d="M161 1466q-41 0 -63.5 24t-22.5 65q0 43 22.5 67t63.5 24q42 0 63.5 -24t21.5 -67q0 -42 -21.5 -65.5t-63.5 -23.5zM459 1466q-42 0 -64.5 24t-22.5 65q0 43 22.5 67t64.5 24q41 0 63 -24t22 -67q0 -41 -22 -65t-63 -24zM299 0q-70 0 -70 70v1160q0 70 70 70h20
q70 0 70 -70v-1160q0 -70 -70 -70h-20z" />
    <glyph glyph-name="Eth" unicode="&#xd0;" horiz-adv-x="1350" 
d="M618 1300q153 0 265 -34t192.5 -109.5t120.5 -201.5t40 -305t-40 -305t-120.5 -201.5t-192.5 -109.5t-265 -34h-76q-163 0 -230 63.5t-67 207.5v315h-136q-54 0 -54 56v32q0 53 54 53h136v302q0 144 67 207.5t230 63.5h76zM652 151q104 0 181 25.5t133 83t84 155
t28 235.5t-28 235.5t-84 155t-133 83t-181 25.5h-111q-83 0 -110.5 -34t-27.5 -108v-280h285q26 0 40.5 -14t14.5 -39v-32q0 -56 -55 -56h-285v-293q0 -74 27.5 -108t110.5 -34h111z" />
    <glyph glyph-name="Ntilde" unicode="&#xd1;" horiz-adv-x="1443" 
d="M462 1485l-37 18q-17 9 -18 28t15 42q72 98 187 98q52 0 97 -22t83.5 -44t72.5 -22q48 0 80 43q26 34 64 16l37 -18q17 -9 18 -28t-15 -42q-73 -99 -187 -99q-52 0 -97.5 22t-83.5 44t-72 22q-48 0 -80 -42q-27 -35 -64 -16zM257 0q-70 0 -70 70v1016q0 125 43.5 169.5
t143.5 44.5q79 0 129.5 -37t99.5 -153l406 -907q13 -29 24 -39t27 -10q38 0 38 53v1023q0 70 70 70h18q70 0 70 -70v-1016q0 -125 -43.5 -169.5t-143.5 -44.5q-79 0 -129.5 37t-99.5 153l-407 907q-12 28 -23 38.5t-27 10.5q-38 0 -38 -53v-1023q0 -70 -70 -70h-18z" />
    <glyph glyph-name="Ograve" unicode="&#xd2;" horiz-adv-x="1358" 
d="M736 1508q19 -36 8.5 -59.5t-45.5 -23.5h-23q-56 0 -83 49l-94 168q-20 37 -8.5 60.5t48.5 23.5h29q57 0 83 -51zM679 -18q-125 0 -228 42.5t-178.5 124.5t-117 210t-41.5 291t41.5 291t117 210t178.5 124.5t228 42.5t228 -42.5t179 -124.5t117.5 -210t41.5 -291
t-41.5 -291t-117.5 -210t-179 -124.5t-228 -42.5zM679 133q190 0 298.5 124.5t108.5 392.5t-108.5 392.5t-298.5 124.5t-298.5 -124.5t-108.5 -392.5t108.5 -392.5t298.5 -124.5z" />
    <glyph glyph-name="Oacute" unicode="&#xd3;" horiz-adv-x="1358" 
d="M683 1425q-35 0 -45.5 23.5t8.5 59.5l85 167q26 51 83 51h19q41 0 55.5 -23.5t-5.5 -60.5l-94 -168q-27 -49 -83 -49h-23zM679 -18q-125 0 -228 42.5t-178.5 124.5t-117 210t-41.5 291t41.5 291t117 210t178.5 124.5t228 42.5t228 -42.5t179 -124.5t117.5 -210t41.5 -291
t-41.5 -291t-117.5 -210t-179 -124.5t-228 -42.5zM679 133q190 0 298.5 124.5t108.5 392.5t-108.5 392.5t-298.5 124.5t-298.5 -124.5t-108.5 -392.5t108.5 -392.5t298.5 -124.5z" />
    <glyph glyph-name="Ocircumflex" unicode="&#xd4;" horiz-adv-x="1358" 
d="M679 1559l-207 -101q-59 -29 -88 16q-28 45 34 81l212 121q48 28 96 0l213 -122q62 -35 34 -80q-27 -46 -88 -16zM679 1318q125 0 228 -42.5t179 -124.5t117.5 -210t41.5 -291t-41.5 -291t-117.5 -210t-179 -124.5t-228 -42.5t-228 42.5t-178.5 124.5t-117 210t-41.5 291
t41.5 291t117 210t178.5 124.5t228 42.5zM679 133q190 0 298.5 124.5t108.5 392.5t-108.5 392.5t-298.5 124.5t-298.5 -124.5t-108.5 -392.5t108.5 -392.5t298.5 -124.5z" />
    <glyph glyph-name="Otilde" unicode="&#xd5;" horiz-adv-x="1358" 
d="M408 1485l-37 18q-17 9 -18 28t15 42q72 98 187 98q52 0 97 -22t83.5 -44t72.5 -22q48 0 80 43q26 34 64 16l37 -18q17 -9 18 -28t-15 -42q-73 -99 -187 -99q-52 0 -97.5 22t-83.5 44t-72 22q-49 0 -80 -42q-27 -35 -64 -16zM679 -18q-125 0 -228 42.5t-178.5 124.5
t-117 210t-41.5 291t41.5 291t117 210t178.5 124.5t228 42.5t228 -42.5t179 -124.5t117.5 -210t41.5 -291t-41.5 -291t-117.5 -210t-179 -124.5t-228 -42.5zM679 133q190 0 298.5 124.5t108.5 392.5t-108.5 392.5t-298.5 124.5t-298.5 -124.5t-108.5 -392.5t108.5 -392.5
t298.5 -124.5z" />
    <glyph glyph-name="Odieresis" unicode="&#xd6;" horiz-adv-x="1358" 
d="M482 1462q-46 0 -70 26t-24 72t24 72.5t70 26.5q45 0 68.5 -26.5t23.5 -72.5q0 -98 -92 -98zM875 1462q-45 0 -69 26t-24 72t24 72.5t69 26.5t69 -26.5t24 -72.5q0 -47 -23.5 -72.5t-69.5 -25.5zM679 -18q-125 0 -228 42.5t-178.5 124.5t-117 210t-41.5 291t41.5 291
t117 210t178.5 124.5t228 42.5t228 -42.5t179 -124.5t117.5 -210t41.5 -291t-41.5 -291t-117.5 -210t-179 -124.5t-228 -42.5zM679 133q190 0 298.5 124.5t108.5 392.5t-108.5 392.5t-298.5 124.5t-298.5 -124.5t-108.5 -392.5t108.5 -392.5t298.5 -124.5z" />
    <glyph glyph-name="multiply" unicode="&#xd7;" horiz-adv-x="1191" 
d="M1015 337q49 -49 0 -99l-2 -2q-49 -49 -98 0l-319 319l-319 -319q-49 -50 -99 0l-2 2q-49 49 0 98l320 320l-319 318q-49 50 0 99l2 2q49 49 98 0l319 -319l318 318q50 50 99 0l1 -1q50 -49 0 -99l-318 -318z" />
    <glyph glyph-name="Oslash" unicode="&#xd8;" horiz-adv-x="1358" 
d="M1047 1190q198 -176 198 -540q0 -163 -41.5 -291t-117.5 -210t-179 -124.5t-228 -42.5q-135 0 -246 50l-51 -96q-26 -50 -82 -50h-12q-40 0 -54.5 23.5t4.5 59.5l74 141q-198 176 -198 540q0 163 41.5 291t117 210t178.5 124.5t228 42.5q137 0 245 -49l49 95q26 50 83 50
h13q41 0 55.5 -23.5t-4.5 -59.5zM272 650q0 -268 115 -399l467 884q-76 32 -175 32q-190 0 -298.5 -125t-108.5 -392zM679 133q190 0 298.5 124.5t108.5 392.5t-114 399l-468 -883q75 -33 175 -33z" />
    <glyph glyph-name="Ugrave" unicode="&#xd9;" horiz-adv-x="1432" 
d="M773 1508q19 -36 8.5 -59.5t-45.5 -23.5h-23q-56 0 -83 49l-94 168q-20 37 -8.5 60.5t48.5 23.5h29q57 0 83 -51zM1175 1300q70 0 70 -70v-736q0 -259 -124.5 -385.5t-404.5 -126.5t-404.5 126.5t-124.5 385.5v736q0 70 70 70h18q70 0 70 -70v-746q0 -179 88.5 -265
t282.5 -86t282 86t88 265v746q0 70 70 70h19z" />
    <glyph glyph-name="Uacute" unicode="&#xda;" horiz-adv-x="1432" 
d="M720 1425q-35 0 -45.5 23.5t8.5 59.5l85 167q26 51 83 51h19q41 0 55.5 -23.5t-5.5 -60.5l-94 -168q-27 -49 -83 -49h-23zM1175 1300q70 0 70 -70v-736q0 -259 -124.5 -385.5t-404.5 -126.5t-404.5 126.5t-124.5 385.5v736q0 70 70 70h18q70 0 70 -70v-746
q0 -179 88.5 -265t282.5 -86t282 86t88 265v746q0 70 70 70h19z" />
    <glyph glyph-name="Ucircumflex" unicode="&#xdb;" horiz-adv-x="1432" 
d="M716 1559l-207 -101q-59 -29 -88 16q-28 45 34 81l212 121q48 28 96 0l213 -122q62 -35 34 -80q-27 -46 -88 -16zM1086 1230q0 70 70 70h19q70 0 70 -70v-736q0 -259 -124.5 -385.5t-404.5 -126.5t-404.5 126.5t-124.5 385.5v736q0 70 70 70h18q70 0 70 -70v-746
q0 -179 88.5 -265t282.5 -86t282 86t88 265v746z" />
    <glyph glyph-name="Udieresis" unicode="&#xdc;" horiz-adv-x="1432" 
d="M519 1462q-46 0 -70 26t-24 72t24 72.5t70 26.5q45 0 68.5 -26.5t23.5 -72.5q0 -98 -92 -98zM912 1462q-45 0 -69 26t-24 72t24 72.5t69 26.5t69 -26.5t24 -72.5q0 -47 -23.5 -72.5t-69.5 -25.5zM1175 1300q70 0 70 -70v-736q0 -259 -124.5 -385.5t-404.5 -126.5
t-404.5 126.5t-124.5 385.5v736q0 70 70 70h18q70 0 70 -70v-746q0 -179 88.5 -265t282.5 -86t282 86t88 265v746q0 70 70 70h19z" />
    <glyph glyph-name="Yacute" unicode="&#xdd;" horiz-adv-x="1269" 
d="M799 1726q37 0 48.5 -23.5t-8.5 -60.5l-94 -168q-27 -49 -83 -49h-9q-41 0 -55.5 23.5t4.5 59.5l85 167q26 51 83 51h29zM1035 1255q30 45 84 45h34q43 0 56.5 -25t-11.5 -60l-259 -376q-83 -122 -128.5 -173.5t-94.5 -69.5v-526q0 -70 -70 -70h-23q-70 0 -70 70v527
q-49 18 -94.5 69t-127.5 173l-259 376q-25 35 -14 60t51 25h41q54 0 84 -45l257 -387q53 -79 80 -103t64 -24t63.5 24t79.5 103z" />
    <glyph glyph-name="Thorn" unicode="&#xde;" horiz-adv-x="1212" 
d="M552 1080q141 0 238.5 -20t169 -68t105 -131.5t33.5 -208.5t-33.5 -209t-105 -132.5t-169 -68.5t-238.5 -20h-234v-152q0 -70 -70 -70h-19q-70 0 -70 70v1160q0 70 70 70h19q70 0 70 -70v-150h234zM567 373q202 0 287.5 60.5t85.5 218.5q0 157 -85 217t-288 60h-249v-556
h249z" />
    <glyph glyph-name="germandbls" unicode="&#xdf;" horiz-adv-x="1097" 
d="M785 725q233 -62 233 -345q0 -380 -418 -380h-52q-66 0 -66 66v12q0 67 66 67h52q132 0 197 56.5t65 190.5t-66 195.5t-196 61.5h-20q-65 0 -65 63v20q0 61 65 61h10q209 0 209 195q0 96 -57.5 140.5t-194.5 44.5q-130 0 -191.5 -44.5t-61.5 -145.5v-913q0 -70 -70 -70
h-15q-70 0 -70 70v913q0 335 408 335q203 0 305 -81.5t102 -238.5q0 -104 -43.5 -169t-125.5 -104z" />
    <glyph glyph-name="agrave" unicode="&#xe0;" horiz-adv-x="1076" 
d="M579 1181q19 -36 8.5 -59.5t-45.5 -23.5h-23q-56 0 -83 49l-94 168q-20 37 -8.5 60.5t48.5 23.5h29q57 0 83 -51zM517 991q191 0 306 -91.5t115 -272.5v-346q0 -145 -67.5 -213t-228.5 -68h-191q-176 0 -264.5 65t-88.5 222t88.5 222.5t264.5 65.5h331v52
q0 109 -73.5 163t-207.5 54q-120 0 -269 -36q-37 -8 -57.5 5.5t-20.5 47.5v10q0 64 73 82q158 38 290 38zM627 140q93 0 124 36.5t31 111.5v147h-331q-112 0 -155.5 -33.5t-43.5 -114.5t43.5 -114t155.5 -33h176z" />
    <glyph glyph-name="aacute" unicode="&#xe1;" horiz-adv-x="1076" 
d="M686 1399q37 0 48.5 -23.5t-8.5 -60.5l-94 -168q-27 -49 -83 -49h-9q-41 0 -55.5 23.5t4.5 59.5l85 167q26 51 83 51h29zM517 991q191 0 306 -91.5t115 -272.5v-346q0 -145 -67.5 -213t-228.5 -68h-191q-176 0 -264.5 65t-88.5 222t88.5 222.5t264.5 65.5h331v52
q0 109 -73.5 163t-207.5 54q-120 0 -269 -36q-37 -8 -57.5 5.5t-20.5 47.5v10q0 64 73 82q158 38 290 38zM627 140q93 0 124 36.5t31 111.5v147h-331q-112 0 -155.5 -33.5t-43.5 -114.5t43.5 -114t155.5 -33h176z" />
    <glyph glyph-name="acircumflex" unicode="&#xe2;" horiz-adv-x="1076" 
d="M522 1232l-207 -101q-59 -29 -88 16q-28 45 34 81l212 121q48 28 96 0l213 -122q62 -35 34 -80q-27 -46 -88 -16zM517 991q191 0 306 -91.5t115 -272.5v-346q0 -145 -67.5 -213t-228.5 -68h-191q-176 0 -264.5 65t-88.5 222t88.5 222.5t264.5 65.5h331v52
q0 109 -73.5 163t-207.5 54q-120 0 -269 -36q-37 -8 -57.5 5.5t-20.5 47.5v10q0 64 73 82q158 38 290 38zM627 140q93 0 124 36.5t31 111.5v147h-331q-112 0 -155.5 -33.5t-43.5 -114.5t43.5 -114t155.5 -33h176z" />
    <glyph glyph-name="atilde" unicode="&#xe3;" horiz-adv-x="1076" 
d="M214 1176q-17 9 -18 28t15 42q72 98 187 98q52 0 97 -22t83.5 -44t72.5 -22q48 0 80 43q26 34 64 16l37 -18q17 -9 18 -28t-15 -42q-73 -99 -187 -99q-52 0 -97.5 22t-83.5 44t-72 22q-49 0 -80 -42q-27 -35 -64 -16zM517 991q191 0 306 -91.5t115 -272.5v-346
q0 -145 -67.5 -213t-228.5 -68h-191q-176 0 -264.5 65t-88.5 222t88.5 222.5t264.5 65.5h331v52q0 109 -73.5 163t-207.5 54q-120 0 -269 -36q-37 -8 -57.5 5.5t-20.5 47.5v10q0 64 73 82q158 38 290 38zM627 140q93 0 124 36.5t31 111.5v147h-331q-112 0 -155.5 -33.5
t-43.5 -114.5t43.5 -114t155.5 -33h176z" />
    <glyph glyph-name="adieresis" unicode="&#xe4;" horiz-adv-x="1076" 
d="M340 1135q-46 0 -70 26t-24 72t24 72.5t70 26.5q45 0 68.5 -26.5t23.5 -72.5q0 -98 -92 -98zM733 1135q-45 0 -69 26t-24 72t24 72.5t69 26.5t69 -26.5t24 -72.5q0 -47 -23.5 -72.5t-69.5 -25.5zM517 991q191 0 306 -91.5t115 -272.5v-346q0 -145 -67.5 -213t-228.5 -68
h-191q-176 0 -264.5 65t-88.5 222t88.5 222.5t264.5 65.5h331v52q0 109 -73.5 163t-207.5 54q-120 0 -269 -36q-37 -8 -57.5 5.5t-20.5 47.5v10q0 64 73 82q158 38 290 38zM627 140q93 0 124 36.5t31 111.5v147h-331q-112 0 -155.5 -33.5t-43.5 -114.5t43.5 -114t155.5 -33
h176z" />
    <glyph glyph-name="aring" unicode="&#xe5;" horiz-adv-x="1076" 
d="M522 1088q-85 0 -138 43t-53 113t53 113.5t138 43.5q84 0 136 -43.5t52 -113.5t-52.5 -113t-135.5 -43zM522 1307q-35 0 -54.5 -17.5t-19.5 -45.5t19.5 -45t54.5 -17q33 0 52 17t19 45t-19 45.5t-52 17.5zM517 991q191 0 306 -91.5t115 -272.5v-346q0 -145 -67.5 -213
t-228.5 -68h-191q-176 0 -264.5 65t-88.5 222t88.5 222.5t264.5 65.5h331v52q0 109 -73.5 163t-207.5 54q-120 0 -269 -36q-37 -8 -57.5 5.5t-20.5 47.5v10q0 64 73 82q158 38 290 38zM627 140q93 0 124 36.5t31 111.5v147h-331q-112 0 -155.5 -33.5t-43.5 -114.5t43.5 -114
t155.5 -33h176z" />
    <glyph glyph-name="ae" unicode="&#xe6;" horiz-adv-x="1729" 
d="M1627 639q0 -100 -52.5 -148.5t-185.5 -62.5l-456 -48q42 -253 308 -253q105 0 232 36q38 11 59 -1.5t21 -45.5v-12q0 -62 -58 -79q-147 -43 -272 -43q-253 0 -369 172q-113 -172 -403 -172q-176 0 -264.5 69t-88.5 236q0 157 88.5 222.5t264.5 65.5h314v11
q0 120 -64.5 189t-199.5 69q-120 0 -269 -36q-37 -8 -57.5 5.5t-20.5 47.5v10q0 63 60 78q162 42 303 42q239 0 343 -158q114 158 357 158q192 0 301 -94.5t109 -257.5zM926 523l431 45q69 7 92 25t23 59q0 90 -65.5 142.5t-189.5 52.5q-144 0 -214 -79t-77 -245zM451 122
q314 0 314 271v42h-314q-112 0 -155.5 -33.5t-43.5 -114.5q0 -91 43.5 -128t155.5 -37z" />
    <glyph glyph-name="ccedilla" unicode="&#xe7;" horiz-adv-x="959" 
d="M585 846q-158 0 -236 -88.5t-78 -271.5t78 -271t236 -88q86 0 205 26q37 8 57.5 -5t20.5 -45v-10q0 -63 -59 -78q-93 -25 -167 -30l46 -115q24 -60 28.5 -108.5t-13 -87.5t-66 -60t-127.5 -21q-50 0 -103 9q-39 8 -39 53v15q0 23 10.5 36t29.5 13q8 0 36 -3t47 -3
q51 0 66.5 30t-5.5 83l-64 162q-176 26 -275 153t-99 345q0 245 124.5 375t339.5 130q109 0 231 -32q59 -16 59 -79q0 -37 -23.5 -52t-65.5 -5q-113 23 -194 23z" />
    <glyph glyph-name="egrave" unicode="&#xe8;" horiz-adv-x="1088" 
d="M615 1181q19 -36 8.5 -59.5t-45.5 -23.5h-23q-56 0 -83 49l-94 168q-20 37 -8.5 60.5t48.5 23.5h29q57 0 83 -51zM986 639q0 -100 -52.5 -148.5t-185.5 -62.5l-470 -50q24 -127 107 -189t215 -62q104 0 232 36q38 11 59 -1.5t21 -45.5v-12q0 -62 -58 -79
q-147 -43 -272 -43q-217 0 -342.5 129.5t-125.5 374.5q0 243 118.5 374t343.5 131q192 0 301 -94.5t109 -257.5zM270 521l446 47q69 7 92 25t23 59q0 90 -65.5 142.5t-189.5 52.5q-291 0 -306 -326z" />
    <glyph glyph-name="eacute" unicode="&#xe9;" horiz-adv-x="1088" 
d="M722 1399q37 0 48.5 -23.5t-8.5 -60.5l-94 -168q-27 -49 -83 -49h-9q-41 0 -55.5 23.5t4.5 59.5l85 167q26 51 83 51h29zM986 639q0 -100 -52.5 -148.5t-185.5 -62.5l-470 -50q24 -127 107 -189t215 -62q104 0 232 36q38 11 59 -1.5t21 -45.5v-12q0 -62 -58 -79
q-147 -43 -272 -43q-217 0 -342.5 129.5t-125.5 374.5q0 243 118.5 374t343.5 131q192 0 301 -94.5t109 -257.5zM270 521l446 47q69 7 92 25t23 59q0 90 -65.5 142.5t-189.5 52.5q-291 0 -306 -326z" />
    <glyph glyph-name="ecircumflex" unicode="&#xea;" horiz-adv-x="1088" 
d="M558 1232l-207 -101q-59 -29 -88 16q-28 45 34 81l212 121q48 28 96 0l213 -122q62 -35 34 -80q-27 -46 -88 -16zM986 639q0 -100 -52.5 -148.5t-185.5 -62.5l-470 -50q24 -127 107 -189t215 -62q104 0 232 36q38 11 59 -1.5t21 -45.5v-12q0 -62 -58 -79
q-147 -43 -272 -43q-217 0 -342.5 129.5t-125.5 374.5q0 243 118.5 374t343.5 131q192 0 301 -94.5t109 -257.5zM270 521l446 47q69 7 92 25t23 59q0 90 -65.5 142.5t-189.5 52.5q-291 0 -306 -326z" />
    <glyph glyph-name="edieresis" unicode="&#xeb;" horiz-adv-x="1088" 
d="M361 1135q-46 0 -70 26t-24 72t24 72.5t70 26.5q45 0 68.5 -26.5t23.5 -72.5q0 -98 -92 -98zM754 1135q-45 0 -69 26t-24 72t24 72.5t69 26.5t69 -26.5t24 -72.5q0 -47 -23.5 -72.5t-69.5 -25.5zM986 639q0 -100 -52.5 -148.5t-185.5 -62.5l-470 -50q24 -127 107 -189
t215 -62q104 0 232 36q38 11 59 -1.5t21 -45.5v-12q0 -62 -58 -79q-147 -43 -272 -43q-217 0 -342.5 129.5t-125.5 374.5q0 243 118.5 374t343.5 131q192 0 301 -94.5t109 -257.5zM270 521l446 47q69 7 92 25t23 59q0 90 -65.5 142.5t-189.5 52.5q-291 0 -306 -326z" />
    <glyph glyph-name="igrave" unicode="&#xec;" horiz-adv-x="484" 
d="M276 1181q19 -36 8.5 -59.5t-45.5 -23.5h-23q-56 0 -83 49l-94 168q-20 37 -8.5 60.5t48.5 23.5h29q57 0 83 -51zM321 70q0 -70 -70 -70h-18q-70 0 -70 70v833q0 70 70 70h18q70 0 70 -70v-833z" />
    <glyph glyph-name="iacute" unicode="&#xed;" horiz-adv-x="484" 
d="M245 1098q-35 0 -45.5 23.5t8.5 59.5l85 167q26 51 83 51h19q41 0 55.5 -23.5t-5.5 -60.5l-94 -168q-27 -49 -83 -49h-23zM233 0q-70 0 -70 70v833q0 70 70 70h18q70 0 70 -70v-833q0 -70 -70 -70h-18z" />
    <glyph glyph-name="icircumflex" unicode="&#xee;" horiz-adv-x="484" 
d="M192 1336q49 36 98 0l140 -103q60 -45 25 -82q-37 -37 -89 -1l-125 83l-125 -83q-53 -36 -88 1q-36 37 24 82zM233 0q-70 0 -70 70v833q0 70 70 70h18q70 0 70 -70v-833q0 -70 -70 -70h-18z" />
    <glyph glyph-name="idieresis" unicode="&#xef;" horiz-adv-x="484" 
d="M93 1139q-41 0 -63.5 24t-22.5 65q0 43 22.5 67t63.5 24q42 0 63.5 -24t21.5 -67q0 -42 -21.5 -65.5t-63.5 -23.5zM391 1139q-42 0 -64.5 24t-22.5 65q0 43 22.5 67t64.5 24q41 0 63 -24t22 -67q0 -41 -22 -65t-63 -24zM233 0q-70 0 -70 70v833q0 70 70 70h18
q70 0 70 -70v-833q0 -70 -70 -70h-18z" />
    <glyph glyph-name="eth" unicode="&#xf0;" horiz-adv-x="1109" 
d="M114 373q0 204 113 297.5t328 93.5q117 0 250 -27q-37 174 -125 342l-130 -67q-57 -31 -81 -24.5t-24 53.5v15q0 33 12.5 49t57.5 40l96 50q-25 39 -52 77q-28 44 -24 63.5t46 39.5q37 18 57.5 13t53.5 -44q28 -39 53 -78l114 59q41 22 64.5 26.5t34.5 -8t11 -44.5v-22
q0 -25 -14 -43t-51 -38l-88 -45q180 -320 180 -668q0 -255 -101 -378t-340 -123q-210 0 -325.5 95.5t-115.5 295.5zM269 373q0 -126 69.5 -186.5t216.5 -60.5q88 0 145.5 23t87.5 69.5t41 102.5t11 137q0 65 -7 128q-149 34 -278 34q-152 0 -219 -58.5t-67 -188.5z" />
    <glyph glyph-name="ntilde" unicode="&#xf1;" horiz-adv-x="1174" 
d="M279 1176q-17 9 -18 28t15 42q72 98 187 98q52 0 97 -22t83.5 -44t72.5 -22q48 0 80 43q26 34 64 16l37 -18q17 -9 18 -28t-15 -42q-73 -99 -187 -99q-52 0 -97.5 22t-83.5 44t-72 22q-48 0 -80 -42q-27 -35 -64 -16zM587 991q111 0 191 -23t139.5 -75.5t89 -143
t29.5 -220.5v-459q0 -70 -70 -70h-16q-70 0 -70 70v459q0 179 -68 248t-225 69t-225 -69t-68 -248v-459q0 -70 -70 -70h-15q-70 0 -70 70v459q0 130 29.5 220.5t89 143t139 75.5t190.5 23z" />
    <glyph glyph-name="ograve" unicode="&#xf2;" horiz-adv-x="1150" 
d="M632 1181q19 -36 8.5 -59.5t-45.5 -23.5h-23q-56 0 -83 49l-94 168q-20 37 -8.5 60.5t48.5 23.5h29q57 0 83 -51zM575 -18q-220 0 -340.5 131.5t-120.5 372.5t120.5 373t340.5 132t341 -132t121 -373t-121 -372.5t-341 -131.5zM575 127q304 0 304 359q0 360 -304 360
t-304 -360q0 -359 304 -359z" />
    <glyph glyph-name="oacute" unicode="&#xf3;" horiz-adv-x="1150" 
d="M579 1098q-35 0 -45.5 23.5t8.5 59.5l85 167q26 51 83 51h19q41 0 55.5 -23.5t-5.5 -60.5l-94 -168q-27 -49 -83 -49h-23zM575 -18q-220 0 -340.5 131.5t-120.5 372.5t120.5 373t340.5 132t341 -132t121 -373t-121 -372.5t-341 -131.5zM575 127q304 0 304 359
q0 360 -304 360t-304 -360q0 -359 304 -359z" />
    <glyph glyph-name="ocircumflex" unicode="&#xf4;" horiz-adv-x="1150" 
d="M575 1232l-207 -101q-59 -29 -88 16q-28 45 34 81l212 121q48 28 96 0l213 -122q62 -35 34 -80q-27 -46 -88 -16zM575 991q220 0 341 -132t121 -373t-121 -372.5t-341 -131.5t-340.5 131.5t-120.5 372.5t120.5 373t340.5 132zM575 127q304 0 304 359q0 360 -304 360
t-304 -360q0 -359 304 -359z" />
    <glyph glyph-name="otilde" unicode="&#xf5;" horiz-adv-x="1150" 
d="M304 1158l-37 18q-17 9 -18 28t15 42q72 98 187 98q52 0 97 -22t83.5 -44t72.5 -22q48 0 80 43q26 34 64 16l37 -18q17 -9 18 -28t-15 -42q-73 -99 -187 -99q-52 0 -97.5 22t-83.5 44t-72 22q-48 0 -80 -42q-27 -35 -64 -16zM575 -18q-220 0 -340.5 131.5t-120.5 372.5
t120.5 373t340.5 132t341 -132t121 -373t-121 -372.5t-341 -131.5zM575 127q304 0 304 359q0 360 -304 360t-304 -360q0 -359 304 -359z" />
    <glyph glyph-name="odieresis" unicode="&#xf6;" horiz-adv-x="1150" 
d="M378 1135q-46 0 -70 26t-24 72t24 72.5t70 26.5q45 0 68.5 -26.5t23.5 -72.5q0 -98 -92 -98zM771 1135q-45 0 -69 26t-24 72t24 72.5t69 26.5t69 -26.5t24 -72.5q0 -47 -23.5 -72.5t-69.5 -25.5zM575 -18q-220 0 -340.5 131.5t-120.5 372.5t120.5 373t340.5 132t341 -132
t121 -373t-121 -372.5t-341 -131.5zM575 127q304 0 304 359q0 360 -304 360t-304 -360q0 -359 304 -359z" />
    <glyph glyph-name="divide" unicode="&#xf7;" horiz-adv-x="1290" 
d="M645 933q-46 0 -69.5 25t-23.5 71q0 47 23.5 72.5t69.5 25.5q45 0 68 -25.5t23 -72.5q0 -96 -91 -96zM196 574q-70 0 -70 70v8q0 70 70 70h897q70 0 70 -70v-8q0 -70 -70 -70h-897zM645 167q-46 0 -69.5 25t-23.5 71q0 47 23.5 72.5t69.5 25.5q45 0 68 -25.5t23 -72.5
q0 -96 -91 -96z" />
    <glyph glyph-name="oslash" unicode="&#xf8;" horiz-adv-x="1150" 
d="M867 904q170 -130 170 -418q0 -241 -121 -372.5t-341 -131.5q-92 0 -172 25l-51 -97q-26 -50 -82 -50h-1q-41 0 -55.5 23.5t4.5 59.5l65 126q-169 129 -169 417q0 241 120.5 373t340.5 132q92 0 173 -25l48 95q25 51 82 51h3q40 0 54.5 -23.5t-4.5 -59.5zM271 486
q0 -188 84 -278l324 625q-45 13 -104 13q-304 0 -304 -360zM575 127q304 0 304 359q0 186 -83 277l-324 -623q45 -13 103 -13z" />
    <glyph glyph-name="ugrave" unicode="&#xf9;" horiz-adv-x="1174" 
d="M644 1181q19 -36 8.5 -59.5t-45.5 -23.5h-23q-56 0 -83 49l-94 168q-20 37 -8.5 60.5t48.5 23.5h29q57 0 83 -51zM880 903q0 70 70 70h16q70 0 70 -70v-459q0 -130 -29.5 -220.5t-89 -143t-139.5 -75.5t-191 -23t-190.5 23t-139 75.5t-89 143t-29.5 220.5v459q0 70 70 70
h15q70 0 70 -70v-459q0 -179 68 -248t225 -69t225 69t68 248v459z" />
    <glyph glyph-name="uacute" unicode="&#xfa;" horiz-adv-x="1174" 
d="M751 1399q37 0 48.5 -23.5t-8.5 -60.5l-94 -168q-27 -49 -83 -49h-9q-41 0 -55.5 23.5t4.5 59.5l85 167q26 51 83 51h29zM880 903q0 70 70 70h16q70 0 70 -70v-459q0 -130 -29.5 -220.5t-89 -143t-139.5 -75.5t-191 -23t-190.5 23t-139 75.5t-89 143t-29.5 220.5v459
q0 70 70 70h15q70 0 70 -70v-459q0 -179 68 -248t225 -69t225 69t68 248v459z" />
    <glyph glyph-name="ucircumflex" unicode="&#xfb;" horiz-adv-x="1174" 
d="M587 1232l-207 -101q-59 -29 -88 16q-28 45 34 81l212 121q48 28 96 0l213 -122q62 -35 34 -80q-27 -46 -88 -16zM880 903q0 70 70 70h16q70 0 70 -70v-459q0 -130 -29.5 -220.5t-89 -143t-139.5 -75.5t-191 -23t-190.5 23t-139 75.5t-89 143t-29.5 220.5v459q0 70 70 70
h15q70 0 70 -70v-459q0 -179 68 -248t225 -69t225 69t68 248v459z" />
    <glyph glyph-name="udieresis" unicode="&#xfc;" horiz-adv-x="1174" 
d="M390 1135q-46 0 -70 26t-24 72t24 72.5t70 26.5q45 0 68.5 -26.5t23.5 -72.5q0 -98 -92 -98zM783 1135q-45 0 -69 26t-24 72t24 72.5t69 26.5t69 -26.5t24 -72.5q0 -47 -23.5 -72.5t-69.5 -25.5zM880 903q0 70 70 70h16q70 0 70 -70v-459q0 -130 -29.5 -220.5t-89 -143
t-139.5 -75.5t-191 -23t-190.5 23t-139 75.5t-89 143t-29.5 220.5v459q0 70 70 70h15q70 0 70 -70v-459q0 -179 68 -248t225 -69t225 69t68 248v459z" />
    <glyph glyph-name="yacute" unicode="&#xfd;" horiz-adv-x="1159" 
d="M744 1399q37 0 48.5 -23.5t-8.5 -60.5l-94 -168q-27 -49 -83 -49h-9q-41 0 -55.5 23.5t4.5 59.5l85 167q26 51 83 51h29zM865 903q0 70 70 70h16q70 0 70 -70v-957q0 -178 -118 -271t-309 -93q-124 0 -254 39q-58 17 -58 79v4q0 37 21 53t58 6q132 -33 228 -33
q127 0 201.5 54t74.5 162v50q-117 -14 -209 -14q-257 0 -387 118t-130 386v417q0 70 70 70h15q70 0 70 -70v-406q0 -204 85 -287t274 -83q90 0 212 17v759z" />
    <glyph glyph-name="thorn" unicode="&#xfe;" horiz-adv-x="1134" 
d="M504 991q257 0 387 -118t130 -386q0 -269 -130 -387t-387 -118q-92 0 -210 14v-326q0 -70 -70 -70h-15q-70 0 -70 70v1660q0 70 70 70h15q70 0 70 -70v-353q118 14 210 14zM514 127q183 0 267 81.5t84 278.5t-84 278t-267 81q-94 0 -220 -20v-679q126 -20 220 -20z" />
    <glyph glyph-name="ydieresis" unicode="&#xff;" horiz-adv-x="1159" 
d="M383 1135q-46 0 -70 26t-24 72t24 72.5t70 26.5q45 0 68.5 -26.5t23.5 -72.5q0 -98 -92 -98zM776 1135q-45 0 -69 26t-24 72t24 72.5t69 26.5t69 -26.5t24 -72.5q0 -47 -23.5 -72.5t-69.5 -25.5zM865 903q0 70 70 70h16q70 0 70 -70v-957q0 -178 -118 -271t-309 -93
q-124 0 -254 39q-58 17 -58 79v4q0 37 21 53t58 6q132 -33 228 -33q127 0 201.5 54t74.5 162v50q-117 -14 -209 -14q-257 0 -387 118t-130 386v417q0 70 70 70h15q70 0 70 -70v-406q0 -204 85 -287t274 -83q90 0 212 17v759z" />
    <glyph glyph-name="Amacron" unicode="&#x100;" horiz-adv-x="1324" 
d="M878 1598q70 0 70 -61t-70 -61h-432q-70 0 -70 61t70 61h432zM1181 0q-62 0 -79 58l-107 341h-666l-107 -341q-17 -58 -79 -58h-19q-38 0 -53.5 21.5t-4.5 57.5l302 957q49 153 114.5 217.5t179.5 64.5q115 0 182.5 -64.5t111.5 -217.5l302 -957q11 -36 -4.5 -57.5
t-53.5 -21.5h-19zM376 547h572l-147 468q-28 89 -59 123.5t-80 34.5t-80 -34.5t-59 -123.5z" />
    <glyph glyph-name="amacron" unicode="&#x101;" horiz-adv-x="1076" 
d="M718 1271q70 0 70 -61t-70 -61h-393q-70 0 -70 61t70 61h393zM517 991q191 0 306 -91.5t115 -272.5v-346q0 -145 -67.5 -213t-228.5 -68h-191q-176 0 -264.5 65t-88.5 222t88.5 222.5t264.5 65.5h331v52q0 109 -73.5 163t-207.5 54q-120 0 -269 -36q-37 -8 -57.5 5.5
t-20.5 47.5v10q0 64 73 82q158 38 290 38zM627 140q93 0 124 36.5t31 111.5v147h-331q-112 0 -155.5 -33.5t-43.5 -114.5t43.5 -114t155.5 -33h176z" />
    <glyph glyph-name="Abreve" unicode="&#x102;" horiz-adv-x="1324" 
d="M662 1436q-139 0 -220.5 45t-81.5 140q0 28 16 43t44 15h7q64 0 64 -40q0 -98 171 -98q173 0 173 98q0 40 65 40h7q27 0 43 -15.5t16 -42.5q0 -95 -81.5 -140t-222.5 -45zM1181 0q-62 0 -79 58l-107 341h-666l-107 -341q-17 -58 -79 -58h-19q-38 0 -53.5 21.5t-4.5 57.5
l302 957q49 153 114.5 217.5t179.5 64.5q115 0 182.5 -64.5t111.5 -217.5l302 -957q11 -36 -4.5 -57.5t-53.5 -21.5h-19zM376 547h572l-147 468q-28 89 -59 123.5t-80 34.5t-80 -34.5t-59 -123.5z" />
    <glyph glyph-name="abreve" unicode="&#x103;" horiz-adv-x="1076" 
d="M522 1109q-139 0 -220.5 45t-81.5 140q0 28 16 43t44 15h7q64 0 64 -40q0 -98 171 -98q173 0 173 98q0 40 65 40h7q27 0 43 -15.5t16 -42.5q0 -95 -81.5 -140t-222.5 -45zM517 991q191 0 306 -91.5t115 -272.5v-346q0 -145 -67.5 -213t-228.5 -68h-191q-176 0 -264.5 65
t-88.5 222t88.5 222.5t264.5 65.5h331v52q0 109 -73.5 163t-207.5 54q-120 0 -269 -36q-37 -8 -57.5 5.5t-20.5 47.5v10q0 64 73 82q158 38 290 38zM627 140q93 0 124 36.5t31 111.5v147h-331q-112 0 -155.5 -33.5t-43.5 -114.5t43.5 -114t155.5 -33h176z" />
    <glyph glyph-name="Aogonek" unicode="&#x104;" horiz-adv-x="1324" 
d="M1243 -281q40 0 40 -47v-15q0 -47 -39 -55q-52 -9 -103 -9q-67 0 -118 21.5t-76 58t-28.5 80.5t24 94.5t83.5 95.5l89 72l-120 384h-666l-107 -341q-17 -58 -79 -58h-19q-38 0 -53.5 21.5t-4.5 57.5l302 957q49 153 114.5 217.5t179.5 64.5q115 0 182.5 -64.5
t111.5 -217.5l309 -980q18 -56 -26 -94l-114 -98q-66 -59 -51.5 -105t86.5 -46q19 0 47 3t36 3zM376 547h572l-147 468q-28 89 -59 123.5t-80 34.5t-80 -34.5t-59 -123.5z" />
    <glyph glyph-name="aogonek" unicode="&#x105;" horiz-adv-x="1076" 
d="M517 991q191 0 306 -91.5t115 -272.5v-346q0 -156 -76 -221l-228 -196q-66 -59 -51.5 -105t86.5 -46q19 0 47 3t36 3q40 0 40 -47v-15q0 -47 -39 -55q-53 -9 -103 -9q-67 0 -118 21.5t-76 58t-28.5 80.5t24 94.5t82.5 95.5l71 57h-154q-176 0 -264.5 65t-88.5 222
t88.5 222.5t264.5 65.5h331v52q0 109 -73.5 163t-207.5 54q-120 0 -269 -36q-37 -8 -57.5 5.5t-20.5 47.5v10q0 64 73 82q158 38 290 38zM252 287q0 -81 43.5 -114t155.5 -33h176q93 0 124 36.5t31 111.5v147h-331q-112 0 -155.5 -33.5t-43.5 -114.5z" />
    <glyph glyph-name="Cacute" unicode="&#x106;" horiz-adv-x="1118" 
d="M672 1425q-35 0 -45.5 23.5t8.5 59.5l85 167q26 51 83 51h19q41 0 55.5 -23.5t-5.5 -60.5l-94 -168q-27 -49 -83 -49h-23zM114 650q0 256 101.5 423t289 221t452.5 -16q59 -16 59 -79v-11q0 -37 -21.5 -52.5t-59.5 -5.5q-141 37 -249 34t-185 -36t-126 -101t-71.5 -161
t-22.5 -216t22.5 -216t71.5 -161t126 -101t185 -36t249 34q38 10 59.5 -4t21.5 -49v-16q0 -62 -65 -81q-263 -68 -449 -13.5t-287 221.5t-101 422z" />
    <glyph glyph-name="cacute" unicode="&#x107;" horiz-adv-x="959" 
d="M714 1399q37 0 48.5 -23.5t-8.5 -60.5l-94 -168q-27 -49 -83 -49h-9q-41 0 -55.5 23.5t4.5 59.5l85 167q26 51 83 51h29zM585 846q-158 0 -236 -88.5t-78 -271.5t78 -271t236 -88q86 0 205 26q37 8 57.5 -5t20.5 -45v-10q0 -63 -59 -79q-122 -32 -231 -32
q-215 0 -339.5 129.5t-124.5 374.5t124.5 375t339.5 130q109 0 231 -32q59 -16 59 -79q0 -37 -23.5 -52t-65.5 -5q-113 23 -194 23z" />
    <glyph glyph-name="Ccircumflex" unicode="&#x108;" horiz-adv-x="1118" 
d="M668 1559l-207 -101q-59 -29 -88 16q-28 45 34 81l212 121q48 28 96 0l213 -122q62 -35 34 -80q-27 -46 -88 -16zM1016 1184q0 -35 -21.5 -49.5t-59.5 -4.5q-141 37 -249 34t-185 -36t-126 -101t-71.5 -161t-22.5 -216t22.5 -216t71.5 -161t126 -101t185 -36t249 34
q38 10 59.5 -4t21.5 -49v-16q0 -63 -59 -79q-265 -70 -452.5 -16t-289 221t-101.5 423t101.5 423t289 221t452.5 -16q59 -16 59 -79v-15z" />
    <glyph glyph-name="ccircumflex" unicode="&#x109;" horiz-adv-x="959" 
d="M550 1232l-207 -101q-59 -29 -88 16q-28 45 34 81l212 121q48 28 96 0l213 -122q62 -35 34 -80q-27 -46 -88 -16zM114 486q0 245 124.5 375t339.5 130q109 0 231 -32q59 -16 59 -79q0 -37 -20.5 -52.5t-57.5 -7.5q-119 26 -205 26q-158 0 -236 -88.5t-78 -271.5t78 -271
t236 -88q86 0 205 26q37 8 57.5 -5t20.5 -45v-10q0 -63 -59 -79q-122 -32 -231 -32q-215 0 -339.5 129.5t-124.5 374.5z" />
    <glyph glyph-name="Cdotaccent" unicode="&#x10a;" horiz-adv-x="1118" 
d="M668 1471q-48 0 -73 26.5t-25 75.5q0 48 25 75.5t73 27.5t72.5 -27.5t24.5 -75.5q0 -102 -97 -102zM114 650q0 256 101.5 423t289 221t452.5 -16q59 -16 59 -79v-11q0 -37 -21.5 -52.5t-59.5 -5.5q-141 37 -249 34t-185 -36t-126 -101t-71.5 -161t-22.5 -216t22.5 -216
t71.5 -161t126 -101t185 -36t249 34q38 10 59.5 -4t21.5 -49v-16q0 -62 -65 -81q-263 -68 -449 -13.5t-287 221.5t-101 422z" />
    <glyph glyph-name="cdotaccent" unicode="&#x10b;" horiz-adv-x="959" 
d="M550 1144q-48 0 -73 26.5t-25 75.5q0 48 25 75.5t73 27.5t72.5 -27.5t24.5 -75.5q0 -102 -97 -102zM585 846q-158 0 -236 -88.5t-78 -271.5t78 -271t236 -88q86 0 205 26q37 8 57.5 -5t20.5 -45v-10q0 -63 -59 -79q-122 -32 -231 -32q-215 0 -339.5 129.5t-124.5 374.5
t124.5 375t339.5 130q109 0 231 -32q59 -16 59 -79q0 -37 -23.5 -52t-65.5 -5q-113 23 -194 23z" />
    <glyph glyph-name="Ccaron" unicode="&#x10c;" horiz-adv-x="1118" 
d="M963 1667q28 -45 -34 -80l-213 -122q-48 -28 -96 0l-213 121q-61 35 -33 81q27 46 88 16l207 -101l206 101q61 30 88 -16zM1016 1184q0 -35 -21.5 -49.5t-59.5 -4.5q-141 37 -249 34t-185 -36t-126 -101t-71.5 -161t-22.5 -216t22.5 -216t71.5 -161t126 -101t185 -36
t249 34q38 10 59.5 -4t21.5 -49v-16q0 -63 -59 -79q-265 -70 -452.5 -16t-289 221t-101.5 423t101.5 423t289 221t452.5 -16q59 -16 59 -79v-15z" />
    <glyph glyph-name="ccaron" unicode="&#x10d;" horiz-adv-x="959" 
d="M845 1340q28 -45 -34 -80l-213 -122q-48 -28 -96 0l-213 121q-61 35 -33 81q27 46 88 16l207 -101l206 101q61 30 88 -16zM114 486q0 245 124.5 375t339.5 130q109 0 231 -32q59 -16 59 -79q0 -37 -20.5 -52.5t-57.5 -7.5q-119 26 -205 26q-158 0 -236 -88.5t-78 -271.5
t78 -271t236 -88q86 0 205 26q37 8 57.5 -5t20.5 -45v-10q0 -63 -59 -79q-122 -32 -231 -32q-215 0 -339.5 129.5t-124.5 374.5z" />
    <glyph glyph-name="Dcaron" unicode="&#x10e;" horiz-adv-x="1292" 
d="M916 1667q28 -45 -34 -80l-213 -122q-48 -28 -96 0l-213 121q-61 35 -33 81q27 46 88 16l207 -101l206 101q61 30 88 -16zM560 1300q153 0 265 -34t192.5 -109.5t120.5 -201.5t40 -305t-40 -305t-120.5 -201.5t-192.5 -109.5t-265 -34h-76q-163 0 -230 63.5t-67 207.5
v758q0 144 67 207.5t230 63.5h76zM594 151q104 0 181 25.5t133 83t84 155t28 235.5t-28 235.5t-84 155t-133 83t-181 25.5h-111q-83 0 -110.5 -34t-27.5 -108v-714q0 -74 27.5 -108t110.5 -34h111z" />
    <glyph glyph-name="dcaron" unicode="&#x10f;" horiz-adv-x="1350" 
d="M840 977v353q0 70 70 70h15q70 0 70 -70v-1061q0 -148 -81.5 -217.5t-283.5 -69.5q-257 0 -387 118t-130 387q0 268 130 386t387 118q92 0 210 -14zM1150 1336q11 64 75 64h18q37 0 53.5 -20.5t7.5 -57.5l-53 -217q-15 -61 -77 -61q-34 0 -50 20t-10 55zM620 127
q71 0 116.5 11t67.5 34.5t29 49.5t7 67v537q-126 20 -220 20q-183 0 -267 -81t-84 -278q0 -195 84.5 -277.5t266.5 -82.5z" />
    <glyph glyph-name="Dcroat" unicode="&#x110;" horiz-adv-x="1350" 
d="M618 1300q153 0 265 -34t192.5 -109.5t120.5 -201.5t40 -305t-40 -305t-120.5 -201.5t-192.5 -109.5t-265 -34h-76q-163 0 -230 63.5t-67 207.5v315h-136q-54 0 -54 56v32q0 53 54 53h136v302q0 144 67 207.5t230 63.5h76zM652 151q104 0 181 25.5t133 83t84 155
t28 235.5t-28 235.5t-84 155t-133 83t-181 25.5h-111q-83 0 -110.5 -34t-27.5 -108v-280h285q26 0 40.5 -14t14.5 -39v-32q0 -56 -55 -56h-285v-293q0 -74 27.5 -108t110.5 -34h111z" />
    <glyph glyph-name="dcroat" unicode="&#x111;" horiz-adv-x="1170" 
d="M1067 1253q24 0 40.5 -16t16.5 -40v-21q0 -25 -16.5 -41t-40.5 -16h-71v-850q0 -148 -82 -217.5t-284 -69.5q-256 0 -386 118t-130 387q0 268 130 386t386 118q93 0 210 -14v142h-403q-24 0 -40.5 16.5t-16.5 40.5v21q0 24 16.5 40t40.5 16h403v90q0 24 16 40.5t40 16.5
h43q24 0 40.5 -16.5t16.5 -40.5v-90h71zM620 127q72 0 117.5 11t67 34.5t28.5 49.5t7 67v537q-126 20 -220 20q-183 0 -267 -81t-84 -278q0 -195 84.5 -277.5t266.5 -82.5z" />
    <glyph glyph-name="Emacron" unicode="&#x112;" horiz-adv-x="1193" 
d="M378 1537q0 61 70 61h432q70 0 70 -61t-70 -61h-432q-70 0 -70 61zM483 0q-162 0 -229 65.5t-67 209.5v750q0 144 67 209.5t229 65.5h495q70 0 70 -70v-11q0 -70 -70 -70h-481q-91 0 -121.5 -33t-30.5 -101v-284h532q70 0 70 -70v-11q0 -70 -70 -70h-532v-295
q0 -68 30.5 -101t121.5 -33h522q70 0 70 -70v-11q0 -70 -70 -70h-536z" />
    <glyph glyph-name="emacron" unicode="&#x113;" horiz-adv-x="1088" 
d="M754 1271q70 0 70 -61t-70 -61h-393q-70 0 -70 61t70 61h393zM986 639q0 -100 -52.5 -148.5t-185.5 -62.5l-470 -50q24 -127 107 -189t215 -62q104 0 232 36q38 11 59 -1.5t21 -45.5v-12q0 -62 -58 -79q-147 -43 -272 -43q-217 0 -342.5 129.5t-125.5 374.5
q0 243 118.5 374t343.5 131q192 0 301 -94.5t109 -257.5zM270 521l446 47q69 7 92 25t23 59q0 90 -65.5 142.5t-189.5 52.5q-291 0 -306 -326z" />
    <glyph glyph-name="Ebreve" unicode="&#x114;" horiz-adv-x="1193" 
d="M664 1436q-139 0 -220.5 45t-81.5 140q0 28 16 43t44 15h7q64 0 64 -40q0 -98 171 -98q173 0 173 98q0 40 65 40h7q27 0 43 -15.5t16 -42.5q0 -95 -81.5 -140t-222.5 -45zM483 0q-162 0 -229 65.5t-67 209.5v750q0 144 67 209.5t229 65.5h495q70 0 70 -70v-11
q0 -70 -70 -70h-481q-91 0 -121.5 -33t-30.5 -101v-284h532q70 0 70 -70v-11q0 -70 -70 -70h-532v-295q0 -68 30.5 -101t121.5 -33h522q70 0 70 -70v-11q0 -70 -70 -70h-536z" />
    <glyph glyph-name="ebreve" unicode="&#x115;" horiz-adv-x="1088" 
d="M558 1109q-139 0 -220.5 45t-81.5 140q0 28 16 43t44 15h7q64 0 64 -40q0 -98 171 -98q173 0 173 98q0 40 65 40h7q27 0 43 -15.5t16 -42.5q0 -95 -81.5 -140t-222.5 -45zM986 639q0 -100 -52.5 -148.5t-185.5 -62.5l-470 -50q24 -127 107 -189t215 -62q104 0 232 36
q38 11 59 -1.5t21 -45.5v-12q0 -62 -58 -79q-147 -43 -272 -43q-217 0 -342.5 129.5t-125.5 374.5q0 243 118.5 374t343.5 131q192 0 301 -94.5t109 -257.5zM270 521l446 47q69 7 92 25t23 59q0 90 -65.5 142.5t-189.5 52.5q-291 0 -306 -326z" />
    <glyph glyph-name="Edotaccent" unicode="&#x116;" horiz-adv-x="1193" 
d="M664 1471q-48 0 -73 26.5t-25 75.5q0 48 25 75.5t73 27.5t72.5 -27.5t24.5 -75.5q0 -102 -97 -102zM483 0q-162 0 -229 65.5t-67 209.5v750q0 144 67 209.5t229 65.5h495q70 0 70 -70v-11q0 -70 -70 -70h-481q-91 0 -121.5 -33t-30.5 -101v-284h532q70 0 70 -70v-11
q0 -70 -70 -70h-532v-295q0 -68 30.5 -101t121.5 -33h522q70 0 70 -70v-11q0 -70 -70 -70h-536z" />
    <glyph glyph-name="edotaccent" unicode="&#x117;" horiz-adv-x="1088" 
d="M558 1144q-48 0 -73 26.5t-25 75.5q0 48 25 75.5t73 27.5t72.5 -27.5t24.5 -75.5q0 -102 -97 -102zM986 639q0 -100 -52.5 -148.5t-185.5 -62.5l-470 -50q24 -127 107 -189t215 -62q104 0 232 36q38 11 59 -1.5t21 -45.5v-12q0 -62 -58 -79q-147 -43 -272 -43
q-217 0 -342.5 129.5t-125.5 374.5q0 243 118.5 374t343.5 131q192 0 301 -94.5t109 -257.5zM270 521l446 47q69 7 92 25t23 59q0 90 -65.5 142.5t-189.5 52.5q-291 0 -306 -326z" />
    <glyph glyph-name="Eogonek" unicode="&#x118;" horiz-adv-x="1193" 
d="M931 -136q-66 -59 -51.5 -105t86.5 -46q19 0 47 3t36 3q40 0 40 -47v-15q0 -47 -39 -55q-52 -9 -103 -9q-67 0 -118 21.5t-76 58t-28.5 80.5t24 94.5t82.5 95.5l71 57h-419q-162 0 -229 65.5t-67 209.5v750q0 144 67 209.5t229 65.5h495q70 0 70 -70v-11q0 -70 -70 -70
h-481q-91 0 -121.5 -33t-30.5 -101v-284h532q70 0 70 -70v-11q0 -70 -70 -70h-532v-295q0 -68 30.5 -101t121.5 -33h522q70 0 70 -70v-29q0 -51 -39 -86z" />
    <glyph glyph-name="eogonek" unicode="&#x119;" horiz-adv-x="1088" 
d="M986 639q0 -100 -52.5 -148.5t-185.5 -62.5l-470 -50q24 -127 107 -189t215 -62q104 0 232 36q38 11 59 -1.5t21 -45.5v-20q0 -51 -39 -86l-170 -146q-66 -59 -51.5 -105t86.5 -46q19 0 47 3t36 3q40 0 40 -47v-15q0 -47 -39 -55q-52 -9 -103 -9q-67 0 -118 21.5t-76 58
t-28.5 80.5t24 94.5t82.5 95.5l53 43q-33 -4 -74 -4q-217 0 -342.5 129.5t-125.5 374.5q0 243 118.5 374t343.5 131q192 0 301 -94.5t109 -257.5zM270 521l446 47q69 7 92 25t23 59q0 90 -65 142.5t-190 52.5q-291 0 -306 -326z" />
    <glyph glyph-name="Ecaron" unicode="&#x11a;" horiz-adv-x="1193" 
d="M959 1667q28 -45 -34 -80l-213 -122q-48 -28 -96 0l-213 121q-61 35 -33 81q27 46 88 16l207 -101l206 101q61 30 88 -16zM497 151h522q70 0 70 -70v-11q0 -70 -70 -70h-536q-162 0 -229 65.5t-67 209.5v750q0 144 67 209.5t229 65.5h495q70 0 70 -70v-11q0 -70 -70 -70
h-481q-91 0 -121.5 -33t-30.5 -101v-284h532q70 0 70 -70v-11q0 -70 -70 -70h-532v-295q0 -68 30.5 -101t121.5 -33z" />
    <glyph glyph-name="ecaron" unicode="&#x11b;" horiz-adv-x="1088" 
d="M853 1340q28 -45 -34 -80l-213 -122q-48 -28 -96 0l-213 121q-61 35 -33 81q27 46 88 16l207 -101l206 101q61 30 88 -16zM986 639q0 -100 -52.5 -148.5t-185.5 -62.5l-470 -50q24 -127 107 -189t215 -62q104 0 232 36q38 11 59 -1.5t21 -45.5v-12q0 -62 -58 -79
q-147 -43 -272 -43q-217 0 -342.5 129.5t-125.5 374.5q0 243 118.5 374t343.5 131q192 0 301 -94.5t109 -257.5zM270 521l446 47q69 7 92 25t23 59q0 90 -65.5 142.5t-189.5 52.5q-291 0 -306 -326z" />
    <glyph glyph-name="Gcircumflex" unicode="&#x11c;" horiz-adv-x="1262" 
d="M664 1559l-207 -101q-59 -29 -88 16q-28 45 34 81l212 121q48 28 96 0l213 -122q62 -35 34 -80q-27 -46 -88 -16zM965 619q0 70 70 70h18q70 0 70 -70v-364q0 -155 -88 -214t-316 -59q-299 0 -452 177t-153 491q0 258 103 424t300.5 220.5t486.5 -17.5q61 -16 61 -79v-5
q0 -37 -21 -52.5t-59 -7.5q-373 85 -543 -39.5t-170 -443.5q0 -517 438 -517q154 0 204.5 26t50.5 118v342z" />
    <glyph glyph-name="gcircumflex" unicode="&#x11d;" horiz-adv-x="1134" 
d="M578 1232l-207 -101q-59 -29 -88 16q-28 45 34 81l212 121q48 28 96 0l213 -122q62 -35 34 -80q-27 -46 -88 -16zM630 991q202 0 284 -69.5t82 -217.5v-758q0 -178 -118.5 -271t-308.5 -93q-123 0 -254 39q-58 17 -58 79v4q0 37 21 53t58 6q132 -33 227 -33
q128 0 202.5 54t74.5 162v50q-117 -14 -210 -14q-256 0 -386 118t-130 386q0 269 130 387t386 118zM620 127q94 0 220 20v537q0 41 -7 67t-28.5 49.5t-67 34.5t-117.5 11q-182 0 -266.5 -82.5t-84.5 -277.5t84.5 -277t266.5 -82z" />
    <glyph glyph-name="Gbreve" unicode="&#x11e;" horiz-adv-x="1262" 
d="M664 1436q-139 0 -220.5 45t-81.5 140q0 28 16 43t44 15h7q64 0 64 -40q0 -98 171 -98q173 0 173 98q0 40 65 40h7q27 0 43 -15.5t16 -42.5q0 -95 -81.5 -140t-222.5 -45zM965 619q0 70 70 70h18q70 0 70 -70v-364q0 -155 -88 -214t-316 -59q-299 0 -452 177t-153 491
q0 258 103 424t300.5 220.5t486.5 -17.5q61 -16 61 -79v-5q0 -37 -21 -52.5t-59 -7.5q-373 85 -543 -39.5t-170 -443.5q0 -517 438 -517q154 0 204.5 26t50.5 118v342z" />
    <glyph glyph-name="gbreve" unicode="&#x11f;" horiz-adv-x="1134" 
d="M578 1109q-139 0 -220.5 45t-81.5 140q0 28 16 43t44 15h7q64 0 64 -40q0 -98 171 -98q173 0 173 98q0 40 65 40h7q27 0 43 -15.5t16 -42.5q0 -95 -81.5 -140t-222.5 -45zM630 991q202 0 284 -69.5t82 -217.5v-758q0 -178 -118.5 -271t-308.5 -93q-123 0 -254 39
q-58 17 -58 79v4q0 37 21 53t58 6q132 -33 227 -33q128 0 202.5 54t74.5 162v50q-117 -14 -210 -14q-256 0 -386 118t-130 386q0 269 130 387t386 118zM620 127q94 0 220 20v537q0 41 -7 67t-28.5 49.5t-67 34.5t-117.5 11q-182 0 -266.5 -82.5t-84.5 -277.5t84.5 -277
t266.5 -82z" />
    <glyph glyph-name="Gdotaccent" unicode="&#x120;" horiz-adv-x="1262" 
d="M664 1471q-48 0 -73 26.5t-25 75.5q0 48 25 75.5t73 27.5t72.5 -27.5t24.5 -75.5q0 -102 -97 -102zM965 619q0 70 70 70h18q70 0 70 -70v-364q0 -155 -88 -214t-316 -59q-299 0 -452 177t-153 491q0 258 103 424t300.5 220.5t486.5 -17.5q61 -16 61 -79v-5
q0 -37 -21 -52.5t-59 -7.5q-373 85 -543 -39.5t-170 -443.5q0 -517 438 -517q154 0 204.5 26t50.5 118v342z" />
    <glyph glyph-name="gdotaccent" unicode="&#x121;" horiz-adv-x="1134" 
d="M578 1144q-48 0 -73 26.5t-25 75.5q0 48 25 75.5t73 27.5t72.5 -27.5t24.5 -75.5q0 -102 -97 -102zM630 991q202 0 284 -69.5t82 -217.5v-758q0 -178 -118.5 -271t-308.5 -93q-123 0 -254 39q-58 17 -58 79v4q0 37 21 53t58 6q132 -33 227 -33q128 0 202.5 54t74.5 162
v50q-117 -14 -210 -14q-256 0 -386 118t-130 386q0 269 130 387t386 118zM620 127q94 0 220 20v537q0 41 -7 67t-28.5 49.5t-67 34.5t-117.5 11q-182 0 -266.5 -82.5t-84.5 -277.5t84.5 -277t266.5 -82z" />
    <glyph glyph-name="uni0122" unicode="&#x122;" horiz-adv-x="1262" 
d="M965 619q0 70 70 70h18q70 0 70 -70v-364q0 -155 -88 -214t-316 -59q-299 0 -452 177t-153 491q0 258 103 424t300.5 220.5t486.5 -17.5q61 -16 61 -79v-5q0 -37 -21 -52.5t-59 -7.5q-373 85 -543 -39.5t-170 -443.5q0 -517 438 -517q154 0 204.5 26t50.5 118v342z
M644 -483q-30 0 -44.5 20t-8.5 55l34 205q11 64 75 64h12q37 0 53.5 -20.5t7.5 -57.5l-50 -205q-15 -61 -77 -61h-2z" />
    <glyph glyph-name="uni0123" unicode="&#x123;" horiz-adv-x="1134" 
d="M681 1442q30 0 44 -20t8 -55l-34 -205q-11 -64 -75 -64h-12q-37 0 -53.5 20.5t-7.5 57.5l50 205q15 61 77 61h3zM630 991q202 0 284 -69.5t82 -217.5v-758q0 -178 -118.5 -271t-308.5 -93q-123 0 -254 39q-58 17 -58 79v4q0 37 21 53t58 6q132 -33 227 -33
q128 0 202.5 54t74.5 162v50q-117 -14 -210 -14q-256 0 -386 118t-130 386q0 269 130 387t386 118zM620 127q94 0 220 20v537q0 41 -7 67t-28.5 49.5t-67 34.5t-117.5 11q-182 0 -266.5 -82.5t-84.5 -277.5t84.5 -277t266.5 -82z" />
    <glyph glyph-name="Hcircumflex" unicode="&#x124;" horiz-adv-x="1430" 
d="M716 1559l-207 -101q-59 -29 -88 16q-28 45 34 81l212 121q48 28 96 0l213 -122q62 -35 34 -80q-27 -46 -88 -16zM1085 1230q0 70 70 70h18q70 0 70 -70v-1160q0 -70 -70 -70h-18q-70 0 -70 70v518h-740v-518q0 -70 -70 -70h-18q-70 0 -70 70v1160q0 70 70 70h18
q70 0 70 -70v-491h740v491z" />
    <glyph glyph-name="hcircumflex" unicode="&#x125;" horiz-adv-x="1159" 
d="M429 1463q-37 -37 -89 -1l-125 83l-125 -83q-53 -36 -88 1t25 82l139 103q49 36 98 0l140 -103q61 -46 25 -82zM504 991q257 0 387 -118t130 -386v-417q0 -70 -70 -70h-16q-70 0 -70 70v417q0 198 -85 278.5t-273 80.5q-91 0 -213 -17v-759q0 -70 -70 -70h-15
q-70 0 -70 70v1260q0 70 70 70h15q70 0 70 -70v-353q118 14 210 14z" />
    <glyph glyph-name="Hbar" unicode="&#x126;" horiz-adv-x="1430" 
d="M1085 1230q0 70 70 70h18q70 0 70 -70v-1160q0 -70 -70 -70h-18q-70 0 -70 70v435h-740v-435q0 -70 -70 -70h-18q-70 0 -70 70v1160q0 70 70 70h18q70 0 70 -70v-166h740v166zM345 657h740v256h-740v-256z" />
    <glyph glyph-name="hbar" unicode="&#x127;" horiz-adv-x="1194" 
d="M539 991q256 0 386.5 -118t130.5 -386v-417q0 -70 -70 -70h-16q-70 0 -70 70v417q0 198 -85 278.5t-274 80.5q-90 0 -212 -17v-759q0 -70 -70 -70h-16q-70 0 -70 70v1049h-70q-25 0 -41 16.5t-16 40.5v21q0 25 16 40.5t41 15.5h70v85q0 28 17.5 45t43.5 17h34
q26 0 43.5 -17t17.5 -45v-85h404q24 0 40.5 -16t16.5 -40v-21q0 -25 -16.5 -41t-40.5 -16h-404v-142q117 14 210 14z" />
    <glyph glyph-name="Itilde" unicode="&#x128;" horiz-adv-x="618" 
d="M91 1503q-28 22 -14 52q52 117 148 117q30 0 56 -14t41.5 -30.5t35 -30.5t36.5 -14q37 0 61 45q20 35 49 11l20 -15q28 -22 15 -53q-51 -116 -148 -116q-30 0 -56.5 13.5t-42 30.5t-35 30.5t-36.5 13.5q-37 0 -61 -46q-20 -34 -49 -10zM299 0q-70 0 -70 70v1160
q0 70 70 70h20q70 0 70 -70v-1160q0 -70 -70 -70h-20z" />
    <glyph glyph-name="itilde" unicode="&#x129;" horiz-adv-x="484" 
d="M23 1176q-28 22 -14 52q53 117 148 117q30 0 56 -14t41.5 -30.5t35 -30.5t36.5 -14q37 0 61 45q20 35 49 11l20 -15q28 -22 15 -53q-51 -116 -148 -116q-30 0 -56.5 14t-42 30t-35 30t-36.5 14q-37 0 -61 -46q-20 -34 -49 -10zM233 0q-70 0 -70 70v833q0 70 70 70h18
q70 0 70 -70v-833q0 -70 -70 -70h-18z" />
    <glyph glyph-name="Imacron" unicode="&#x12a;" horiz-adv-x="618" 
d="M61 1537q0 61 70 61h356q70 0 70 -61t-70 -61h-356q-70 0 -70 61zM299 0q-70 0 -70 70v1160q0 70 70 70h20q70 0 70 -70v-1160q0 -70 -70 -70h-20z" />
    <glyph glyph-name="imacron" unicode="&#x12b;" horiz-adv-x="484" 
d="M-4 1210q0 61 70 61h350q70 0 70 -61t-70 -61h-350q-70 0 -70 61zM233 0q-70 0 -70 70v833q0 70 70 70h18q70 0 70 -70v-833q0 -70 -70 -70h-18z" />
    <glyph glyph-name="Ibreve" unicode="&#x12c;" horiz-adv-x="618" 
d="M90 1621q0 28 14.5 43t34.5 15h4q22 0 40 -11.5t18 -36.5q0 -90 108 -90q111 0 111 90q0 25 17.5 36.5t39.5 11.5h4q20 0 34.5 -15t14.5 -43q0 -86 -61.5 -135.5t-159.5 -49.5q-97 0 -158 49.5t-61 135.5zM299 0q-70 0 -70 70v1160q0 70 70 70h20q70 0 70 -70v-1160
q0 -70 -70 -70h-20z" />
    <glyph glyph-name="ibreve" unicode="&#x12d;" horiz-adv-x="484" 
d="M22 1294q0 28 14.5 43t34.5 15h4q22 0 40 -11.5t18 -36.5q0 -90 108 -90q111 0 111 90q0 25 17.5 36.5t39.5 11.5h4q20 0 34.5 -15t14.5 -43q0 -86 -61.5 -135.5t-159.5 -49.5q-97 0 -158 49.5t-61 135.5zM233 0q-70 0 -70 70v833q0 70 70 70h18q70 0 70 -70v-833
q0 -70 -70 -70h-18z" />
    <glyph glyph-name="Iogonek" unicode="&#x12e;" horiz-adv-x="618" 
d="M389 48q0 -46 -27 -87l-91 -136q-28 -43 -13.5 -77.5t58.5 -34.5q8 0 20 1t18 1q35 0 35 -47v-16q0 -47 -34 -54q-32 -5 -58 -5q-89 0 -139.5 47t-49 117.5t52.5 136.5l68 91v1245q0 70 70 70h20q70 0 70 -70v-1182z" />
    <glyph glyph-name="iogonek" unicode="&#x12f;" horiz-adv-x="484" 
d="M242 1144q-47 0 -72 26.5t-25 75.5q0 48 25 75.5t72 27.5q48 0 72.5 -27t24.5 -76q0 -102 -97 -102zM163 -12v915q0 70 70 70h18q70 0 70 -70v-855q0 -46 -27 -87l-91 -136q-27 -43 -13 -77.5t58 -34.5q9 0 21 1t17 1q35 0 35 -47v-16q0 -47 -34 -54q-32 -5 -59 -5
q-88 0 -138.5 47t-49 117.5t52.5 136.5z" />
    <glyph glyph-name="Idotaccent" unicode="&#x130;" horiz-adv-x="618" 
d="M309 1471q-48 0 -73 26.5t-25 75.5q0 48 25 75.5t73 27.5t72 -27t24 -76q0 -102 -96 -102zM299 0q-70 0 -70 70v1160q0 70 70 70h20q70 0 70 -70v-1160q0 -70 -70 -70h-20z" />
    <glyph glyph-name="dotlessi" unicode="&#x131;" horiz-adv-x="484" 
d="M233 0q-70 0 -70 70v833q0 70 70 70h18q70 0 70 -70v-833q0 -70 -70 -70h-18z" />
    <glyph glyph-name="IJ" unicode="&#x132;" horiz-adv-x="1501" 
d="M299 0q-70 0 -70 70v1160q0 70 70 70h20q70 0 70 -70v-1160q0 -70 -70 -70h-20zM1148 1230q0 70 70 70h20q70 0 70 -70v-851q0 -132 -42.5 -220t-118 -127.5t-180.5 -47.5t-229 20q-50 9 -50 60v34q0 27 16.5 41t44.5 10q209 -35 304 14t95 216v851z" />
    <glyph glyph-name="ij" unicode="&#x133;" horiz-adv-x="1008" 
d="M243 1144q-48 0 -73 26.5t-25 75.5q0 48 25 75.5t73 27.5t72 -27t24 -76q0 -102 -96 -102zM749 1144q-48 0 -73 26.5t-25 75.5q0 48 25 75.5t73 27.5t72 -27t24 -76q0 -102 -96 -102zM251 973q70 0 70 -70v-833q0 -70 -70 -70h-18q-70 0 -70 70v833q0 70 70 70h18z
M669 -62v965q0 70 70 70h18q70 0 70 -70v-965q0 -119 -36 -199t-100 -115t-152 -41.5t-193 20.5q-44 9 -44 67q0 41 12 57t50 16q12 0 54 -5.5t69 -5.5q93 0 137.5 47.5t44.5 158.5z" />
    <glyph glyph-name="Jcircumflex" unicode="&#x134;" horiz-adv-x="883" 
d="M561 1663q49 36 98 0l140 -103q60 -45 25 -82q-37 -37 -89 -1l-125 83l-125 -83q-53 -36 -88 1q-36 37 24 82zM530 379v851q0 70 70 70h20q70 0 70 -70v-851q0 -132 -42.5 -220t-118 -127.5t-180.5 -47.5t-229 20q-50 9 -50 60v34q0 27 16.5 41t44.5 10q209 -35 304 14
t95 216z" />
    <glyph glyph-name="jcircumflex" unicode="&#x135;" horiz-adv-x="524" 
d="M214 1336q49 36 98 0l140 -103q60 -45 25 -82q-37 -37 -89 -1l-125 83l-125 -83q-53 -36 -88 1q-36 37 24 82zM185 -62v965q0 70 70 70h18q70 0 70 -70v-965q0 -119 -36 -199t-100 -115t-152 -41.5t-193 20.5q-44 9 -44 67q0 41 12 57t50 16q12 0 54 -5.5t69 -5.5
q93 0 137.5 47.5t44.5 158.5z" />
    <glyph glyph-name="uni0136" unicode="&#x136;" horiz-adv-x="1231" 
d="M1097 67q24 -26 6 -46.5t-65 -20.5h-21q-70 0 -98 31l-574 577v-538q0 -70 -70 -70h-18q-70 0 -70 70v1160q0 70 70 70h18q70 0 70 -70v-530l574 571q29 29 98 29h20q47 0 65 -20.5t-6 -46.5l-591 -579zM564 -483q-30 0 -44.5 20t-8.5 55l34 205q11 64 75 64h12
q37 0 53.5 -20.5t7.5 -57.5l-50 -205q-15 -61 -77 -61h-2z" />
    <glyph glyph-name="uni0137" unicode="&#x137;" horiz-adv-x="1053" 
d="M958 67q26 -26 8.5 -46.5t-65.5 -20.5h-17q-68 0 -98 29l-492 459v-418q0 -70 -70 -70h-15q-70 0 -70 70v1260q0 70 70 70h15q70 0 70 -70v-780l490 397q29 26 98 26h10q49 0 65.5 -20.5t-11.5 -46.5l-478 -386zM471 -483q-30 0 -44.5 20t-8.5 55l34 205q11 64 75 64h12
q37 0 53.5 -20.5t7.5 -57.5l-50 -205q-15 -61 -77 -61h-2z" />
    <glyph glyph-name="kgreenlandic" unicode="&#x138;" horiz-adv-x="1053" 
d="M958 67q26 -26 8.5 -46.5t-65.5 -20.5h-17q-68 0 -98 29l-492 459v-418q0 -70 -70 -70h-15q-70 0 -70 70v833q0 70 70 70h15q70 0 70 -70v-353l490 397q29 26 98 26h10q49 0 65.5 -20.5t-11.5 -46.5l-478 -386z" />
    <glyph glyph-name="Lacute" unicode="&#x139;" horiz-adv-x="1072" 
d="M269 1425q-35 0 -45.5 23.5t8.5 59.5l85 167q26 51 83 51h19q41 0 55.5 -23.5t-5.5 -60.5l-94 -168q-27 -49 -83 -49h-23zM483 0q-162 0 -229 65.5t-67 209.5v955q0 70 70 70h18q70 0 70 -70v-945q0 -66 31 -100t121 -34h443q70 0 70 -70v-11q0 -70 -70 -70h-457z" />
    <glyph glyph-name="lacute" unicode="&#x13a;" horiz-adv-x="484" 
d="M245 1525q-35 0 -45.5 23.5t8.5 59.5l85 167q26 51 83 51h19q41 0 55.5 -23.5t-5.5 -60.5l-94 -168q-27 -49 -83 -49h-23zM163 1330q0 70 70 70h18q70 0 70 -70v-1260q0 -70 -70 -70h-18q-70 0 -70 70v1260z" />
    <glyph glyph-name="uni013B" unicode="&#x13b;" horiz-adv-x="1072" 
d="M483 0q-162 0 -229 65.5t-67 209.5v955q0 70 70 70h18q70 0 70 -70v-945q0 -66 31 -100t121 -34h443q70 0 70 -70v-11q0 -70 -70 -70h-457zM553 -483q-30 0 -44.5 20t-8.5 55l34 205q11 64 75 64h12q37 0 53.5 -20.5t7.5 -57.5l-50 -205q-15 -61 -77 -61h-2z" />
    <glyph glyph-name="uni013C" unicode="&#x13c;" horiz-adv-x="484" 
d="M163 1330q0 70 70 70h18q70 0 70 -70v-1260q0 -70 -70 -70h-18q-70 0 -70 70v1260zM173 -483q-30 0 -44.5 20t-8.5 55l34 205q11 64 75 64h12q37 0 53.5 -20.5t7.5 -57.5l-50 -205q-15 -61 -77 -61h-2z" />
    <glyph glyph-name="Lcaron" unicode="&#x13d;" horiz-adv-x="1072" 
d="M483 0q-162 0 -229 65.5t-67 209.5v955q0 70 70 70h18q70 0 70 -70v-945q0 -66 31 -100t121 -34h443q70 0 70 -70v-11q0 -70 -70 -70h-457zM628 944q-32 0 -46.5 20t-8.5 55l36 217q11 64 75 64h18q37 0 53.5 -20.5t7.5 -57.5l-53 -217q-15 -61 -77 -61h-5z" />
    <glyph glyph-name="lcaron" unicode="&#x13e;" horiz-adv-x="666" 
d="M163 1330q0 70 70 70h18q70 0 70 -70v-1260q0 -70 -70 -70h-18q-70 0 -70 70v1260zM485 1044q-32 0 -46.5 20t-8.5 55l36 217q11 64 75 64h18q37 0 53.5 -20.5t7.5 -57.5l-53 -217q-15 -61 -77 -61h-5z" />
    <glyph glyph-name="Lslash" unicode="&#x141;" horiz-adv-x="1105" 
d="M530 151h443q70 0 70 -70v-11q0 -70 -70 -70h-457q-162 0 -229 65.5t-67 209.5v214l-58 -29q-36 -18 -59.5 -7.5t-23.5 44.5v20q0 58 51 83l90 45v585q0 70 70 70h18q70 0 70 -70v-506l318 159q36 18 59.5 7.5t23.5 -44.5v-21q0 -56 -51 -82l-350 -175v-283
q0 -66 31 -100t121 -34z" />
    <glyph glyph-name="lslash" unicode="&#x142;" horiz-adv-x="691" 
d="M545 1010q37 29 62.5 18.5t25.5 -53.5v-25q0 -30 -10 -48t-36 -38l-163 -126v-668q0 -70 -70 -70h-18q-70 0 -70 70v545l-120 -93q-37 -29 -62.5 -18.5t-25.5 53.5v25q0 29 9.5 47.5t35.5 38.5l163 126v536q0 70 70 70h18q70 0 70 -70v-414z" />
    <glyph glyph-name="Nacute" unicode="&#x143;" horiz-adv-x="1443" 
d="M737 1425q-35 0 -45.5 23.5t8.5 59.5l85 167q26 51 83 51h19q41 0 55.5 -23.5t-5.5 -60.5l-94 -168q-27 -49 -83 -49h-23zM257 0q-70 0 -70 70v1016q0 125 43.5 169.5t143.5 44.5q79 0 129.5 -37t99.5 -153l406 -907q13 -29 24 -39t27 -10q38 0 38 53v1023q0 70 70 70h18
q70 0 70 -70v-1016q0 -125 -43.5 -169.5t-143.5 -44.5q-79 0 -129.5 37t-99.5 153l-407 907q-12 28 -23 38.5t-27 10.5q-38 0 -38 -53v-1023q0 -70 -70 -70h-18z" />
    <glyph glyph-name="nacute" unicode="&#x144;" horiz-adv-x="1174" 
d="M751 1399q37 0 48.5 -23.5t-8.5 -60.5l-94 -168q-27 -49 -83 -49h-9q-41 0 -55.5 23.5t4.5 59.5l85 167q26 51 83 51h29zM587 991q111 0 191 -23t139.5 -75.5t89 -143t29.5 -220.5v-459q0 -70 -70 -70h-16q-70 0 -70 70v459q0 179 -68 248t-225 69t-225 -69t-68 -248
v-459q0 -70 -70 -70h-15q-70 0 -70 70v459q0 130 29.5 220.5t89 143t139 75.5t190.5 23z" />
    <glyph glyph-name="uni0145" unicode="&#x145;" horiz-adv-x="1443" 
d="M257 0q-70 0 -70 70v1016q0 125 43.5 169.5t143.5 44.5q79 0 129.5 -37t99.5 -153l406 -907q13 -29 24 -39t27 -10q38 0 38 53v1023q0 70 70 70h18q70 0 70 -70v-1016q0 -125 -43.5 -169.5t-143.5 -44.5q-79 0 -129.5 37t-99.5 153l-407 907q-12 28 -23 38.5t-27 10.5
q-38 0 -38 -53v-1023q0 -70 -70 -70h-18zM651 -483q-30 0 -44.5 20t-8.5 55l34 205q11 64 75 64h12q37 0 53.5 -20.5t7.5 -57.5l-50 -205q-15 -61 -77 -61h-2z" />
    <glyph glyph-name="uni0146" unicode="&#x146;" horiz-adv-x="1174" 
d="M587 991q111 0 191 -23t139.5 -75.5t89 -143t29.5 -220.5v-459q0 -70 -70 -70h-16q-70 0 -70 70v459q0 179 -68 248t-225 69t-225 -69t-68 -248v-459q0 -70 -70 -70h-15q-70 0 -70 70v459q0 130 29.5 220.5t89 143t139 75.5t190.5 23zM540 -483q-30 0 -44.5 20t-8.5 55
l34 205q11 64 75 64h12q37 0 53.5 -20.5t7.5 -57.5l-50 -205q-15 -61 -77 -61h-2z" />
    <glyph glyph-name="Ncaron" unicode="&#x147;" horiz-adv-x="1443" 
d="M1028 1667q28 -45 -34 -80l-213 -122q-48 -28 -96 0l-213 121q-61 35 -33 81q27 46 88 16l207 -101l206 101q61 30 88 -16zM1098 1230q0 70 70 70h18q70 0 70 -70v-1016q0 -125 -43.5 -169.5t-143.5 -44.5q-79 0 -129.5 37t-99.5 153l-407 907q-12 28 -23 38.5t-27 10.5
q-38 0 -38 -53v-1023q0 -70 -70 -70h-18q-70 0 -70 70v1016q0 125 43.5 169.5t143.5 44.5q79 0 129.5 -37t99.5 -153l406 -907q13 -29 24 -39t27 -10q38 0 38 53v1023z" />
    <glyph glyph-name="ncaron" unicode="&#x148;" horiz-adv-x="1174" 
d="M882 1340q28 -45 -34 -80l-213 -122q-48 -28 -96 0l-213 121q-61 35 -33 81q27 46 88 16l207 -101l206 101q61 30 88 -16zM587 991q111 0 191 -23t139.5 -75.5t89 -143t29.5 -220.5v-459q0 -70 -70 -70h-16q-70 0 -70 70v459q0 179 -68 248t-225 69t-225 -69t-68 -248
v-459q0 -70 -70 -70h-15q-70 0 -70 70v459q0 130 29.5 220.5t89 143t139 75.5t190.5 23z" />
    <glyph glyph-name="napostrophe" unicode="&#x149;" horiz-adv-x="1295" 
d="M103 1187q12 63 76 63h33q38 0 54 -21.5t5 -57.5l-87 -284q-17 -58 -79 -58q-31 0 -45.5 20.5t-7.5 55.5zM708 991q111 0 191 -23t139.5 -75.5t89 -143t29.5 -220.5v-459q0 -70 -70 -70h-16q-70 0 -70 70v459q0 179 -68 248t-225 69t-225 -69t-68 -248v-459
q0 -70 -70 -70h-15q-70 0 -70 70v459q0 130 29.5 220.5t89 143t139 75.5t190.5 23z" />
    <glyph glyph-name="Eng" unicode="&#x14a;" horiz-adv-x="1443" 
d="M1098 1230q0 70 70 70h18q70 0 70 -70v-1292q0 -95 -23 -164.5t-64 -111t-101 -61.5t-131 -19t-156 20q-29 6 -39 24t-10 52q0 67 47 67q11 0 59 -7.5t75 -7.5q95 0 140 48.5t45 159.5v63q-9 -1 -29 -1q-79 0 -129.5 37t-99.5 153l-407 907q-12 28 -23 38.5t-27 10.5
q-38 0 -38 -53v-1023q0 -70 -70 -70h-18q-70 0 -70 70v1016q0 125 43.5 169.5t143.5 44.5q79 0 129.5 -37t99.5 -153l406 -907q13 -29 24 -39t27 -10q38 0 38 53v1023z" />
    <glyph glyph-name="eng" unicode="&#x14b;" horiz-adv-x="1174" 
d="M587 991q111 0 191 -23t139.5 -75.5t89 -143t29.5 -220.5v-529q0 -94 -22 -163t-63 -110t-98 -63t-127.5 -20.5t-152.5 16.5q-62 13 -62 78q0 35 20.5 51t57.5 11q154 -24 222.5 18.5t68.5 181.5v529q0 179 -68 248t-225 69t-225 -69t-68 -248v-459q0 -70 -70 -70h-15
q-70 0 -70 70v459q0 130 29.5 220.5t89 143t139 75.5t190.5 23z" />
    <glyph glyph-name="Omacron" unicode="&#x14c;" horiz-adv-x="1358" 
d="M393 1537q0 61 70 61h432q70 0 70 -61t-70 -61h-432q-70 0 -70 61zM679 -18q-125 0 -228 42.5t-178.5 124.5t-117 210t-41.5 291t41.5 291t117 210t178.5 124.5t228 42.5t228 -42.5t179 -124.5t117.5 -210t41.5 -291t-41.5 -291t-117.5 -210t-179 -124.5t-228 -42.5z
M679 133q190 0 298.5 124.5t108.5 392.5t-108.5 392.5t-298.5 124.5t-298.5 -124.5t-108.5 -392.5t108.5 -392.5t298.5 -124.5z" />
    <glyph glyph-name="omacron" unicode="&#x14d;" horiz-adv-x="1150" 
d="M308 1210q0 61 70 61h393q70 0 70 -61t-70 -61h-393q-70 0 -70 61zM575 -18q-220 0 -340.5 131.5t-120.5 372.5t120.5 373t340.5 132t341 -132t121 -373t-121 -372.5t-341 -131.5zM575 127q304 0 304 359q0 360 -304 360t-304 -360q0 -359 304 -359z" />
    <glyph glyph-name="Obreve" unicode="&#x14e;" horiz-adv-x="1358" 
d="M679 1436q-139 0 -220.5 45t-81.5 140q0 28 16 43t44 15h7q64 0 64 -40q0 -98 171 -98q173 0 173 98q0 40 65 40h7q27 0 43 -15.5t16 -42.5q0 -95 -81.5 -140t-222.5 -45zM679 -18q-125 0 -228 42.5t-178.5 124.5t-117 210t-41.5 291t41.5 291t117 210t178.5 124.5
t228 42.5t228 -42.5t179 -124.5t117.5 -210t41.5 -291t-41.5 -291t-117.5 -210t-179 -124.5t-228 -42.5zM679 133q190 0 298.5 124.5t108.5 392.5t-108.5 392.5t-298.5 124.5t-298.5 -124.5t-108.5 -392.5t108.5 -392.5t298.5 -124.5z" />
    <glyph glyph-name="obreve" unicode="&#x14f;" horiz-adv-x="1150" 
d="M575 1109q-139 0 -220.5 45t-81.5 140q0 28 16 43t44 15h7q64 0 64 -40q0 -98 171 -98q173 0 173 98q0 40 65 40h7q27 0 43 -15.5t16 -42.5q0 -95 -81.5 -140t-222.5 -45zM575 -18q-220 0 -340.5 131.5t-120.5 372.5t120.5 373t340.5 132t341 -132t121 -373t-121 -372.5
t-341 -131.5zM575 127q304 0 304 359q0 360 -304 360t-304 -360q0 -359 304 -359z" />
    <glyph glyph-name="Ohungarumlaut" unicode="&#x150;" horiz-adv-x="1358" 
d="M490 1459q-29 0 -34 23.5t15 60.5l65 115q28 49 83 49q40 0 52 -24t-11 -60l-75 -118q-29 -46 -84 -46h-11zM844 1459q-29 0 -34 23.5t15 60.5l65 115q28 49 83 49q40 0 52 -24t-11 -60l-75 -118q-29 -46 -84 -46h-11zM679 -18q-125 0 -228 42.5t-178.5 124.5t-117 210
t-41.5 291t41.5 291t117 210t178.5 124.5t228 42.5t228 -42.5t179 -124.5t117.5 -210t41.5 -291t-41.5 -291t-117.5 -210t-179 -124.5t-228 -42.5zM679 133q190 0 298.5 124.5t108.5 392.5t-108.5 392.5t-298.5 124.5t-298.5 -124.5t-108.5 -392.5t108.5 -392.5
t298.5 -124.5z" />
    <glyph glyph-name="ohungarumlaut" unicode="&#x151;" horiz-adv-x="1150" 
d="M386 1132q-29 0 -34 23.5t15 60.5l65 115q28 49 83 49q40 0 52 -24t-11 -60l-75 -118q-29 -46 -84 -46h-11zM740 1132q-29 0 -34 23.5t15 60.5l65 115q28 49 83 49q40 0 52 -24t-11 -60l-75 -118q-29 -46 -84 -46h-11zM575 -18q-220 0 -340.5 131.5t-120.5 372.5
t120.5 373t340.5 132t341 -132t121 -373t-121 -372.5t-341 -131.5zM575 127q304 0 304 359q0 360 -304 360t-304 -360q0 -359 304 -359z" />
    <glyph glyph-name="OE" unicode="&#x152;" horiz-adv-x="1802" 
d="M1024 151h604q70 0 70 -70v-11q0 -70 -70 -70h-916q-280 0 -439 166t-159 484t159 484t439 166h876q70 0 70 -70v-11q0 -70 -70 -70h-564v-418h463q70 0 70 -70v-11q0 -70 -70 -70h-463v-429zM866 151v998h-154q-440 0 -440 -499t440 -499h154z" />
    <glyph glyph-name="oe" unicode="&#x153;" horiz-adv-x="1855" 
d="M1754 639q0 -100 -52.5 -148.5t-186.5 -62.5l-469 -50q24 -127 107 -189t215 -62q104 0 231 36q38 11 59 -1.5t21 -45.5v-12q0 -62 -58 -79q-147 -43 -271 -43q-269 0 -390 190q-119 -190 -385 -190q-220 0 -340.5 131.5t-120.5 372.5t120.5 373t340.5 132
q265 0 383 -187q115 187 386 187q191 0 300.5 -94.5t109.5 -257.5zM1038 521l446 47q69 7 91.5 25t22.5 59q0 90 -65 142.5t-190 52.5q-290 0 -305 -326zM575 127q304 0 304 359q0 360 -304 360t-304 -360q0 -359 304 -359z" />
    <glyph glyph-name="Racute" unicode="&#x154;" horiz-adv-x="1253" 
d="M794 1726q37 0 48.5 -23.5t-8.5 -60.5l-94 -168q-27 -49 -83 -49h-9q-41 0 -55.5 23.5t4.5 59.5l85 167q26 51 83 51h29zM1107 85q23 -36 11 -60.5t-53 -24.5h-43q-55 0 -84 47l-315 515h-278v-492q0 -70 -70 -70h-18q-70 0 -70 70v955q0 144 67 209.5t229 65.5h131
q256 0 384 -83.5t128 -284.5q0 -163 -84 -248t-251 -110zM345 1015v-302h284q182 0 260 51t78 168t-77.5 167t-260.5 50h-146q-82 0 -110 -34t-28 -100z" />
    <glyph glyph-name="racute" unicode="&#x155;" horiz-adv-x="711" 
d="M388 1098q-35 0 -45.5 23.5t8.5 59.5l85 167q26 51 83 51h19q41 0 55.5 -23.5t-5.5 -60.5l-94 -168q-27 -49 -83 -49h-23zM582 982q37 1 56 -17t19 -52v-5q0 -70 -76 -70q-82 -1 -133 -6t-83 -12t-46 -23t-18 -32t-4 -47v-648q0 -70 -70 -70h-18q-70 0 -70 70v665
q0 58 10 95.5t36.5 68t77.5 47t127 25.5t192 11z" />
    <glyph glyph-name="uni0156" unicode="&#x156;" horiz-adv-x="1253" 
d="M791 574l316 -489q23 -36 11 -60.5t-53 -24.5h-43q-55 0 -84 47l-315 515h-278v-492q0 -70 -70 -70h-18q-70 0 -70 70v955q0 144 67 209.5t229 65.5h131q256 0 384 -83.5t128 -284.5q0 -163 -84 -248t-251 -110zM345 1015v-302h284q182 0 260 51t78 168t-77.5 167
t-260.5 50h-146q-82 0 -110 -34t-28 -100zM563 -483q-30 0 -44.5 20t-8.5 55l34 205q11 64 75 64h12q37 0 53.5 -20.5t7.5 -57.5l-50 -205q-15 -61 -77 -61h-2z" />
    <glyph glyph-name="uni0157" unicode="&#x157;" horiz-adv-x="711" 
d="M582 982q37 1 56 -17t19 -52v-5q0 -70 -76 -70q-82 -1 -133 -6t-83 -12t-46 -23t-18 -32t-4 -47v-648q0 -70 -70 -70h-18q-70 0 -70 70v665q0 58 10 95.5t36.5 68t77.5 47t127 25.5t192 11zM155 -483q-30 0 -44.5 20t-8.5 55l34 205q11 64 75 64h12q37 0 53.5 -20.5
t7.5 -57.5l-50 -205q-15 -61 -77 -61h-2z" />
    <glyph glyph-name="Rcaron" unicode="&#x158;" horiz-adv-x="1253" 
d="M925 1667q28 -45 -34 -80l-213 -122q-48 -28 -96 0l-213 121q-61 35 -33 81q27 46 88 16l207 -101l206 101q61 30 88 -16zM1107 85q23 -36 11 -60.5t-53 -24.5h-43q-55 0 -84 47l-315 515h-278v-492q0 -70 -70 -70h-18q-70 0 -70 70v955q0 144 67 209.5t229 65.5h131
q256 0 384 -83.5t128 -284.5q0 -163 -84 -248t-251 -110zM345 1015v-302h284q182 0 260 51t78 168t-77.5 167t-260.5 50h-146q-82 0 -110 -34t-28 -100z" />
    <glyph glyph-name="rcaron" unicode="&#x159;" horiz-adv-x="711" 
d="M679 1340q28 -45 -34 -80l-213 -122q-48 -28 -96 0l-213 121q-61 35 -33 81q27 46 88 16l207 -101l206 101q61 30 88 -16zM139 735q0 58 10 95.5t36.5 68t77.5 47t127 25.5t192 11q37 1 56 -17t19 -52v-5q0 -70 -76 -70q-82 -1 -133 -6t-83 -12t-46 -23t-18 -32t-4 -47
v-648q0 -70 -70 -70h-18q-70 0 -70 70v665z" />
    <glyph glyph-name="Sacute" unicode="&#x15a;" horiz-adv-x="1050" 
d="M520 1425q-35 0 -45.5 23.5t8.5 59.5l85 167q26 51 83 51h19q41 0 55.5 -23.5t-5.5 -60.5l-94 -168q-27 -49 -83 -49h-23zM156 28q-58 16 -58 79q0 37 21 53t58 7q115 -27 222.5 -32.5t197 11t143.5 67t54 130.5q0 76 -57.5 131.5t-195.5 109.5l-114 45q-173 67 -247 152
t-74 203q0 112 60 189.5t159.5 111t226 33t262.5 -37.5q59 -16 59 -79v-4q0 -37 -21 -52.5t-58 -7.5q-105 23 -198 28t-168.5 -9.5t-119.5 -57t-44 -110.5q0 -70 52 -121.5t178 -98.5l104 -40q184 -71 269.5 -160t85.5 -225q0 -85 -33 -152t-90 -109.5t-134 -67.5t-166 -30
t-184 6t-190 38z" />
    <glyph glyph-name="sacute" unicode="&#x15b;" horiz-adv-x="961" 
d="M458 1098q-35 0 -45.5 23.5t8.5 59.5l85 167q26 51 83 51h19q41 0 55.5 -23.5t-5.5 -60.5l-94 -168q-27 -49 -83 -49h-23zM162 28q-58 17 -58 79q0 37 21 53t58 7q102 -24 193 -33t167 -1.5t121 42t45 92.5q0 52 -37.5 86t-122.5 58l-204 56q-248 68 -248 260
q0 93 56 155.5t148.5 87t207.5 20t236 -37.5q59 -16 59 -79q0 -37 -21 -52.5t-58 -6.5q-83 21 -165.5 28t-152 0t-112.5 -36t-43 -77q0 -82 121 -118l218 -58q141 -39 207 -107t66 -173q0 -84 -41.5 -146t-112 -94.5t-161 -44.5t-190 -1t-197.5 41z" />
    <glyph glyph-name="Scircumflex" unicode="&#x15c;" horiz-adv-x="1050" 
d="M516 1559l-207 -101q-59 -29 -88 16q-28 45 34 81l212 121q48 28 96 0l213 -122q62 -35 34 -80q-27 -46 -88 -16zM598 728q184 -71 269.5 -160t85.5 -225q0 -85 -33 -152t-90 -109.5t-134 -67.5t-166 -30t-184 6t-190 38q-58 16 -58 79q0 37 21 53t58 7
q115 -27 222.5 -32.5t197 11t143.5 67t54 130.5q0 76 -57.5 131.5t-195.5 109.5l-114 45q-173 67 -247 152t-74 203q0 112 60 189.5t159.5 111t226 33t262.5 -37.5q59 -16 59 -79v-4q0 -37 -21 -52.5t-58 -7.5q-105 23 -198 28t-168.5 -9.5t-119.5 -57t-44 -110.5
q0 -70 52 -121.5t178 -98.5z" />
    <glyph glyph-name="scircumflex" unicode="&#x15d;" horiz-adv-x="961" 
d="M454 1232l-207 -101q-59 -29 -88 16q-28 45 34 81l212 121q48 28 96 0l213 -122q62 -35 34 -80q-27 -46 -88 -16zM591 553q141 -39 207 -107t66 -173q0 -84 -41.5 -146t-112 -94.5t-161 -44.5t-190 -1t-197.5 41q-58 17 -58 79q0 37 21 53t58 7q102 -24 193 -33t167 -1.5
t121 42t45 92.5q0 52 -37.5 86t-122.5 58l-204 56q-248 68 -248 260q0 93 56 155.5t148.5 87t207.5 20t236 -37.5q59 -16 59 -79q0 -37 -21 -52.5t-58 -6.5q-83 21 -165.5 28t-152 0t-112.5 -36t-43 -77q0 -82 121 -118z" />
    <glyph glyph-name="Scedilla" unicode="&#x15e;" horiz-adv-x="1050" 
d="M953 343q0 -107 -52.5 -185t-138 -118.5t-199.5 -52.5l47 -117q24 -60 28.5 -108.5t-13 -87.5t-66 -60t-127.5 -21q-50 0 -103 9q-39 8 -39 53v15q0 23 10.5 36t29.5 13q8 0 36 -3t47 -3q51 0 66.5 30t-5.5 83l-62 158q-127 7 -256 44q-58 16 -58 79q0 37 21 53t58 7
q115 -27 222.5 -32.5t197 11t143.5 67t54 130.5q0 76 -57.5 131.5t-195.5 109.5l-114 45q-173 67 -247 152t-74 203q0 112 60 189.5t159.5 111t226 33t262.5 -37.5q59 -16 59 -79v-4q0 -37 -21 -52.5t-58 -7.5q-105 23 -198 28t-168.5 -9.5t-119.5 -57t-44 -110.5
q0 -70 52 -121.5t178 -98.5l104 -40q184 -71 269.5 -160t85.5 -225z" />
    <glyph glyph-name="scedilla" unicode="&#x15f;" horiz-adv-x="961" 
d="M864 273q0 -121 -81 -192t-216 -91l48 -120q24 -60 28.5 -108.5t-13 -87.5t-66 -60t-127.5 -21q-50 0 -103 9q-39 8 -39 53v15q0 23 10.5 36t29.5 13q8 0 36 -3t47 -3q51 0 66.5 30t-5.5 83l-62 157q-131 6 -256 45q-57 18 -57 79q0 37 21 53t58 7q102 -24 193 -33
t167 -1.5t121 42t45 92.5q0 52 -37.5 86t-122.5 58l-204 56q-248 68 -248 260q0 93 56 155.5t148.5 87t207.5 20t236 -37.5q59 -16 59 -79q0 -37 -21 -52.5t-58 -6.5q-83 21 -165.5 28t-152 0t-112.5 -36t-43 -77q0 -82 121 -118l218 -58q141 -39 207 -107t66 -173z" />
    <glyph glyph-name="Scaron" unicode="&#x160;" horiz-adv-x="1050" 
d="M811 1667q28 -45 -34 -80l-213 -122q-48 -28 -96 0l-213 121q-61 35 -33 81q27 46 88 16l207 -101l206 101q61 30 88 -16zM598 728q184 -71 269.5 -160t85.5 -225q0 -85 -33 -152t-90 -109.5t-134 -67.5t-166 -30t-184 6t-190 38q-58 16 -58 79q0 37 21 53t58 7
q115 -27 222.5 -32.5t197 11t143.5 67t54 130.5q0 76 -57.5 131.5t-195.5 109.5l-114 45q-173 67 -247 152t-74 203q0 112 60 189.5t159.5 111t226 33t262.5 -37.5q59 -16 59 -79v-4q0 -37 -21 -52.5t-58 -7.5q-105 23 -198 28t-168.5 -9.5t-119.5 -57t-44 -110.5
q0 -70 52 -121.5t178 -98.5z" />
    <glyph glyph-name="scaron" unicode="&#x161;" horiz-adv-x="961" 
d="M749 1340q28 -45 -34 -80l-213 -122q-48 -28 -96 0l-213 121q-61 35 -33 81q27 46 88 16l207 -101l206 101q61 30 88 -16zM591 553q141 -39 207 -107t66 -173q0 -84 -41.5 -146t-112 -94.5t-161 -44.5t-190 -1t-197.5 41q-58 17 -58 79q0 37 21 53t58 7q102 -24 193 -33
t167 -1.5t121 42t45 92.5q0 52 -37.5 86t-122.5 58l-204 56q-248 68 -248 260q0 93 56 155.5t148.5 87t207.5 20t236 -37.5q59 -16 59 -79q0 -37 -21 -52.5t-58 -6.5q-83 21 -165.5 28t-152 0t-112.5 -36t-43 -77q0 -82 121 -118z" />
    <glyph glyph-name="uni0162" unicode="&#x162;" horiz-adv-x="1140" 
d="M1107 1219q0 -70 -70 -70h-387v-1169l44 -110q24 -60 28.5 -108.5t-13 -87.5t-66 -60t-126.5 -21q-51 0 -104 9q-38 7 -38 53v15q0 23 10.5 36t28.5 13q8 0 36 -3t47 -3q51 0 66.5 30t-5.5 83l-52 133q-16 41 -16 85v1105h-387q-70 0 -70 70v11q0 70 70 70h934
q70 0 70 -70v-11z" />
    <glyph glyph-name="uni0163" unicode="&#x163;" horiz-adv-x="758" 
d="M704 898q0 -70 -70 -70h-337v-490q0 -108 48 -157t146 -49q42 0 89.5 8.5t59.5 8.5q35 0 48.5 -12t13.5 -40v-22q0 -55 -49 -67q-78 -20 -136 -24l44 -109q24 -60 28.5 -108.5t-13 -87.5t-66 -60t-127.5 -21q-51 0 -103 9q-39 7 -39 53v15q0 23 10.5 36t29.5 13
q8 0 36 -3t47 -3q51 0 66.5 30t-5.5 83l-65 164q-221 56 -221 343v798q0 70 70 70h18q70 0 70 -70v-163h337q70 0 70 -70v-5z" />
    <glyph glyph-name="Tcaron" unicode="&#x164;" horiz-adv-x="1156" 
d="M873 1667q28 -45 -34 -80l-213 -122q-48 -28 -96 0l-213 121q-61 35 -33 81q27 46 88 16l207 -101l206 101q61 30 88 -16zM1045 1300q70 0 70 -70v-11q0 -70 -70 -70h-387v-1079q0 -70 -70 -70h-20q-70 0 -70 70v1079h-387q-70 0 -70 70v11q0 70 70 70h934z" />
    <glyph glyph-name="tcaron" unicode="&#x165;" horiz-adv-x="793" 
d="M618 1429q37 0 53.5 -20.5t7.5 -57.5l-53 -217q-15 -61 -77 -61q-34 0 -50 20t-10 55l36 217q11 64 75 64h18zM704 898q0 -70 -70 -70h-337v-490q0 -108 48 -157t146 -49q42 0 89.5 8.5t59.5 8.5q35 0 48.5 -12t13.5 -40v-22q0 -55 -49 -67q-88 -23 -164.5 -26
t-141.5 16.5t-111 61.5t-71.5 112.5t-25.5 165.5v798q0 70 70 70h18q70 0 70 -70v-163h337q70 0 70 -70v-5z" />
    <glyph glyph-name="Tbar" unicode="&#x166;" horiz-adv-x="1156" 
d="M1115 1219q0 -70 -70 -70h-387v-391h230q70 0 70 -69q0 -70 -70 -70h-230v-549q0 -70 -70 -70h-20q-70 0 -70 70v549h-231q-70 0 -70 70q0 33 18 51t52 18h231v391h-387q-70 0 -70 70v11q0 70 70 70h934q70 0 70 -70v-11z" />
    <glyph glyph-name="tbar" unicode="&#x167;" horiz-adv-x="758" 
d="M704 898q0 -70 -70 -70h-337v-216h211q70 0 70 -67t-70 -67h-211v-140q0 -108 48 -157t146 -49q42 0 89.5 8.5t59.5 8.5q35 0 48.5 -12t13.5 -40v-22q0 -55 -49 -67q-88 -23 -164.5 -26t-141.5 16.5t-111 61.5t-71.5 112.5t-25.5 165.5v798q0 70 70 70h18q70 0 70 -70
v-163h337q70 0 70 -70v-5z" />
    <glyph glyph-name="Utilde" unicode="&#x168;" horiz-adv-x="1432" 
d="M445 1485l-37 18q-17 9 -18 28t15 42q72 98 187 98q52 0 97 -22t83.5 -44t72.5 -22q48 0 80 43q26 34 64 16l37 -18q17 -9 18 -28t-15 -42q-73 -99 -187 -99q-52 0 -97.5 22t-83.5 44t-72 22q-49 0 -80 -42q-27 -35 -64 -16zM1175 1300q70 0 70 -70v-736
q0 -259 -124.5 -385.5t-404.5 -126.5t-404.5 126.5t-124.5 385.5v736q0 70 70 70h18q70 0 70 -70v-746q0 -179 88.5 -265t282.5 -86t282 86t88 265v746q0 70 70 70h19z" />
    <glyph glyph-name="utilde" unicode="&#x169;" horiz-adv-x="1174" 
d="M279 1176q-17 9 -18 28t15 42q72 98 187 98q52 0 97 -22t83.5 -44t72.5 -22q48 0 80 43q26 34 64 16l37 -18q17 -9 18 -28t-15 -42q-73 -99 -187 -99q-52 0 -97.5 22t-83.5 44t-72 22q-48 0 -80 -42q-27 -35 -64 -16zM880 903q0 70 70 70h16q70 0 70 -70v-459
q0 -130 -29.5 -220.5t-89 -143t-139.5 -75.5t-191 -23t-190.5 23t-139 75.5t-89 143t-29.5 220.5v459q0 70 70 70h15q70 0 70 -70v-459q0 -179 68 -248t225 -69t225 69t68 248v459z" />
    <glyph glyph-name="Umacron" unicode="&#x16a;" horiz-adv-x="1432" 
d="M430 1537q0 61 70 61h432q70 0 70 -61t-70 -61h-432q-70 0 -70 61zM1175 1300q70 0 70 -70v-736q0 -259 -124.5 -385.5t-404.5 -126.5t-404.5 126.5t-124.5 385.5v736q0 70 70 70h18q70 0 70 -70v-746q0 -179 88.5 -265t282.5 -86t282 86t88 265v746q0 70 70 70h19z" />
    <glyph glyph-name="umacron" unicode="&#x16b;" horiz-adv-x="1174" 
d="M783 1271q70 0 70 -61t-70 -61h-393q-70 0 -70 61t70 61h393zM880 903q0 70 70 70h16q70 0 70 -70v-459q0 -130 -29.5 -220.5t-89 -143t-139.5 -75.5t-191 -23t-190.5 23t-139 75.5t-89 143t-29.5 220.5v459q0 70 70 70h15q70 0 70 -70v-459q0 -179 68 -248t225 -69
t225 69t68 248v459z" />
    <glyph glyph-name="Ubreve" unicode="&#x16c;" horiz-adv-x="1432" 
d="M716 1436q-139 0 -220.5 45t-81.5 140q0 28 16 43t44 15h7q64 0 64 -40q0 -98 171 -98q173 0 173 98q0 40 65 40h7q27 0 43 -15.5t16 -42.5q0 -95 -81.5 -140t-222.5 -45zM1175 1300q70 0 70 -70v-736q0 -259 -124.5 -385.5t-404.5 -126.5t-404.5 126.5t-124.5 385.5v736
q0 70 70 70h18q70 0 70 -70v-746q0 -179 88.5 -265t282.5 -86t282 86t88 265v746q0 70 70 70h19z" />
    <glyph glyph-name="ubreve" unicode="&#x16d;" horiz-adv-x="1174" 
d="M587 1109q-139 0 -220.5 45t-81.5 140q0 28 16 43t44 15h7q64 0 64 -40q0 -98 171 -98q173 0 173 98q0 40 65 40h7q27 0 43 -15.5t16 -42.5q0 -95 -81.5 -140t-222.5 -45zM880 903q0 70 70 70h16q70 0 70 -70v-459q0 -130 -29.5 -220.5t-89 -143t-139.5 -75.5t-191 -23
t-190.5 23t-139 75.5t-89 143t-29.5 220.5v459q0 70 70 70h15q70 0 70 -70v-459q0 -179 68 -248t225 -69t225 69t68 248v459z" />
    <glyph glyph-name="Uring" unicode="&#x16e;" horiz-adv-x="1432" 
d="M716 1415q-85 0 -138 43t-53 113t53 113.5t138 43.5q84 0 136 -43.5t52 -113.5t-52.5 -113t-135.5 -43zM716 1509q33 0 52 17t19 45t-19 45.5t-52 17.5q-35 0 -54.5 -17.5t-19.5 -45.5t19.5 -45t54.5 -17zM1175 1300q70 0 70 -70v-736q0 -259 -124.5 -385.5
t-404.5 -126.5t-404.5 126.5t-124.5 385.5v736q0 70 70 70h18q70 0 70 -70v-746q0 -179 88.5 -265t282.5 -86t282 86t88 265v746q0 70 70 70h19z" />
    <glyph glyph-name="uring" unicode="&#x16f;" horiz-adv-x="1174" 
d="M587 1088q-85 0 -138 43t-53 113t53 113.5t138 43.5q84 0 136 -43.5t52 -113.5t-52.5 -113t-135.5 -43zM587 1307q-35 0 -54.5 -17.5t-19.5 -45.5t19.5 -45t54.5 -17q33 0 52 17t19 45t-19 45.5t-52 17.5zM880 903q0 70 70 70h16q70 0 70 -70v-459q0 -130 -29.5 -220.5
t-89 -143t-139.5 -75.5t-191 -23t-190.5 23t-139 75.5t-89 143t-29.5 220.5v459q0 70 70 70h15q70 0 70 -70v-459q0 -179 68 -248t225 -69t225 69t68 248v459z" />
    <glyph glyph-name="Uhungarumlaut" unicode="&#x170;" horiz-adv-x="1432" 
d="M527 1459q-29 0 -34 23.5t15 60.5l65 115q28 49 83 49q40 0 52 -24t-11 -60l-75 -118q-29 -46 -84 -46h-11zM881 1459q-29 0 -34 23.5t15 60.5l65 115q28 49 83 49q40 0 52 -24t-11 -60l-75 -118q-29 -46 -84 -46h-11zM1175 1300q70 0 70 -70v-736q0 -259 -124.5 -385.5
t-404.5 -126.5t-404.5 126.5t-124.5 385.5v736q0 70 70 70h18q70 0 70 -70v-746q0 -179 88.5 -265t282.5 -86t282 86t88 265v746q0 70 70 70h19z" />
    <glyph glyph-name="uhungarumlaut" unicode="&#x171;" horiz-adv-x="1174" 
d="M547 1380q21 0 31 -11t7.5 -30t-17.5 -43l-75 -118q-29 -46 -84 -46q-33 0 -41.5 23.5t11.5 60.5l65 115q28 49 83 49h20zM901 1380q21 0 31 -11t7.5 -30t-17.5 -43l-75 -118q-29 -46 -84 -46q-33 0 -41.5 23.5t11.5 60.5l65 115q28 49 83 49h20zM880 903q0 70 70 70h16
q70 0 70 -70v-459q0 -130 -29.5 -220.5t-89 -143t-139.5 -75.5t-191 -23t-190.5 23t-139 75.5t-89 143t-29.5 220.5v459q0 70 70 70h15q70 0 70 -70v-459q0 -179 68 -248t225 -69t225 69t68 248v459z" />
    <glyph glyph-name="Uogonek" unicode="&#x172;" horiz-adv-x="1440" 
d="M1090 1230q0 70 70 70h19q70 0 70 -70v-736q0 -278 -141 -401l-266 -229q-67 -59 -52.5 -105t86.5 -46q20 0 48 3t35 3q40 0 40 -47v-15q0 -47 -38 -55q-54 -9 -104 -9q-67 0 -118 21.5t-76 58t-28.5 80.5t24 94.5t83.5 95.5l51 41q-46 -2 -73 -2q-280 0 -404.5 126.5
t-124.5 385.5v736q0 70 70 70h18q70 0 70 -70v-746q0 -179 88.5 -265t282.5 -86t282 86t88 265v746z" />
    <glyph glyph-name="uogonek" unicode="&#x173;" horiz-adv-x="1174" 
d="M880 903q0 70 70 70h16q70 0 70 -70v-459q0 -264 -128 -372l-240 -208q-67 -59 -52.5 -105t86.5 -46q19 0 47 3t36 3q40 0 40 -47v-15q0 -47 -39 -55q-53 -9 -103 -9q-67 0 -118 21.5t-76 58t-28.5 80.5t24 94.5t83.5 95.5l49 39h-30q-111 0 -190.5 23t-139 75.5t-89 143
t-29.5 220.5v459q0 70 70 70h15q70 0 70 -70v-459q0 -179 68 -248t225 -69t225 69t68 248v459z" />
    <glyph glyph-name="Wcircumflex" unicode="&#x174;" horiz-adv-x="1693" 
d="M846 1559l-207 -101q-59 -29 -88 16q-28 45 34 81l212 121q48 28 96 0l213 -122q62 -35 34 -80q-27 -46 -88 -16zM1452 1235q9 65 74 65h20q36 0 53 -19.5t12 -55.5l-148 -1038q-15 -111 -59.5 -158t-130.5 -47q-84 0 -129 46.5t-68 155.5l-191 914q-10 51 -39 51
q-28 0 -38 -51l-191 -914q-23 -109 -68 -155.5t-130 -46.5q-86 0 -130 47t-59 158l-149 1038q-5 36 12 55.5t53 19.5h21q65 0 74 -65l147 -1043q8 -39 36 -39q27 0 34 35l201 961q16 79 62 115t125 36q80 0 125.5 -35.5t61.5 -115.5l202 -961q7 -35 34 -35q28 0 35 39z" />
    <glyph glyph-name="wcircumflex" unicode="&#x175;" horiz-adv-x="1623" 
d="M811 1232l-207 -101q-59 -29 -88 16q-28 45 34 81l212 121q48 28 96 0l213 -122q62 -35 34 -80q-27 -46 -88 -16zM1380 911q12 62 77 62h18q37 0 53.5 -20.5t8.5 -56.5l-149 -728q-20 -95 -70 -140.5t-140 -45.5q-176 0 -211 183l-126 609q-7 32 -29 32q-25 0 -31 -32
l-124 -609q-20 -93 -71 -138t-141 -45t-141 46t-69 140l-149 728q-8 36 8.5 56.5t53.5 20.5h18q65 0 77 -62l140 -683q11 -52 24 -70.5t42 -18.5q30 0 42.5 18t23.5 69l125 590q32 157 172 157q136 0 171 -157l125 -590q9 -50 22.5 -68.5t43.5 -18.5q29 0 41 18t25 71z" />
    <glyph glyph-name="Ycircumflex" unicode="&#x176;" horiz-adv-x="1269" 
d="M635 1559l-207 -101q-59 -29 -88 16q-28 45 34 81l212 121q48 28 96 0l213 -122q62 -35 34 -80q-27 -46 -88 -16zM1035 1255q30 45 84 45h34q43 0 56.5 -25t-11.5 -60l-259 -376q-83 -122 -128.5 -173.5t-94.5 -69.5v-526q0 -70 -70 -70h-23q-70 0 -70 70v527
q-49 18 -94.5 69t-127.5 173l-259 376q-25 35 -14 60t51 25h41q54 0 84 -45l257 -387q53 -79 80 -103t64 -24t63.5 24t79.5 103z" />
    <glyph glyph-name="ycircumflex" unicode="&#x177;" horiz-adv-x="1159" 
d="M580 1232l-207 -101q-59 -29 -88 16q-28 45 34 81l212 121q48 28 96 0l213 -122q62 -35 34 -80q-27 -46 -88 -16zM865 903q0 70 70 70h16q70 0 70 -70v-957q0 -178 -118 -271t-309 -93q-124 0 -254 39q-58 17 -58 79v4q0 37 21 53t58 6q132 -33 228 -33q127 0 201.5 54
t74.5 162v50q-117 -14 -209 -14q-257 0 -387 118t-130 386v417q0 70 70 70h15q70 0 70 -70v-406q0 -204 85 -287t274 -83q90 0 212 17v759z" />
    <glyph glyph-name="Ydieresis" unicode="&#x178;" horiz-adv-x="1269" 
d="M438 1462q-46 0 -70 26t-24 72t24 72.5t70 26.5q45 0 68.5 -26.5t23.5 -72.5q0 -98 -92 -98zM831 1462q-45 0 -69 26t-24 72t24 72.5t69 26.5t69 -26.5t24 -72.5q0 -47 -23.5 -72.5t-69.5 -25.5zM1035 1255q30 45 84 45h34q43 0 56.5 -25t-11.5 -60l-259 -376
q-83 -122 -128.5 -173.5t-94.5 -69.5v-526q0 -70 -70 -70h-23q-70 0 -70 70v527q-49 18 -94.5 69t-127.5 173l-259 376q-25 35 -14 60t51 25h41q54 0 84 -45l257 -387q53 -79 80 -103t64 -24t63.5 24t79.5 103z" />
    <glyph glyph-name="Zacute" unicode="&#x179;" horiz-adv-x="1204" 
d="M624 1425q-35 0 -45.5 23.5t8.5 59.5l85 167q26 51 83 51h19q41 0 55.5 -23.5t-5.5 -60.5l-94 -168q-27 -49 -83 -49h-23zM195 255l603 847q33 47 -16 47h-559q-70 0 -70 70v11q0 70 70 70h661q68 0 99.5 -37.5t22 -96t-55.5 -121.5l-602 -847q-33 -47 16 -47h631
q70 0 70 -70v-11q0 -70 -70 -70h-734q-68 0 -99 37.5t-21.5 96t54.5 121.5z" />
    <glyph glyph-name="zacute" unicode="&#x17a;" horiz-adv-x="936" 
d="M468 1098q-35 0 -45.5 23.5t8.5 59.5l85 167q26 51 83 51h19q41 0 55.5 -23.5t-5.5 -60.5l-94 -168q-27 -49 -83 -49h-23zM155 254l469 528q15 17 10 31t-30 14h-464q-70 0 -70 70v6q0 70 70 70h562q68 0 102 -40t24.5 -100t-59.5 -114l-469 -529q-14 -17 -9.5 -31
t29.5 -14h476q70 0 70 -70v-5q0 -70 -70 -70h-574q-69 0 -103 39.5t-24 99t60 115.5z" />
    <glyph glyph-name="Zdotaccent" unicode="&#x17b;" horiz-adv-x="1204" 
d="M600 1471q-48 0 -73 26.5t-25 75.5q0 48 25 75.5t73 27.5t72.5 -27.5t24.5 -75.5q0 -102 -97 -102zM195 255l603 847q33 47 -16 47h-559q-70 0 -70 70v11q0 70 70 70h661q68 0 99.5 -37.5t22 -96t-55.5 -121.5l-602 -847q-33 -47 16 -47h631q70 0 70 -70v-11
q0 -70 -70 -70h-734q-68 0 -99 37.5t-21.5 96t54.5 121.5z" />
    <glyph glyph-name="zdotaccent" unicode="&#x17c;" horiz-adv-x="936" 
d="M464 1144q-48 0 -73 26.5t-25 75.5q0 48 25 75.5t73 27.5t72.5 -27.5t24.5 -75.5q0 -102 -97 -102zM155 254l469 528q15 17 10 31t-30 14h-464q-70 0 -70 70v6q0 70 70 70h562q68 0 102 -40t24.5 -100t-59.5 -114l-469 -529q-14 -17 -9.5 -31t29.5 -14h476q70 0 70 -70
v-5q0 -70 -70 -70h-574q-69 0 -103 39.5t-24 99t60 115.5z" />
    <glyph glyph-name="Zcaron" unicode="&#x17d;" horiz-adv-x="1204" 
d="M895 1667q28 -45 -34 -80l-213 -122q-48 -28 -96 0l-213 121q-61 35 -33 81q27 46 88 16l207 -101l206 101q61 30 88 -16zM364 151h631q70 0 70 -70v-11q0 -70 -70 -70h-734q-68 0 -99 37.5t-21.5 96t54.5 121.5l603 847q33 47 -16 47h-559q-70 0 -70 70v11q0 70 70 70
h661q68 0 99.5 -37.5t22 -96t-55.5 -121.5l-602 -847q-33 -47 16 -47z" />
    <glyph glyph-name="zcaron" unicode="&#x17e;" horiz-adv-x="936" 
d="M759 1340q28 -45 -34 -80l-213 -122q-48 -28 -96 0l-213 121q-61 35 -33 81q27 46 88 16l207 -101l206 101q61 30 88 -16zM320 145h476q70 0 70 -70v-5q0 -70 -70 -70h-574q-69 0 -103 39.5t-24 99t60 115.5l469 528q15 17 10 31t-30 14h-464q-70 0 -70 70v6q0 70 70 70
h562q68 0 102 -40t24.5 -100t-59.5 -114l-469 -529q-14 -17 -9.5 -31t29.5 -14z" />
    <glyph glyph-name="uni018F" unicode="&#x18f;" horiz-adv-x="1256" 
d="M600 1318q256 0 399.5 -172.5t143.5 -495.5q0 -319 -141.5 -493.5t-401.5 -174.5q-103 0 -190 28.5t-153.5 84t-104.5 146t-38 206.5q0 65 13 108t47 77.5t94.5 54t155.5 30.5l552 64q-25 193 -127.5 288.5t-273.5 95.5q-123 0 -282 -47q-37 -11 -58.5 1t-21.5 45v13
q0 62 70 85q173 56 317 56zM606 132q372 0 378 502l-552 -59q-94 -9 -126.5 -35t-32.5 -84q0 -156 88 -240t245 -84z" />
    <glyph glyph-name="florin" unicode="&#x192;" horiz-adv-x="1282" 
d="M1282 1319q-12 -68 -84 -56q-200 33 -300.5 -11.5t-124.5 -183.5l-16 -95h325q36 0 53 -19t11 -53l-2 -10q-10 -63 -75 -63h-337l-140 -828q-75 -437 -538 -336q-66 14 -55 82l1 4q12 67 83 55q163 -25 243 20t103 175l181 1068q19 114 74 193t136 117t185 46.5
t222 -19.5q67 -13 56 -83z" />
    <glyph glyph-name="uni019D" unicode="&#x19d;" horiz-adv-x="1443" 
d="M1098 1230q0 70 70 70h18q70 0 70 -70v-1016q0 -125 -43.5 -169.5t-143.5 -44.5q-79 0 -129.5 37t-99.5 153l-407 907q-12 28 -23 38.5t-27 10.5q-38 0 -38 -53v-1115q0 -218 -101 -290.5t-277 -23.5q-17 4 -27.5 20t-10.5 37v23q0 27 14 42t40 15q6 0 34 -4t43 -4
q65 0 96 40t31 130v1123q0 125 43.5 169.5t143.5 44.5q79 0 129.5 -37t99.5 -153l406 -907q13 -29 24 -39t27 -10q38 0 38 53v1023z" />
    <glyph glyph-name="uni01CD" unicode="&#x1cd;" horiz-adv-x="1324" 
d="M957 1667q28 -45 -34 -80l-213 -122q-48 -28 -96 0l-213 121q-61 35 -33 81q27 46 88 16l207 -101l206 101q61 30 88 -16zM1181 0q-62 0 -79 58l-107 341h-666l-107 -341q-17 -58 -79 -58h-19q-38 0 -53.5 21.5t-4.5 57.5l302 957q49 153 114.5 217.5t179.5 64.5
q115 0 182.5 -64.5t111.5 -217.5l302 -957q11 -36 -4.5 -57.5t-53.5 -21.5h-19zM376 547h572l-147 468q-28 89 -59 123.5t-80 34.5t-80 -34.5t-59 -123.5z" />
    <glyph glyph-name="uni01CE" unicode="&#x1ce;" horiz-adv-x="1076" 
d="M817 1340q28 -45 -34 -80l-213 -122q-48 -28 -96 0l-213 121q-61 35 -33 81q27 46 88 16l207 -101l206 101q61 30 88 -16zM517 991q191 0 306 -91.5t115 -272.5v-346q0 -145 -67.5 -213t-228.5 -68h-191q-176 0 -264.5 65t-88.5 222t88.5 222.5t264.5 65.5h331v52
q0 109 -73.5 163t-207.5 54q-120 0 -269 -36q-37 -8 -57.5 5.5t-20.5 47.5v10q0 64 73 82q158 38 290 38zM627 140q93 0 124 36.5t31 111.5v147h-331q-112 0 -155.5 -33.5t-43.5 -114.5t43.5 -114t155.5 -33h176z" />
    <glyph glyph-name="uni01CF" unicode="&#x1cf;" horiz-adv-x="618" 
d="M523 1661q35 -37 -25 -82l-140 -103q-49 -36 -98 0l-140 103q-60 45 -24 82q35 38 89 1l124 -83l125 83q53 36 89 -1zM299 0q-70 0 -70 70v1160q0 70 70 70h20q70 0 70 -70v-1160q0 -70 -70 -70h-20z" />
    <glyph glyph-name="uni01D0" unicode="&#x1d0;" horiz-adv-x="484" 
d="M455 1334q35 -37 -25 -82l-140 -103q-49 -36 -98 0l-140 103q-60 45 -24 82q35 38 89 1l124 -83l125 83q53 36 89 -1zM233 0q-70 0 -70 70v833q0 70 70 70h18q70 0 70 -70v-833q0 -70 -70 -70h-18z" />
    <glyph glyph-name="uni01D1" unicode="&#x1d1;" horiz-adv-x="1358" 
d="M974 1667q28 -45 -34 -80l-213 -122q-48 -28 -96 0l-213 121q-61 35 -33 81q27 46 88 16l207 -101l206 101q61 30 88 -16zM679 1318q125 0 228 -42.5t179 -124.5t117.5 -210t41.5 -291t-41.5 -291t-117.5 -210t-179 -124.5t-228 -42.5t-228 42.5t-178.5 124.5t-117 210
t-41.5 291t41.5 291t117 210t178.5 124.5t228 42.5zM679 133q190 0 298.5 124.5t108.5 392.5t-108.5 392.5t-298.5 124.5t-298.5 -124.5t-108.5 -392.5t108.5 -392.5t298.5 -124.5z" />
    <glyph glyph-name="uni01D2" unicode="&#x1d2;" horiz-adv-x="1150" 
d="M870 1340q28 -45 -34 -80l-213 -122q-48 -28 -96 0l-213 121q-61 35 -33 81q27 46 88 16l207 -101l206 101q61 30 88 -16zM575 991q220 0 341 -132t121 -373t-121 -372.5t-341 -131.5t-340.5 131.5t-120.5 372.5t120.5 373t340.5 132zM575 127q304 0 304 359
q0 360 -304 360t-304 -360q0 -359 304 -359z" />
    <glyph glyph-name="uni01D3" unicode="&#x1d3;" horiz-adv-x="1432" 
d="M1011 1667q28 -45 -34 -80l-213 -122q-48 -28 -96 0l-213 121q-61 35 -33 81q27 46 88 16l207 -101l206 101q61 30 88 -16zM1086 1230q0 70 70 70h19q70 0 70 -70v-736q0 -259 -124.5 -385.5t-404.5 -126.5t-404.5 126.5t-124.5 385.5v736q0 70 70 70h18q70 0 70 -70
v-746q0 -179 88.5 -265t282.5 -86t282 86t88 265v746z" />
    <glyph glyph-name="uni01D4" unicode="&#x1d4;" horiz-adv-x="1174" 
d="M882 1340q28 -45 -34 -80l-213 -122q-48 -28 -96 0l-213 121q-61 35 -33 81q27 46 88 16l207 -101l206 101q61 30 88 -16zM880 903q0 70 70 70h16q70 0 70 -70v-459q0 -130 -29.5 -220.5t-89 -143t-139.5 -75.5t-191 -23t-190.5 23t-139 75.5t-89 143t-29.5 220.5v459
q0 70 70 70h15q70 0 70 -70v-459q0 -179 68 -248t225 -69t225 69t68 248v459z" />
    <glyph glyph-name="uni01D5" unicode="&#x1d5;" horiz-adv-x="1432" 
d="M386 1884q0 61 70 61h519q70 0 70 -61t-70 -61h-519q-70 0 -70 61zM519 1462q-46 0 -70 26t-24 72t24 72.5t70 26.5q45 0 68.5 -26.5t23.5 -72.5q0 -98 -92 -98zM912 1462q-45 0 -69 26t-24 72t24 72.5t69 26.5t69 -26.5t24 -72.5q0 -47 -23.5 -72.5t-69.5 -25.5z
M1175 1300q70 0 70 -70v-736q0 -259 -124.5 -385.5t-404.5 -126.5t-404.5 126.5t-124.5 385.5v736q0 70 70 70h18q70 0 70 -70v-746q0 -179 88.5 -265t282.5 -86t282 86t88 265v746q0 70 70 70h19z" />
    <glyph glyph-name="uni01D6" unicode="&#x1d6;" horiz-adv-x="1174" 
d="M846 1618q70 0 70 -61t-70 -61h-519q-70 0 -70 61t70 61h519zM296 1233q0 46 24 72.5t70 26.5q45 0 68.5 -26.5t23.5 -72.5q0 -98 -92 -98q-46 0 -70 26t-24 72zM690 1233q0 46 24 72.5t69 26.5t69 -26.5t24 -72.5q0 -47 -23.5 -72.5t-69.5 -25.5q-45 0 -69 26t-24 72z
M880 903q0 70 70 70h16q70 0 70 -70v-459q0 -130 -29.5 -220.5t-89 -143t-139.5 -75.5t-191 -23t-190.5 23t-139 75.5t-89 143t-29.5 220.5v459q0 70 70 70h15q70 0 70 -70v-459q0 -179 68 -248t225 -69t225 69t68 248v459z" />
    <glyph glyph-name="uni01D7" unicode="&#x1d7;" horiz-adv-x="1432" 
d="M720 1772q-35 0 -45.5 23.5t8.5 59.5l85 167q26 51 83 51h19q41 0 55.5 -23.5t-5.5 -60.5l-94 -168q-27 -49 -83 -49h-23zM519 1462q-46 0 -70 26t-24 72t24 72.5t70 26.5q45 0 68.5 -26.5t23.5 -72.5q0 -98 -92 -98zM912 1462q-45 0 -69 26t-24 72t24 72.5t69 26.5
t69 -26.5t24 -72.5q0 -47 -23.5 -72.5t-69.5 -25.5zM1175 1300q70 0 70 -70v-736q0 -259 -124.5 -385.5t-404.5 -126.5t-404.5 126.5t-124.5 385.5v736q0 70 70 70h18q70 0 70 -70v-746q0 -179 88.5 -265t282.5 -86t282 86t88 265v746q0 70 70 70h19z" />
    <glyph glyph-name="uni01D8" unicode="&#x1d8;" horiz-adv-x="1174" 
d="M751 1746q37 0 48.5 -23.5t-8.5 -60.5l-94 -168q-27 -49 -83 -49h-9q-41 0 -55.5 23.5t4.5 59.5l85 167q26 51 83 51h29zM390 1135q-46 0 -70 26t-24 72t24 72.5t70 26.5q45 0 68.5 -26.5t23.5 -72.5q0 -98 -92 -98zM690 1233q0 46 24 72.5t69 26.5t69 -26.5t24 -72.5
q0 -47 -23.5 -72.5t-69.5 -25.5q-45 0 -69 26t-24 72zM880 903q0 70 70 70h16q70 0 70 -70v-459q0 -130 -29.5 -220.5t-89 -143t-139.5 -75.5t-191 -23t-190.5 23t-139 75.5t-89 143t-29.5 220.5v459q0 70 70 70h15q70 0 70 -70v-459q0 -179 68 -248t225 -69t225 69t68 248
v459z" />
    <glyph glyph-name="uni01D9" unicode="&#x1d9;" horiz-adv-x="1432" 
d="M1011 2014q28 -45 -34 -80l-213 -122q-48 -28 -96 0l-213 121q-61 35 -33 81q27 46 88 16l207 -101l206 101q61 30 88 -16zM425 1560q0 46 24 72.5t70 26.5q45 0 68.5 -26.5t23.5 -72.5q0 -98 -92 -98q-46 0 -70 26t-24 72zM819 1560q0 46 24 72.5t69 26.5t69 -26.5
t24 -72.5q0 -47 -23.5 -72.5t-69.5 -25.5q-45 0 -69 26t-24 72zM1086 1230q0 70 70 70h19q70 0 70 -70v-736q0 -259 -124.5 -385.5t-404.5 -126.5t-404.5 126.5t-124.5 385.5v736q0 70 70 70h18q70 0 70 -70v-746q0 -179 88.5 -265t282.5 -86t282 86t88 265v746z" />
    <glyph glyph-name="uni01DA" unicode="&#x1da;" horiz-adv-x="1174" 
d="M882 1687q28 -45 -34 -80l-213 -122q-48 -28 -96 0l-213 121q-61 35 -33 81q27 46 88 16l207 -101l206 101q61 30 88 -16zM296 1233q0 46 24 72.5t70 26.5q45 0 68.5 -26.5t23.5 -72.5q0 -98 -92 -98q-46 0 -70 26t-24 72zM690 1233q0 46 24 72.5t69 26.5t69 -26.5
t24 -72.5q0 -47 -23.5 -72.5t-69.5 -25.5q-45 0 -69 26t-24 72zM880 903q0 70 70 70h16q70 0 70 -70v-459q0 -130 -29.5 -220.5t-89 -143t-139.5 -75.5t-191 -23t-190.5 23t-139 75.5t-89 143t-29.5 220.5v459q0 70 70 70h15q70 0 70 -70v-459q0 -179 68 -248t225 -69
t225 69t68 248v459z" />
    <glyph glyph-name="uni01DB" unicode="&#x1db;" horiz-adv-x="1432" 
d="M773 1855q19 -36 8.5 -59.5t-45.5 -23.5h-23q-56 0 -83 49l-94 168q-20 37 -8.5 60.5t48.5 23.5h29q57 0 83 -51zM519 1462q-46 0 -70 26t-24 72t24 72.5t70 26.5q45 0 68.5 -26.5t23.5 -72.5q0 -98 -92 -98zM912 1462q-45 0 -69 26t-24 72t24 72.5t69 26.5t69 -26.5
t24 -72.5q0 -47 -23.5 -72.5t-69.5 -25.5zM1175 1300q70 0 70 -70v-736q0 -259 -124.5 -385.5t-404.5 -126.5t-404.5 126.5t-124.5 385.5v736q0 70 70 70h18q70 0 70 -70v-746q0 -179 88.5 -265t282.5 -86t282 86t88 265v746q0 70 70 70h19z" />
    <glyph glyph-name="uni01DC" unicode="&#x1dc;" horiz-adv-x="1174" 
d="M644 1528q19 -36 8.5 -59.5t-45.5 -23.5h-23q-56 0 -83 49l-94 168q-20 37 -8.5 60.5t48.5 23.5h29q57 0 83 -51zM390 1135q-46 0 -70 26t-24 72t24 72.5t70 26.5q45 0 68.5 -26.5t23.5 -72.5q0 -98 -92 -98zM783 1135q-45 0 -69 26t-24 72t24 72.5t69 26.5t69 -26.5
t24 -72.5q0 -47 -23.5 -72.5t-69.5 -25.5zM880 903q0 70 70 70h16q70 0 70 -70v-459q0 -130 -29.5 -220.5t-89 -143t-139.5 -75.5t-191 -23t-190.5 23t-139 75.5t-89 143t-29.5 220.5v459q0 70 70 70h15q70 0 70 -70v-459q0 -179 68 -248t225 -69t225 69t68 248v459z" />
    <glyph glyph-name="Gcaron" unicode="&#x1e6;" horiz-adv-x="1262" 
d="M959 1667q28 -45 -34 -80l-213 -122q-48 -28 -96 0l-213 121q-61 35 -33 81q27 46 88 16l207 -101l206 101q61 30 88 -16zM965 619q0 70 70 70h18q70 0 70 -70v-364q0 -155 -88 -214t-316 -59q-299 0 -452 177t-153 491q0 258 103 424t300.5 220.5t486.5 -17.5
q61 -16 61 -79v-5q0 -37 -21 -52.5t-59 -7.5q-373 85 -543 -39.5t-170 -443.5q0 -517 438 -517q154 0 204.5 26t50.5 118v342z" />
    <glyph glyph-name="gcaron" unicode="&#x1e7;" horiz-adv-x="1134" 
d="M873 1340q28 -45 -34 -80l-213 -122q-48 -28 -96 0l-213 121q-61 35 -33 81q27 46 88 16l207 -101l206 101q61 30 88 -16zM630 991q202 0 284 -69.5t82 -217.5v-758q0 -178 -118.5 -271t-308.5 -93q-123 0 -254 39q-58 17 -58 79v4q0 37 21 53t58 6q132 -33 227 -33
q128 0 202.5 54t74.5 162v50q-117 -14 -210 -14q-256 0 -386 118t-130 386q0 269 130 387t386 118zM620 127q94 0 220 20v537q0 41 -7 67t-28.5 49.5t-67 34.5t-117.5 11q-182 0 -266.5 -82.5t-84.5 -277.5t84.5 -277t266.5 -82z" />
    <glyph glyph-name="uni01EA" unicode="&#x1ea;" horiz-adv-x="1358" 
d="M675 -136q-67 -59 -52.5 -105t86.5 -46q19 0 47 3t36 3q40 0 40 -57v-2q0 -50 -39 -58q-52 -9 -103 -9q-67 0 -118 21.5t-76 58t-28.5 80.5t24 94.5t83.5 95.5l49 40q-243 10 -388.5 181.5t-145.5 485.5q0 163 41.5 291t117 210t178.5 124.5t228 42.5t228 -42.5
t179 -124.5t117.5 -210t41.5 -291q0 -260 -101.5 -423t-279.5 -218zM248 650q0 -268 108.5 -392.5t298.5 -124.5t298.5 124.5t108.5 392.5t-108.5 392.5t-298.5 124.5t-298.5 -124.5t-108.5 -392.5z" />
    <glyph glyph-name="uni01EB" unicode="&#x1eb;" horiz-adv-x="1150" 
d="M563 -136q-66 -59 -51.5 -105t86.5 -46q19 0 47 3t36 3q40 0 40 -47v-15q0 -47 -39 -55q-52 -9 -103 -9q-67 0 -118 21.5t-76 58t-28.5 80.5t24 94.5t82.5 95.5l50 40q-202 11 -312.5 142t-110.5 361q0 241 120.5 373t340.5 132t341 -132t121 -373q0 -186 -73.5 -308
t-210.5 -169zM247 486q0 -359 304 -359t304 359q0 360 -304 360t-304 -360z" />
    <glyph glyph-name="Aringacute" unicode="&#x1fa;" horiz-adv-x="1324" 
d="M662 1387q-85 0 -138 43t-53 113q0 56 34 95.5t93 53.5l103 204q26 51 83 51h20q41 0 55 -23.5t-6 -60.5l-100 -180q45 -18 71 -55t26 -85q0 -70 -52.5 -113t-135.5 -43zM662 1481q33 0 52 17t19 45t-19 45.5t-52 17.5q-35 0 -54.5 -17.5t-19.5 -45.5t19.5 -45t54.5 -17z
M1181 0q-62 0 -79 58l-107 341h-666l-107 -341q-17 -58 -79 -58h-19q-38 0 -53.5 21.5t-4.5 57.5l302 957q49 153 114.5 217.5t179.5 64.5q115 0 182.5 -64.5t111.5 -217.5l302 -957q11 -36 -4.5 -57.5t-53.5 -21.5h-19zM376 547h572l-147 468q-28 89 -59 123.5t-80 34.5
t-80 -34.5t-59 -123.5z" />
    <glyph glyph-name="aringacute" unicode="&#x1fb;" horiz-adv-x="1076" 
d="M522 1088q-85 0 -138 43t-53 113q0 56 34 95.5t93 53.5l103 204q26 51 83 51h20q41 0 55 -23.5t-6 -60.5l-100 -180q45 -18 71 -55t26 -85q0 -70 -52.5 -113t-135.5 -43zM522 1182q33 0 52 17t19 45t-19 45.5t-52 17.5q-35 0 -54.5 -17.5t-19.5 -45.5t19.5 -45t54.5 -17z
M517 991q191 0 306 -91.5t115 -272.5v-346q0 -145 -67.5 -213t-228.5 -68h-191q-176 0 -264.5 65t-88.5 222t88.5 222.5t264.5 65.5h331v52q0 109 -73.5 163t-207.5 54q-120 0 -269 -36q-37 -8 -57.5 5.5t-20.5 47.5v10q0 64 73 82q158 38 290 38zM627 140q93 0 124 36.5
t31 111.5v147h-331q-112 0 -155.5 -33.5t-43.5 -114.5t43.5 -114t155.5 -33h176z" />
    <glyph glyph-name="AEacute" unicode="&#x1fc;" horiz-adv-x="1862" 
d="M1302 1726q37 0 48.5 -23.5t-8.5 -60.5l-94 -168q-27 -49 -83 -49h-9q-41 0 -55.5 23.5t4.5 59.5l85 167q26 51 83 51h29zM1236 151h452q70 0 70 -70v-11q0 -70 -70 -70h-466q-162 0 -229 65.5t-67 209.5v124h-497l-185 -349q-26 -50 -82 -50h-26q-41 0 -55.5 23.5
t5.5 59.5l504 934q85 164 151 223.5t185 59.5h720q70 0 70 -70v-11q0 -70 -70 -70h-561v-418h461q70 0 70 -70v-11q0 -70 -70 -70h-461v-295q0 -68 30 -101t121 -33zM508 547h418v602q-59 0 -93 -26t-77 -107z" />
    <glyph glyph-name="aeacute" unicode="&#x1fd;" horiz-adv-x="1729" 
d="M1036 1399q37 0 48.5 -23.5t-8.5 -60.5l-94 -168q-27 -49 -83 -49h-9q-41 0 -55.5 23.5t4.5 59.5l85 167q26 51 83 51h29zM1627 639q0 -100 -52.5 -148.5t-185.5 -62.5l-456 -48q42 -253 308 -253q105 0 232 36q38 11 59 -1.5t21 -45.5v-12q0 -62 -58 -79
q-147 -43 -272 -43q-253 0 -369 172q-113 -172 -403 -172q-176 0 -264.5 69t-88.5 236q0 157 88.5 222.5t264.5 65.5h314v11q0 120 -64.5 189t-199.5 69q-120 0 -269 -36q-37 -8 -57.5 5.5t-20.5 47.5v10q0 63 60 78q162 42 303 42q239 0 343 -158q114 158 357 158
q192 0 301 -94.5t109 -257.5zM926 523l431 45q69 7 92 25t23 59q0 90 -65.5 142.5t-189.5 52.5q-144 0 -214 -79t-77 -245zM451 122q314 0 314 271v42h-314q-112 0 -155.5 -33.5t-43.5 -114.5q0 -91 43.5 -128t155.5 -37z" />
    <glyph glyph-name="Oslashacute" unicode="&#x1fe;" horiz-adv-x="1358" 
d="M826 1735q37 0 48.5 -23.5t-8.5 -60.5l-94 -168q-27 -49 -83 -49h-9q-41 0 -55.5 23.5t4.5 59.5l85 167q26 51 83 51h29zM1047 1190q198 -176 198 -540q0 -163 -41.5 -291t-117.5 -210t-179 -124.5t-228 -42.5q-135 0 -246 50l-51 -96q-26 -50 -82 -50h-12
q-40 0 -54.5 23.5t4.5 59.5l74 141q-198 176 -198 540q0 163 41.5 291t117 210t178.5 124.5t228 42.5q137 0 245 -49l49 95q26 50 83 50h13q41 0 55.5 -23.5t-4.5 -59.5zM272 650q0 -268 115 -399l467 884q-76 32 -175 32q-190 0 -298.5 -125t-108.5 -392zM679 133
q190 0 298.5 124.5t108.5 392.5t-114 399l-468 -883q75 -33 175 -33z" />
    <glyph glyph-name="oslashacute" unicode="&#x1ff;" horiz-adv-x="1150" 
d="M722 1428q37 0 48.5 -23.5t-8.5 -60.5l-94 -168q-27 -49 -83 -49h-9q-41 0 -55.5 23.5t4.5 59.5l85 167q26 51 83 51h29zM867 904q170 -130 170 -418q0 -241 -121 -372.5t-341 -131.5q-92 0 -172 25l-51 -97q-26 -50 -82 -50h-1q-41 0 -55.5 23.5t4.5 59.5l65 126
q-169 129 -169 417q0 241 120.5 373t340.5 132q92 0 173 -25l48 95q25 51 82 51h3q40 0 54.5 -23.5t-4.5 -59.5zM271 486q0 -188 84 -278l324 625q-45 13 -104 13q-304 0 -304 -360zM575 127q304 0 304 359q0 186 -83 277l-324 -623q45 -13 103 -13z" />
    <glyph glyph-name="uni0218" unicode="&#x218;" horiz-adv-x="1050" 
d="M156 28q-58 16 -58 79q0 37 21 53t58 7q115 -27 222.5 -32.5t197 11t143.5 67t54 130.5q0 76 -57.5 131.5t-195.5 109.5l-114 45q-173 67 -247 152t-74 203q0 112 60 189.5t159.5 111t226 33t262.5 -37.5q59 -16 59 -79v-4q0 -37 -21 -52.5t-58 -7.5q-105 23 -198 28
t-168.5 -9.5t-119.5 -57t-44 -110.5q0 -70 52 -121.5t178 -98.5l104 -40q184 -71 269.5 -160t85.5 -225q0 -85 -33 -152t-90 -109.5t-134 -67.5t-166 -30t-184 6t-190 38zM437 -483q-30 0 -44.5 20t-8.5 55l34 205q11 64 75 64h12q37 0 53.5 -20.5t7.5 -57.5l-50 -205
q-15 -61 -77 -61h-2z" />
    <glyph glyph-name="uni0219" unicode="&#x219;" horiz-adv-x="961" 
d="M162 28q-58 17 -58 79q0 37 21 53t58 7q102 -24 193 -33t167 -1.5t121 42t45 92.5q0 52 -37.5 86t-122.5 58l-204 56q-248 68 -248 260q0 93 56 155.5t148.5 87t207.5 20t236 -37.5q59 -16 59 -79q0 -37 -21 -52.5t-58 -6.5q-83 21 -165.5 28t-152 0t-112.5 -36t-43 -77
q0 -82 121 -118l218 -58q141 -39 207 -107t66 -173q0 -84 -41.5 -146t-112 -94.5t-161 -44.5t-190 -1t-197.5 41zM410 -483q-30 0 -44.5 20t-8.5 55l34 205q11 64 75 64h12q37 0 53.5 -20.5t7.5 -57.5l-50 -205q-15 -61 -77 -61h-2z" />
    <glyph glyph-name="uni021A" unicode="&#x21a;" horiz-adv-x="1156" 
d="M1045 1300q70 0 70 -70v-11q0 -70 -70 -70h-387v-1079q0 -70 -70 -70h-20q-70 0 -70 70v1079h-387q-70 0 -70 70v11q0 70 70 70h934zM506 -483q-30 0 -44.5 20t-8.5 55l34 205q11 64 75 64h12q37 0 53.5 -20.5t7.5 -57.5l-50 -205q-15 -61 -77 -61h-2z" />
    <glyph glyph-name="uni021B" unicode="&#x21b;" horiz-adv-x="758" 
d="M704 898q0 -70 -70 -70h-337v-490q0 -108 48 -157t146 -49q42 0 89.5 8.5t59.5 8.5q35 0 48.5 -12t13.5 -40v-22q0 -55 -49 -67q-88 -23 -164.5 -26t-141.5 16.5t-111 61.5t-71.5 112.5t-25.5 165.5v798q0 70 70 70h18q70 0 70 -70v-163h337q70 0 70 -70v-5zM378 -483
q-30 0 -44.5 20t-8.5 55l34 205q11 64 75 64h12q37 0 53.5 -20.5t7.5 -57.5l-50 -205q-15 -61 -77 -61h-2z" />
    <glyph glyph-name="uni0232" unicode="&#x232;" horiz-adv-x="1269" 
d="M831 1598q70 0 70 -61t-70 -61h-393q-70 0 -70 61t70 61h393zM1035 1255q30 45 84 45h34q43 0 56.5 -25t-11.5 -60l-259 -376q-83 -122 -128.5 -173.5t-94.5 -69.5v-526q0 -70 -70 -70h-23q-70 0 -70 70v527q-49 18 -94.5 69t-127.5 173l-259 376q-25 35 -14 60t51 25h41
q54 0 84 -45l257 -387q53 -79 80 -103t64 -24t63.5 24t79.5 103z" />
    <glyph glyph-name="uni0233" unicode="&#x233;" horiz-adv-x="1159" 
d="M776 1271q70 0 70 -61t-70 -61h-393q-70 0 -70 61t70 61h393zM865 903q0 70 70 70h16q70 0 70 -70v-957q0 -178 -118 -271t-309 -93q-124 0 -254 39q-58 17 -58 79v4q0 37 21 53t58 6q132 -33 228 -33q127 0 201.5 54t74.5 162v50q-117 -14 -209 -14q-257 0 -387 118
t-130 386v417q0 70 70 70h15q70 0 70 -70v-406q0 -204 85 -287t274 -83q90 0 212 17v759z" />
    <glyph glyph-name="uni0237" unicode="&#x237;" horiz-adv-x="524" 
d="M185 903q0 70 70 70h18q70 0 70 -70v-965q0 -119 -36 -199t-100 -115t-152 -41.5t-193 20.5q-44 9 -44 67q0 41 12 57t50 16q12 0 54 -5.5t69 -5.5q93 0 137.5 47.5t44.5 158.5v965z" />
    <glyph glyph-name="uni0259" unicode="&#x259;" horiz-adv-x="1088" 
d="M506 991q217 0 342.5 -129.5t125.5 -374.5q0 -243 -118.5 -374t-343.5 -131q-192 0 -301 94.5t-109 257.5q0 100 52.5 148.5t185.5 62.5l470 50q-24 127 -107 189t-215 62q-104 0 -232 -36q-38 -11 -59 1.5t-21 45.5v12q0 62 68 82q142 40 262 40zM512 126q291 0 306 326
l-446 -47q-69 -7 -92 -25t-23 -59q0 -90 65.5 -142.5t189.5 -52.5z" />
    <glyph glyph-name="uni0272" unicode="&#x272;" horiz-adv-x="1198" 
d="M587 991q111 0 191 -23t139.5 -75.5t89 -143t29.5 -220.5v-459q0 -70 -70 -70h-16q-70 0 -70 70v459q0 179 -68 248t-225 69t-225 -69t-68 -248v-606q0 -181 -86 -244.5t-232 -16.5q-36 14 -36 61v15q0 25 13.5 42.5t34.5 17.5q5 0 27.5 -4t32.5 -4q91 0 91 133v606
q0 130 29.5 220.5t89 143t139 75.5t190.5 23z" />
    <glyph glyph-name="circumflex" unicode="&#x2c6;" horiz-adv-x="842" 
d="M681 1227q62 -35 34 -80q-27 -46 -88 -16l-206 101l-207 -101q-59 -29 -88 16q-28 45 34 81l212 121q48 28 96 0z" />
    <glyph glyph-name="caron" unicode="&#x2c7;" horiz-adv-x="789" 
d="M599 1356q61 30 88 -16q28 -45 -34 -80l-213 -122q-48 -28 -96 0l-213 121q-61 35 -33 81q27 46 88 16l207 -101z" />
    <glyph glyph-name="breve" unicode="&#x2d8;" horiz-adv-x="765" 
d="M382 1109q-139 0 -220.5 45t-81.5 140q0 28 16 43t44 15h7q64 0 64 -40q0 -98 171 -98q173 0 173 98q0 40 65 40h7q27 0 43 -15.5t16 -42.5q0 -95 -81.5 -140t-222.5 -45z" />
    <glyph glyph-name="dotaccent" unicode="&#x2d9;" horiz-adv-x="449" 
d="M225 1144q-48 0 -73 26.5t-25 75.5q0 48 25 75.5t73 27.5t72.5 -27.5t24.5 -75.5q0 -102 -97 -102z" />
    <glyph glyph-name="ring" unicode="&#x2da;" horiz-adv-x="580" 
d="M292 1088q-85 0 -138 43t-53 113t53 113.5t138 43.5q84 0 136 -43.5t52 -113.5t-52.5 -113t-135.5 -43zM292 1182q33 0 52 17t19 45t-19 45.5t-52 17.5q-35 0 -54.5 -17.5t-19.5 -45.5t19.5 -45t54.5 -17z" />
    <glyph glyph-name="ogonek" unicode="&#x2db;" horiz-adv-x="663" 
d="M329 -349q-79 0 -132 28t-70 70t3.5 95t79.5 100l171 136q47 38 97 7q28 -17 27 -42t-31 -50l-136 -110q-75 -60 -64.5 -96t102.5 -36q34 0 100 6q49 0 49 -46v-4q0 -44 -42 -50q-67 -8 -154 -8z" />
    <glyph glyph-name="tilde" unicode="&#x2dc;" horiz-adv-x="833" 
d="M145 1158l-37 18q-17 9 -18 28t15 42q72 98 187 98q52 0 97 -22t83.5 -44t72.5 -22q48 0 80 43q26 34 64 16l37 -18q17 -9 18 -28t-15 -42q-73 -99 -187 -99q-52 0 -97.5 22t-83.5 44t-72 22q-49 0 -80 -42q-27 -35 -64 -16z" />
    <glyph glyph-name="hungarumlaut" unicode="&#x2dd;" horiz-adv-x="854" 
d="M179 1132q-29 0 -34 23.5t15 60.5l65 115q28 49 83 49q40 0 52 -24t-11 -60l-75 -118q-29 -46 -84 -46h-11zM533 1132q-29 0 -34 23.5t15 60.5l65 115q28 49 83 49q40 0 52 -24t-11 -60l-75 -118q-29 -46 -84 -46h-11z" />
    <glyph glyph-name="gravecomb" unicode="&#x300;" 
d="M-278 1181q19 -36 8.5 -59.5t-45.5 -23.5h-23q-56 0 -83 49l-94 168q-20 37 -8.5 60.5t48.5 23.5h29q57 0 83 -51z" />
    <glyph glyph-name="acutecomb" unicode="&#x301;" 
d="M-351 1098q-35 0 -45.5 23.5t8.5 59.5l85 167q26 51 83 51h19q41 0 55.5 -23.5t-5.5 -60.5l-94 -168q-27 -49 -83 -49h-23z" />
    <glyph glyph-name="uni0302" unicode="&#x302;" 
d="M-161 1227q62 -35 34 -80q-27 -46 -88 -16l-206 101l-207 -101q-59 -29 -88 16q-28 45 34 81l212 121q48 28 96 0z" />
    <glyph glyph-name="tildecomb" unicode="&#x303;" 
d="M-689 1158l-37 18q-17 9 -18 28t15 42q72 98 187 98q52 0 97 -22t83.5 -44t72.5 -22q48 0 80 43q26 34 64 16l37 -18q17 -9 18 -28t-15 -42q-73 -99 -187 -99q-52 0 -97.5 22t-83.5 44t-72 22q-49 0 -80 -42q-27 -35 -64 -16z" />
    <glyph glyph-name="uni0304" unicode="&#x304;" 
d="M-824 1210q0 61 70 61h393q70 0 70 -61t-70 -61h-393q-70 0 -70 61z" />
    <glyph glyph-name="uni0306" unicode="&#x306;" 
d="M-383 1109q-139 0 -220.5 45t-81.5 140q0 28 16 43t44 15h7q64 0 64 -40q0 -98 171 -98q173 0 173 98q0 40 65 40h7q27 0 43 -15.5t16 -42.5q0 -95 -81.5 -140t-222.5 -45z" />
    <glyph glyph-name="uni0307" unicode="&#x307;" 
d="M-155 1144q-48 0 -73 26.5t-25 75.5q0 48 25 75.5t73 27.5t72.5 -27.5t24.5 -75.5q0 -102 -97 -102z" />
    <glyph glyph-name="uni0308" unicode="&#x308;" 
d="M-544 1135q-46 0 -70 26t-24 72t24 72.5t70 26.5q45 0 68.5 -26.5t23.5 -72.5q0 -98 -92 -98zM-151 1135q-45 0 -69 26t-24 72t24 72.5t69 26.5t69 -26.5t24 -72.5q0 -47 -23.5 -72.5t-69.5 -25.5z" />
    <glyph glyph-name="uni030A" unicode="&#x30a;" 
d="M-276 1088q-85 0 -138 43t-53 113t53 113.5t138 43.5q84 0 136 -43.5t52 -113.5t-52.5 -113t-135.5 -43zM-276 1182q33 0 52 17t19 45t-19 45.5t-52 17.5q-35 0 -54.5 -17.5t-19.5 -45.5t19.5 -45t54.5 -17z" />
    <glyph glyph-name="uni030B" unicode="&#x30b;" 
d="M-624 1132q-29 0 -34 23.5t15 60.5l65 115q28 49 83 49q40 0 52 -24t-11 -60l-75 -118q-29 -46 -84 -46h-11zM-270 1132q-29 0 -34 23.5t15 60.5l65 115q28 49 83 49q40 0 52 -24t-11 -60l-75 -118q-29 -46 -84 -46h-11z" />
    <glyph glyph-name="uni030C" unicode="&#x30c;" 
d="M-190 1356q61 30 88 -16q28 -45 -34 -80l-213 -122q-48 -28 -96 0l-213 121q-61 35 -33 81q27 46 88 16l207 -101z" />
    <glyph glyph-name="uni0312" unicode="&#x312;" 
d="M-122 1738q30 0 44 -20t8 -55l-34 -205q-11 -64 -75 -64h-12q-37 0 -53.5 20.5t-7.5 57.5l50 205q15 61 77 61h3z" />
    <glyph glyph-name="dotbelowcomb" unicode="&#x323;" 
d="M-155 -376q-48 0 -73 27t-25 75t25 75.5t73 27.5t72.5 -27.5t24.5 -75.5t-24.5 -75t-72.5 -27z" />
    <glyph glyph-name="uni0326" unicode="&#x326;" 
d="M-264 -483q-30 0 -44.5 20t-8.5 55l34 205q11 64 75 64h12q37 0 53.5 -20.5t7.5 -57.5l-50 -205q-15 -61 -77 -61h-2z" />
    <glyph glyph-name="uni0327" unicode="&#x327;" 
d="M-748 -345v15q0 23 10.5 36t29.5 13q8 0 36 -3t47 -3q51 0 66.5 30t-5.5 83l-55 139q-14 36 -2.5 58.5t45.5 24.5l14 1q61 4 83 -52l51 -127q24 -60 28.5 -108.5t-13 -87.5t-66 -60t-127.5 -21q-50 0 -103 9q-39 8 -39 53z" />
    <glyph glyph-name="uni0328" unicode="&#x328;" 
d="M-655 -349q-79 0 -132 28t-70 70t3.5 95t79.5 100l171 136q47 38 97 7q28 -17 27 -42t-31 -50l-136 -110q-75 -60 -64.5 -96t102.5 -36q34 0 100 6q49 0 49 -46v-4q0 -44 -42 -50q-67 -8 -154 -8z" />
    <glyph glyph-name="uni0335" unicode="&#x335;" 
d="M-1072 723q-70 0 -70 67t70 67h746q70 0 70 -67t-70 -67h-746z" />
    <glyph glyph-name="uni0336" unicode="&#x336;" 
d="M-1171 723q-70 0 -70 67t70 67h945q70 0 70 -67t-70 -67h-945z" />
    <glyph glyph-name="uni0337" unicode="&#x337;" 
d="M-983 584q-60 -35 -94 22q-36 57 25 93l638 385q61 36 95 -21t-26 -94z" />
    <glyph glyph-name="uni0338" unicode="&#x338;" 
d="M-404 1112q38 0 50.5 -23.5t-6.5 -59.5l-583 -1119q-26 -50 -83 -50h-23q-41 0 -55.5 23.5t4.5 59.5l583 1119q26 50 83 50h30z" />
    <glyph glyph-name="uni0394" unicode="&#x394;" horiz-adv-x="1301" 
d="M677 1300q59 0 81 -55l469 -1164q15 -36 -0.5 -58.5t-54.5 -22.5h-1043q-39 0 -54 22.5t-1 58.5l468 1164q22 55 81 55h54zM273 151h754l-377 936z" />
    <glyph glyph-name="uni03A9" unicode="&#x3a9;" horiz-adv-x="1420" 
d="M1190 138q56 0 56 -56v-26q0 -56 -56 -56h-310q-70 0 -70 70v188q0 60 63 75q125 33 200 134.5t75 256.5q0 125 -47.5 223.5t-148 159t-241.5 60.5q-210 0 -324.5 -125t-114.5 -318q0 -155 75.5 -256.5t200.5 -134.5q63 -15 63 -75v-188q0 -70 -70 -70h-310q-56 0 -56 56
v26q0 56 56 56h232v86q-163 51 -256 188t-93 332q0 253 158 413.5t439 160.5q188 0 324 -76t203.5 -204.5t67.5 -293.5q0 -195 -92.5 -332t-255.5 -188v-86h232z" />
    <glyph glyph-name="uni03BC" unicode="&#x3bc;" horiz-adv-x="1134" 
d="M865 903q0 70 70 70h16q70 0 70 -70v-417q0 -268 -130 -386t-387 -118q-92 0 -210 14v-326q0 -70 -70 -70h-15q-70 0 -70 70v1233q0 70 70 70h15q70 0 70 -70v-756q126 -20 220 -20q182 0 266.5 82t84.5 277v417z" />
    <glyph glyph-name="pi" unicode="&#x3c0;" horiz-adv-x="1184" 
d="M1024 973q56 0 56 -55v-36q0 -54 -56 -54h-79v-758q0 -70 -70 -70h-16q-70 0 -70 70v758h-392v-758q0 -70 -70 -70h-15q-70 0 -70 70v758h-82q-56 0 -56 54v36q0 55 56 55h864z" />
    <glyph glyph-name="Wgrave" unicode="&#x1e80;" horiz-adv-x="1693" 
d="M895 1508q19 -36 8.5 -59.5t-45.5 -23.5h-23q-56 0 -83 49l-94 168q-20 37 -8.5 60.5t48.5 23.5h29q57 0 83 -51zM81 1225q-5 36 12 55.5t53 19.5h21q65 0 74 -65l147 -1043q8 -39 36 -39q27 0 34 35l201 961q16 79 62 115t125 36q80 0 125.5 -35.5t61.5 -115.5l202 -961
q7 -35 34 -35q28 0 35 39l148 1043q9 65 74 65h20q36 0 53 -19.5t12 -55.5l-148 -1038q-15 -111 -59.5 -158t-130.5 -47q-84 0 -129 46.5t-68 155.5l-191 914q-10 51 -39 51q-28 0 -38 -51l-191 -914q-23 -109 -68 -155.5t-130 -46.5q-86 0 -130 47t-59 158z" />
    <glyph glyph-name="wgrave" unicode="&#x1e81;" horiz-adv-x="1623" 
d="M845 1181q19 -36 8.5 -59.5t-45.5 -23.5h-23q-56 0 -83 49l-94 168q-20 37 -8.5 60.5t48.5 23.5h29q57 0 83 -51zM1380 911q12 62 77 62h18q37 0 53.5 -20.5t8.5 -56.5l-149 -728q-20 -95 -70 -140.5t-140 -45.5q-176 0 -211 183l-126 609q-7 32 -29 32q-25 0 -31 -32
l-124 -609q-20 -93 -71 -138t-141 -45t-141 46t-69 140l-149 728q-8 36 8.5 56.5t53.5 20.5h18q65 0 77 -62l140 -683q11 -52 24 -70.5t42 -18.5q30 0 42.5 18t23.5 69l125 590q32 157 172 157q136 0 171 -157l125 -590q9 -50 22.5 -68.5t43.5 -18.5q29 0 41 18t25 71z" />
    <glyph glyph-name="Wacute" unicode="&#x1e82;" horiz-adv-x="1693" 
d="M853 1425q-35 0 -45.5 23.5t8.5 59.5l85 167q26 51 83 51h19q41 0 55.5 -23.5t-5.5 -60.5l-94 -168q-27 -49 -83 -49h-23zM81 1225q-5 36 12 55.5t53 19.5h21q65 0 74 -65l147 -1043q8 -39 36 -39q27 0 34 35l201 961q16 79 62 115t125 36q80 0 125.5 -35.5t61.5 -115.5
l202 -961q7 -35 34 -35q28 0 35 39l148 1043q9 65 74 65h20q36 0 53 -19.5t12 -55.5l-148 -1038q-15 -111 -59.5 -158t-130.5 -47q-84 0 -129 46.5t-68 155.5l-191 914q-10 51 -39 51q-28 0 -38 -51l-191 -914q-23 -109 -68 -155.5t-130 -46.5q-86 0 -130 47t-59 158z" />
    <glyph glyph-name="wacute" unicode="&#x1e83;" horiz-adv-x="1623" 
d="M976 1399q37 0 48.5 -23.5t-8.5 -60.5l-94 -168q-27 -49 -83 -49h-9q-41 0 -55.5 23.5t4.5 59.5l85 167q26 51 83 51h29zM1380 911q12 62 77 62h18q37 0 53.5 -20.5t8.5 -56.5l-149 -728q-20 -95 -70 -140.5t-140 -45.5q-176 0 -211 183l-126 609q-7 32 -29 32
q-25 0 -31 -32l-124 -609q-20 -93 -71 -138t-141 -45t-141 46t-69 140l-149 728q-8 36 8.5 56.5t53.5 20.5h18q65 0 77 -62l140 -683q11 -52 24 -70.5t42 -18.5q30 0 42.5 18t23.5 69l125 590q32 157 172 157q136 0 171 -157l125 -590q9 -50 22.5 -68.5t43.5 -18.5
q29 0 41 18t25 71z" />
    <glyph glyph-name="Wdieresis" unicode="&#x1e84;" horiz-adv-x="1693" 
d="M649 1462q-46 0 -70 26t-24 72t24 72.5t70 26.5q45 0 68.5 -26.5t23.5 -72.5q0 -98 -92 -98zM1042 1462q-45 0 -69 26t-24 72t24 72.5t69 26.5t69 -26.5t24 -72.5q0 -47 -23.5 -72.5t-69.5 -25.5zM81 1225q-5 36 12 55.5t53 19.5h21q65 0 74 -65l147 -1043q8 -39 36 -39
q27 0 34 35l201 961q16 79 62 115t125 36q80 0 125.5 -35.5t61.5 -115.5l202 -961q7 -35 34 -35q28 0 35 39l148 1043q9 65 74 65h20q36 0 53 -19.5t12 -55.5l-148 -1038q-15 -111 -59.5 -158t-130.5 -47q-84 0 -129 46.5t-68 155.5l-191 914q-10 51 -39 51q-28 0 -38 -51
l-191 -914q-23 -109 -68 -155.5t-130 -46.5q-86 0 -130 47t-59 158z" />
    <glyph glyph-name="wdieresis" unicode="&#x1e85;" horiz-adv-x="1623" 
d="M615 1135q-46 0 -70 26t-24 72t24 72.5t70 26.5q45 0 68.5 -26.5t23.5 -72.5q0 -98 -92 -98zM1008 1135q-45 0 -69 26t-24 72t24 72.5t69 26.5t69 -26.5t24 -72.5q0 -47 -23.5 -72.5t-69.5 -25.5zM1380 911q12 62 77 62h18q37 0 53.5 -20.5t8.5 -56.5l-149 -728
q-20 -95 -70 -140.5t-140 -45.5q-176 0 -211 183l-126 609q-7 32 -29 32q-25 0 -31 -32l-124 -609q-20 -93 -71 -138t-141 -45t-141 46t-69 140l-149 728q-8 36 8.5 56.5t53.5 20.5h18q65 0 77 -62l140 -683q11 -52 24 -70.5t42 -18.5q30 0 42.5 18t23.5 69l125 590
q32 157 172 157q136 0 171 -157l125 -590q9 -50 22.5 -68.5t43.5 -18.5q29 0 41 18t25 71z" />
    <glyph glyph-name="uni1E9E" unicode="&#x1e9e;" horiz-adv-x="1271" 
d="M924 725q233 -61 233 -345q0 -380 -417 -380h-104q-65 0 -65 66v12q0 67 65 67h104q131 0 196.5 56.5t65.5 190.5t-66 195.5t-196 61.5h-66q-37 0 -54 14t-17 53v9q0 39 17 53.5t54 14.5h56q101 0 154.5 45.5t53.5 149.5q0 98 -64 141.5t-231 43.5q-158 0 -229.5 -44
t-71.5 -146v-913q0 -70 -70 -70h-15q-70 0 -70 70v913q0 170 113 252.5t343 82.5q233 0 342 -80.5t109 -239.5q0 -104 -43.5 -169t-126.5 -104z" />
    <glyph glyph-name="uni1EA0" unicode="&#x1ea0;" horiz-adv-x="1324" 
d="M1258 79q11 -36 -4 -57.5t-52 -21.5h-21q-62 0 -79 58l-107 341h-666l-107 -341q-17 -58 -79 -58h-19q-38 0 -53.5 21.5t-4.5 57.5l302 957q49 153 114.5 217.5t179.5 64.5q115 0 182.5 -64.5t111.5 -217.5zM376 547h572l-147 468q-28 89 -59 123.5t-80 34.5t-80 -34.5
t-59 -123.5zM663 -171q48 0 72.5 -27.5t24.5 -75.5t-24.5 -75t-72.5 -27t-73 27t-25 75t25 75.5t73 27.5z" />
    <glyph glyph-name="uni1EA1" unicode="&#x1ea1;" horiz-adv-x="1076" 
d="M517 991q191 0 306 -91.5t115 -272.5v-346q0 -145 -67.5 -213t-228.5 -68h-191q-176 0 -264.5 65t-88.5 222t88.5 222.5t264.5 65.5h331v52q0 109 -73.5 163t-207.5 54q-120 0 -269 -36q-37 -8 -57.5 5.5t-20.5 47.5v10q0 64 73 82q158 38 290 38zM627 140q93 0 124 36.5
t31 111.5v147h-331q-112 0 -155.5 -33.5t-43.5 -114.5t43.5 -114t155.5 -33h176zM522 -171q48 0 72.5 -27.5t24.5 -75.5t-24.5 -75t-72.5 -27t-73 27t-25 75t25 75.5t73 27.5z" />
    <glyph glyph-name="uni1EB8" unicode="&#x1eb8;" horiz-adv-x="1193" 
d="M483 0q-162 0 -229 65.5t-67 209.5v750q0 144 67 209.5t229 65.5h495q70 0 70 -70v-11q0 -70 -70 -70h-481q-91 0 -121.5 -33t-30.5 -101v-284h532q70 0 70 -70v-11q0 -70 -70 -70h-532v-295q0 -68 30.5 -101t121.5 -33h522q70 0 70 -70v-11q0 -70 -70 -70h-536z
M664 -377q-48 0 -73 27t-25 75t25 75.5t73 27.5t72.5 -27.5t24.5 -75.5t-24.5 -75t-72.5 -27z" />
    <glyph glyph-name="uni1EB9" unicode="&#x1eb9;" horiz-adv-x="1088" 
d="M986 639q0 -100 -52.5 -148.5t-185.5 -62.5l-470 -50q24 -127 107 -189t215 -62q104 0 232 36q38 11 59 -1.5t21 -45.5v-12q0 -62 -58 -79q-147 -43 -272 -43q-217 0 -342.5 129.5t-125.5 374.5q0 243 118.5 374t343.5 131q192 0 301 -94.5t109 -257.5zM270 521l446 47
q69 7 92 25t23 59q0 90 -65.5 142.5t-189.5 52.5q-291 0 -306 -326zM557 -171q48 0 72.5 -27.5t24.5 -75.5t-24.5 -75t-72.5 -27t-73 27t-25 75t25 75.5t73 27.5z" />
    <glyph glyph-name="uni1EBC" unicode="&#x1ebc;" horiz-adv-x="1193" 
d="M393 1485l-37 18q-17 9 -18 28t15 42q72 98 187 98q52 0 97 -22t83.5 -44t72.5 -22q48 0 80 43q26 34 64 16l37 -18q17 -9 18 -28t-15 -42q-73 -99 -187 -99q-52 0 -97.5 22t-83.5 44t-72 22q-49 0 -80 -42q-27 -35 -64 -16zM483 0q-162 0 -229 65.5t-67 209.5v750
q0 144 67 209.5t229 65.5h495q70 0 70 -70v-11q0 -70 -70 -70h-481q-91 0 -121.5 -33t-30.5 -101v-284h532q70 0 70 -70v-11q0 -70 -70 -70h-532v-295q0 -68 30.5 -101t121.5 -33h522q70 0 70 -70v-11q0 -70 -70 -70h-536z" />
    <glyph glyph-name="uni1EBD" unicode="&#x1ebd;" horiz-adv-x="1088" 
d="M232 1176q-17 9 -18 28t15 42q72 98 187 98q52 0 97 -22t83.5 -44t72.5 -22q48 0 80 43q26 34 64 16l37 -18q17 -9 18 -28t-15 -42q-73 -99 -187 -99q-52 0 -97.5 22t-83.5 44t-72 22q-49 0 -80 -42q-27 -35 -64 -16zM986 639q0 -100 -52.5 -148.5t-185.5 -62.5l-470 -50
q24 -127 107 -189t215 -62q104 0 232 36q38 11 59 -1.5t21 -45.5v-12q0 -62 -58 -79q-147 -43 -272 -43q-217 0 -342.5 129.5t-125.5 374.5q0 243 118.5 374t343.5 131q192 0 301 -94.5t109 -257.5zM270 521l446 47q69 7 92 25t23 59q0 90 -65.5 142.5t-189.5 52.5
q-291 0 -306 -326z" />
    <glyph glyph-name="uni1ECA" unicode="&#x1eca;" horiz-adv-x="618" 
d="M299 0q-70 0 -70 70v1160q0 70 70 70h20q70 0 70 -70v-1160q0 -70 -70 -70h-20zM309 -377q-48 0 -73 27t-25 75t25 75.5t73 27.5t72.5 -27.5t24.5 -75.5t-24.5 -75t-72.5 -27z" />
    <glyph glyph-name="uni1ECB" unicode="&#x1ecb;" horiz-adv-x="484" 
d="M243 1144q-48 0 -73 26.5t-25 75.5q0 48 25 75.5t73 27.5t72 -27t24 -76q0 -102 -96 -102zM233 0q-70 0 -70 70v833q0 70 70 70h18q70 0 70 -70v-833q0 -70 -70 -70h-18zM242 -376q-48 0 -73 27t-25 75t25 75.5t73 27.5t72.5 -27.5t24.5 -75.5t-24.5 -75t-72.5 -27z" />
    <glyph glyph-name="uni1ECC" unicode="&#x1ecc;" horiz-adv-x="1358" 
d="M679 -18q-125 0 -228 42.5t-178.5 124.5t-117 210t-41.5 291t41.5 291t117 210t178.5 124.5t228 42.5t228 -42.5t179 -124.5t117.5 -210t41.5 -291t-41.5 -291t-117.5 -210t-179 -124.5t-228 -42.5zM679 133q190 0 298.5 124.5t108.5 392.5t-108.5 392.5t-298.5 124.5
t-298.5 -124.5t-108.5 -392.5t108.5 -392.5t298.5 -124.5zM679 -376q-48 0 -73 27t-25 75t25 75.5t73 27.5t72.5 -27.5t24.5 -75.5t-24.5 -75t-72.5 -27z" />
    <glyph glyph-name="uni1ECD" unicode="&#x1ecd;" horiz-adv-x="1150" 
d="M575 -18q-220 0 -340.5 131.5t-120.5 372.5t120.5 373t340.5 132t341 -132t121 -373t-121 -372.5t-341 -131.5zM575 127q304 0 304 359q0 360 -304 360t-304 -360q0 -359 304 -359zM575 -376q-48 0 -73 27t-25 75t25 75.5t73 27.5t72.5 -27.5t24.5 -75.5t-24.5 -75
t-72.5 -27z" />
    <glyph glyph-name="uni1EE4" unicode="&#x1ee4;" horiz-adv-x="1432" 
d="M1175 1300q70 0 70 -70v-736q0 -259 -124.5 -385.5t-404.5 -126.5t-404.5 126.5t-124.5 385.5v736q0 70 70 70h18q70 0 70 -70v-746q0 -179 88.5 -265t282.5 -86t282 86t88 265v746q0 70 70 70h19zM715 -376q-48 0 -73 27t-25 75t25 75.5t73 27.5t72.5 -27.5t24.5 -75.5
t-24.5 -75t-72.5 -27z" />
    <glyph glyph-name="uni1EE5" unicode="&#x1ee5;" horiz-adv-x="1174" 
d="M880 903q0 70 70 70h16q70 0 70 -70v-459q0 -130 -29.5 -220.5t-89 -143t-139.5 -75.5t-191 -23t-190.5 23t-139 75.5t-89 143t-29.5 220.5v459q0 70 70 70h15q70 0 70 -70v-459q0 -179 68 -248t225 -69t225 69t68 248v459zM587 -171q48 0 72.5 -27.5t24.5 -75.5
t-24.5 -75t-72.5 -27t-73 27t-25 75t25 75.5t73 27.5z" />
    <glyph glyph-name="Ygrave" unicode="&#x1ef2;" horiz-adv-x="1269" 
d="M692 1508q19 -36 8.5 -59.5t-45.5 -23.5h-23q-56 0 -83 49l-94 168q-20 37 -8.5 60.5t48.5 23.5h29q57 0 83 -51zM1035 1255q30 45 84 45h34q43 0 56.5 -25t-11.5 -60l-259 -376q-83 -122 -128.5 -173.5t-94.5 -69.5v-526q0 -70 -70 -70h-23q-70 0 -70 70v527
q-49 18 -94.5 69t-127.5 173l-259 376q-25 35 -14 60t51 25h41q54 0 84 -45l257 -387q53 -79 80 -103t64 -24t63.5 24t79.5 103z" />
    <glyph glyph-name="ygrave" unicode="&#x1ef3;" horiz-adv-x="1159" 
d="M637 1181q19 -36 8.5 -59.5t-45.5 -23.5h-23q-56 0 -83 49l-94 168q-20 37 -8.5 60.5t48.5 23.5h29q57 0 83 -51zM865 903q0 70 70 70h16q70 0 70 -70v-957q0 -178 -118 -271t-309 -93q-124 0 -254 39q-58 17 -58 79v4q0 37 21 53t58 6q132 -33 228 -33q127 0 201.5 54
t74.5 162v50q-117 -14 -209 -14q-257 0 -387 118t-130 386v417q0 70 70 70h15q70 0 70 -70v-406q0 -204 85 -287t274 -83q90 0 212 17v759z" />
    <glyph glyph-name="uni1EF8" unicode="&#x1ef8;" horiz-adv-x="1269" 
d="M327 1503q-17 9 -18 28t15 42q72 98 187 98q52 0 97 -22t83.5 -44t72.5 -22q48 0 80 43q26 34 64 16l37 -18q17 -9 18 -28t-15 -42q-73 -99 -187 -99q-52 0 -97.5 22t-83.5 44t-72 22q-48 0 -80 -42q-27 -35 -64 -16zM1035 1255q30 45 84 45h34q43 0 56.5 -25t-11.5 -60
l-259 -376q-83 -122 -128.5 -173.5t-94.5 -69.5v-526q0 -70 -70 -70h-23q-70 0 -70 70v527q-49 18 -94.5 69t-127.5 173l-259 376q-25 35 -14 60t51 25h41q54 0 84 -45l257 -387q53 -79 80 -103t64 -24t63.5 24t79.5 103z" />
    <glyph glyph-name="uni1EF9" unicode="&#x1ef9;" horiz-adv-x="1159" 
d="M272 1176q-17 9 -18 28t15 42q72 98 187 98q52 0 97 -22t83.5 -44t72.5 -22q48 0 80 43q26 34 64 16l37 -18q17 -9 18 -28t-15 -42q-73 -99 -187 -99q-52 0 -97.5 22t-83.5 44t-72 22q-49 0 -80 -42q-27 -35 -64 -16zM865 903q0 70 70 70h16q70 0 70 -70v-957
q0 -178 -118 -271t-309 -93q-124 0 -254 39q-58 17 -58 79v4q0 37 21 53t58 6q132 -33 228 -33q127 0 201.5 54t74.5 162v50q-117 -14 -209 -14q-257 0 -387 118t-130 386v417q0 70 70 70h15q70 0 70 -70v-406q0 -204 85 -287t274 -83q90 0 212 17v759z" />
    <glyph glyph-name="uni2009" unicode="&#x2009;" horiz-adv-x="169" 
 />
    <glyph glyph-name="endash" unicode="&#x2013;" horiz-adv-x="1404" 
d="M196 574q-70 0 -70 70v8q0 70 70 70h1012q70 0 70 -70v-8q0 -70 -70 -70h-1012z" />
    <glyph glyph-name="emdash" unicode="&#x2014;" horiz-adv-x="2044" 
d="M196 574q-70 0 -70 70v8q0 70 70 70h1652q70 0 70 -70v-8q0 -70 -70 -70h-1652z" />
    <glyph glyph-name="quoteleft" unicode="&#x2018;" horiz-adv-x="401" 
d="M266 1323q27 0 38.5 -20t6.5 -55l-55 -355q-11 -64 -75 -64h-33q-37 0 -53.5 21.5t-5.5 57.5l103 356q17 59 74 59z" />
    <glyph glyph-name="quoteright" unicode="&#x2019;" horiz-adv-x="401" 
d="M135 829q-27 0 -38.5 20t-6.5 55l55 355q11 64 75 64h33q37 0 53.5 -21.5t5.5 -57.5l-103 -356q-17 -59 -74 -59z" />
    <glyph glyph-name="quotesinglbase" unicode="&#x201a;" horiz-adv-x="401" 
d="M135 -288q-27 0 -38.5 20t-6.5 55l55 355q11 64 75 64h33q37 0 53.5 -21.5t5.5 -57.5l-103 -356q-17 -59 -74 -59z" />
    <glyph glyph-name="quotedblleft" unicode="&#x201c;" horiz-adv-x="704" 
d="M266 1322q27 0 38.5 -20t6.5 -55l-55 -355q-11 -64 -75 -64h-33q-37 0 -53.5 21.5t-5.5 57.5l103 356q17 59 74 59zM569 1322q27 0 38.5 -20t6.5 -55l-55 -355q-11 -64 -75 -64h-33q-37 0 -53.5 21.5t-5.5 57.5l103 356q17 59 74 59z" />
    <glyph glyph-name="quotedblright" unicode="&#x201d;" horiz-adv-x="704" 
d="M135 829q-27 0 -38.5 20t-6.5 55l55 355q11 64 75 64h33q37 0 53.5 -21.5t5.5 -57.5l-103 -356q-17 -59 -74 -59zM438 829q-27 0 -38.5 20t-6.5 55l55 355q11 64 75 64h33q37 0 53.5 -21.5t5.5 -57.5l-103 -356q-17 -59 -74 -59z" />
    <glyph glyph-name="quotedblbase" unicode="&#x201e;" horiz-adv-x="704" 
d="M135 -288q-27 0 -38.5 20t-6.5 55l55 355q11 64 75 64h33q37 0 53.5 -21.5t5.5 -57.5l-103 -356q-17 -59 -74 -59zM438 -288q-27 0 -38.5 20t-6.5 55l55 355q11 64 75 64h33q37 0 53.5 -21.5t5.5 -57.5l-103 -356q-17 -59 -74 -59z" />
    <glyph glyph-name="dagger" unicode="&#x2020;" horiz-adv-x="1110" 
d="M635 985h267q70 0 70 -70v-12q0 -70 -70 -70h-267l-19 -964q-2 -69 -61 -69t-61 69l-19 964h-266q-70 0 -70 70v12q0 70 70 70h266v245q0 70 70 70h20q70 0 70 -70v-245z" />
    <glyph glyph-name="daggerdbl" unicode="&#x2021;" horiz-adv-x="1110" 
d="M972 903q0 -70 -70 -70h-267l-9 -454h196q70 0 70 -70v-12q0 -70 -70 -70h-199l-7 -358q-2 -69 -61 -69t-61 69l-7 358h-198q-70 0 -70 70v12q0 70 70 70h195l-9 454h-266q-70 0 -70 70v12q0 70 70 70h266v245q0 70 70 70h20q70 0 70 -70v-245h267q70 0 70 -70v-12z" />
    <glyph glyph-name="bullet" unicode="&#x2022;" horiz-adv-x="610" 
d="M305 317q-95 0 -148 55.5t-53 151.5q0 95 53 150t148 55q94 0 147.5 -55t53.5 -150q0 -96 -53 -151.5t-148 -55.5z" />
    <glyph glyph-name="ellipsis" unicode="&#x2026;" horiz-adv-x="1244" 
d="M207 -7q-50 0 -76.5 28t-26.5 78q0 51 26.5 79.5t76.5 28.5q49 0 74.5 -28.5t25.5 -79.5q0 -50 -25.5 -78t-74.5 -28zM623 -7q-50 0 -76.5 28t-26.5 78q0 51 26.5 79.5t76.5 28.5q49 0 74.5 -28.5t25.5 -79.5q0 -50 -25.5 -78t-74.5 -28zM1039 -7q-50 0 -76.5 28
t-26.5 78q0 51 26.5 79.5t76.5 28.5q49 0 74.5 -28.5t25.5 -79.5q0 -50 -25.5 -78t-74.5 -28z" />
    <glyph glyph-name="perthousand" unicode="&#x2030;" horiz-adv-x="2486" 
d="M1058 1304q22 54 81 54h12q39 0 54 -22.5t0 -58.5l-506 -1223q-22 -54 -81 -54h-12q-39 0 -54 22.5t0 58.5zM414 727q-141 0 -220.5 81t-79.5 215q0 133 79.5 214t220.5 81t220 -81t79 -214q0 -134 -79 -215t-220 -81zM414 855q77 0 117.5 45.5t40.5 122.5
q0 76 -40.5 121.5t-117.5 45.5t-118 -45t-41 -122t41 -122.5t118 -45.5zM1343 40q-142 0 -221.5 81t-79.5 215q0 133 80 214t221 81q140 0 219.5 -81t79.5 -214q0 -134 -79.5 -215t-219.5 -81zM2073 40q-141 0 -220.5 81t-79.5 215q0 133 79.5 214t220.5 81t220 -81t79 -214
q0 -134 -79 -215t-220 -81zM1343 168q77 0 117.5 45.5t40.5 122.5q0 76 -40.5 121.5t-117.5 45.5t-118.5 -45.5t-41.5 -121.5q0 -77 41 -122.5t119 -45.5zM2073 168q77 0 117.5 45.5t40.5 122.5q0 76 -40.5 121.5t-117.5 45.5t-118 -45.5t-41 -121.5q0 -77 41 -122.5
t118 -45.5z" />
    <glyph glyph-name="guilsinglleft" unicode="&#x2039;" horiz-adv-x="666" 
d="M451 924q34 0 42.5 -23.5t-11.5 -60.5l-188 -340l188 -340q20 -37 11.5 -60.5t-42.5 -23.5h-22q-56 0 -83 49l-181 327q-26 48 0 96l181 327q27 49 83 49h22z" />
    <glyph glyph-name="guilsinglright" unicode="&#x203a;" horiz-adv-x="666" 
d="M237 924q56 0 83 -49l181 -327q26 -48 0 -96l-181 -327q-27 -49 -83 -49h-4q-41 0 -55 23.5t6 60.5l188 340l-188 340q-20 37 -6 60.5t55 23.5h4z" />
    <glyph glyph-name="fraction" unicode="&#x2044;" horiz-adv-x="404" 
d="M597 1265q25 35 71 35h23q37 0 47 -21t-12 -49l-919 -1195q-25 -35 -71 -35h-23q-37 0 -47 21t12 49z" />
    <glyph glyph-name="Euro" unicode="&#x20ac;" horiz-adv-x="1255" 
d="M1153 1185q0 -34 -21.5 -47.5t-59.5 -3.5q-490 128 -589 -247h364q70 0 70 -70v-2q0 -70 -70 -70h-386q-4 -40 -4 -95t4 -95h386q70 0 70 -70v-2q0 -70 -70 -70h-364q99 -375 589 -247q38 10 59.5 -3.5t21.5 -47.5v-14q0 -62 -59 -80q-308 -89 -512.5 17.5t-266.5 374.5
h-114q-62 0 -62 62v18q0 62 62 62h93q-4 41 -4 95t4 95h-93q-62 0 -62 62v18q0 62 62 62h114q62 268 266.5 374.5t512.5 17.5q59 -18 59 -80v-14z" />
    <glyph glyph-name="uni20BF" unicode="&#x20bf;" horiz-adv-x="1279" 
d="M1163 344q0 -158 -81 -234.5t-253 -98.5v-173q0 -70 -61 -70q-62 0 -62 70v163q-26 -1 -81 -1h-76v-162q0 -70 -62 -70t-62 70v164q-129 11 -183.5 76.5t-54.5 196.5v750q0 131 54.5 196.5t183.5 76.5v164q0 70 62 70t62 -70v-162h32q73 0 125 -4v166q0 70 62 70
q61 0 61 -70v-181q138 -26 204 -97.5t66 -205.5q0 -221 -187 -297q127 -36 189 -118t62 -219zM344 1015v-273h259q183 0 261 46t78 163q0 112 -76.5 155t-262.5 43h-122q-82 0 -109.5 -33t-27.5 -101zM667 151q187 0 263 45.5t76 167.5q0 127 -77 175.5t-262 48.5h-323v-303
q0 -68 27.5 -101t109.5 -33h186z" />
    <glyph glyph-name="uni2113" unicode="&#x2113;" horiz-adv-x="907" 
d="M714 407q44 56 96 12q52 -46 9 -99l-148 -182q-69 -87 -142.5 -126t-132 -28t-98.5 72t-45 164l-83 -104q-45 -57 -94 -10l-1 1q-48 45 -6 98l183 229v466q0 233 132 346q95 81 218 70q112 -10 178 -89q82 -100 35 -249q-30 -93 -110 -193l-311 -389v-164
q0 -96 43 -107.5t110 70.5zM394 912v-301l203 253q103 129 77 228q-16 63 -74 83q-64 22 -122 -26q-84 -70 -84 -237z" />
    <glyph glyph-name="uni2116" unicode="&#x2116;" horiz-adv-x="2261" 
d="M1804 556q-167 0 -255 97.5t-88 278.5t88 278.5t255 97.5t255.5 -97.5t88.5 -278.5t-88.5 -278.5t-255.5 -97.5zM257 0q-70 0 -70 70v1016q0 125 43.5 169.5t143.5 44.5q79 0 129.5 -37t99.5 -153l406 -907q13 -29 24 -39t27 -10q38 0 38 53v1023q0 70 70 70h18
q70 0 70 -70v-1016q0 -125 -43.5 -169.5t-143.5 -44.5q-79 0 -129.5 37t-99.5 153l-407 907q-12 28 -23 38.5t-27 10.5q-38 0 -38 -53v-1023q0 -70 -70 -70h-18zM1804 688q195 0 195 244t-195 244q-95 0 -145 -61.5t-50 -182.5t50 -182.5t145 -61.5zM1483 351q0 70 70 70
h503q70 0 70 -70v-1q0 -70 -70 -70h-503q-70 0 -70 70v1z" />
    <glyph glyph-name="trademark" unicode="&#x2122;" horiz-adv-x="1348" 
d="M1290 743q6 -40 -34 -40h-41q-37 0 -40 35l-45 345q-4 23 -18 23q-13 0 -19 -21l-73 -317q-9 -38 -26 -51.5t-58 -13.5q-42 0 -59 13t-26 52l-73 317q-6 21 -19 21q-14 0 -17 -23l-46 -345q-3 -35 -39 -35h-41q-39 0 -35 40l75 473q13 89 92 89q80 0 99 -85l70 -316
q5 -21 19 -21q13 0 18 21l71 316q19 85 98 85t93 -89zM508 1300q37 0 37 -37v-29q0 -17 -10 -27.5t-27 -10.5h-154v-453q0 -17 -10 -27.5t-27 -10.5h-37q-18 0 -28 10.5t-10 27.5v453h-153q-17 0 -27 10.5t-10 27.5v29q0 37 37 37h419z" />
    <glyph glyph-name="uni2126" unicode="&#x2126;" horiz-adv-x="1420" 
d="M1190 138q56 0 56 -56v-26q0 -56 -56 -56h-310q-70 0 -70 70v188q0 60 63 75q125 33 200 134.5t75 256.5q0 125 -47.5 223.5t-148 159t-241.5 60.5q-210 0 -324.5 -125t-114.5 -318q0 -155 75.5 -256.5t200.5 -134.5q63 -15 63 -75v-188q0 -70 -70 -70h-310q-56 0 -56 56
v26q0 56 56 56h232v86q-163 51 -256 188t-93 332q0 253 158 413.5t439 160.5q188 0 324 -76t203.5 -204.5t67.5 -293.5q0 -195 -92.5 -332t-255.5 -188v-86h232z" />
    <glyph glyph-name="uni2150" unicode="&#x2150;" horiz-adv-x="1768" 
d="M35 1229q0 46 50 56l37 6q151 23 209.5 -29t58.5 -208v-550q0 -51 -52 -51h-35q-52 0 -52 51v530q0 82 -25.5 106t-100.5 13l-36 -5q-54 -6 -54 45v36zM1209 1265q25 35 71 35h23q37 0 47 -21t-12 -49l-919 -1195q-25 -35 -71 -35h-23q-37 0 -47 21t12 49zM1702 664
l-287 -627q-17 -35 -54 -35h-62q-26 0 -36 15t0 39l277 602q12 27 2 41t-38 14h-271q-46 0 -46 46v43q0 46 46 46h363q84 0 114 -48.5t-8 -135.5z" />
    <glyph glyph-name="uni2151" unicode="&#x2151;" horiz-adv-x="1793" 
d="M338 453h-35q-52 0 -52 51v530q0 82 -25.5 106t-100.5 13l-36 -5q-54 -6 -54 45v36q0 46 50 56l37 6q151 23 209.5 -29t58.5 -208v-550q0 -51 -52 -51zM1303 1300q37 0 47 -21t-12 -49l-919 -1195q-25 -35 -71 -35h-23q-37 0 -47 21t12 49l919 1195q25 35 71 35h23z
M1396 858q163 0 243.5 -111.5t80.5 -322.5q0 -209 -91 -321.5t-242 -112.5q-83 0 -172 38q-37 14 -37 53v30q0 24 14 34.5t39 3.5q77 -28 141 -28q97 0 147 55t60 178q-230 -51 -349 13t-119 221q0 129 76.5 199.5t208.5 70.5zM1249 588q0 -97 79.5 -121t251.5 19
q-8 127 -53.5 185.5t-130.5 58.5q-69 0 -108 -35t-39 -107z" />
    <glyph glyph-name="uni2152" unicode="&#x2152;" horiz-adv-x="2487" 
d="M35 1229q0 46 50 56l37 6q151 23 209.5 -29t58.5 -208v-550q0 -51 -52 -51h-35q-52 0 -52 51v530q0 82 -25.5 106t-100.5 13l-36 -5q-54 -6 -54 45v36zM1209 1265q25 35 71 35h23q37 0 47 -21t-12 -49l-919 -1195q-25 -35 -71 -35h-23q-37 0 -47 21t12 49zM1747 424
q0 207 87.5 320.5t246.5 113.5t246 -113.5t87 -320.5t-87 -320.5t-246 -113.5t-246.5 113.5t-87.5 320.5zM1167 777q0 46 50 56l37 6q151 23 209.5 -29t58.5 -208v-550q0 -51 -52 -51h-35q-52 0 -52 51v530q0 82 -25.5 106t-100.5 13l-36 -5q-54 -6 -54 45v36zM1888 424
q0 -300 193 -300q192 0 192 300t-192 300q-193 0 -193 -300z" />
    <glyph glyph-name="uni2153" unicode="&#x2153;" horiz-adv-x="1810" 
d="M35 1229q0 46 50 56l37 6q151 23 209.5 -29t58.5 -208v-550q0 -51 -52 -51h-35q-52 0 -52 51v530q0 82 -25.5 106t-100.5 13l-36 -5q-54 -6 -54 45v36zM1209 1265q25 35 71 35h23q37 0 47 -21t-12 -49l-919 -1195q-25 -35 -71 -35h-23q-37 0 -47 21t12 49zM1394 367h-54
q-47 0 -47 46v29q0 46 47 46h54q190 0 190 116q0 59 -51 88.5t-131.5 28t-173.5 -30.5q-54 -11 -54 38v35q0 41 37 53q92 30 183.5 34t164.5 -17t119 -74.5t46 -130.5q0 -70 -36 -121.5t-103 -78.5q74 -25 113.5 -79t39.5 -128q0 -80 -47 -134.5t-122.5 -76t-168.5 -17.5
t-187 35q-39 12 -39 52v34q0 24 14.5 33.5t38.5 4.5q97 -29 180.5 -30.5t137 30t53.5 93.5q0 122 -204 122z" />
    <glyph glyph-name="uni2154" unicode="&#x2154;" horiz-adv-x="1979" 
d="M77 587q0 67 62 118l218 175q64 50 89 89.5t25 78.5q0 50 -33 84t-103 44.5t-178 -23.5q-25 -7 -40 3t-15 34v33q0 40 38 53q134 40 238.5 25.5t168.5 -78.5t64 -159q0 -71 -42 -141.5t-143 -151.5l-162 -132q-19 -15 -19 -30q0 -21 34 -21h279q46 0 46 -46v-42
q0 -46 -46 -46h-342q-64 0 -101.5 39.5t-37.5 93.5zM1378 1265q25 35 71 35h23q37 0 47 -21t-12 -49l-919 -1195q-25 -35 -71 -35h-23q-37 0 -47 21t12 49zM1563 367h-54q-47 0 -47 46v29q0 46 47 46h54q190 0 190 116q0 59 -51 88.5t-131.5 28t-173.5 -30.5q-54 -11 -54 38
v35q0 41 37 53q92 30 183.5 34t164.5 -17t119 -74.5t46 -130.5q0 -70 -36 -121.5t-103 -78.5q74 -25 113.5 -79t39.5 -128q0 -80 -47 -134.5t-122.5 -76t-168.5 -17.5t-187 35q-39 12 -39 52v34q0 24 14.5 33.5t38.5 4.5q97 -29 180.5 -30.5t137 30t53.5 93.5
q0 122 -204 122z" />
    <glyph glyph-name="uni2155" unicode="&#x2155;" horiz-adv-x="1713" 
d="M338 453h-35q-52 0 -52 51v530q0 82 -25.5 106t-100.5 13l-36 -5q-54 -6 -54 45v36q0 46 50 56l37 6q151 23 209.5 -29t58.5 -208v-550q0 -51 -52 -51zM1303 1300q37 0 47 -21t-12 -49l-919 -1195q-25 -35 -71 -35h-23q-37 0 -47 21t12 49l919 1195q25 35 71 35h23z
M1341 509q150 0 237 -64.5t87 -195.5q0 -86 -39 -145.5t-106 -85.5t-157 -28t-191 27q-39 9 -39 50v35q0 24 14 35t39 5q147 -42 244 -13.5t97 121.5q0 136 -230 136q-51 0 -96 -4q-37 -2 -55 16.5t-13 55.5l36 251q10 71 59 107t123 36h234q46 0 46 -46v-37q0 -47 -46 -47
h-226q-49 0 -56 -43l-24 -168q42 2 62 2z" />
    <glyph glyph-name="uni2156" unicode="&#x2156;" horiz-adv-x="1882" 
d="M604 500q0 -46 -46 -46h-342q-64 0 -101.5 39.5t-37.5 93.5q0 67 62 118l218 175q64 50 89 89.5t25 78.5q0 50 -33 84t-103 44.5t-178 -23.5q-25 -7 -40 3t-15 34v33q0 40 38 53q134 40 238.5 25.5t168.5 -78.5t64 -159q0 -71 -42 -141.5t-143 -151.5l-162 -132
q-19 -15 -19 -30q0 -21 34 -21h279q46 0 46 -46v-42zM1472 1300q37 0 47 -21t-12 -49l-919 -1195q-25 -35 -71 -35h-23q-37 0 -47 21t12 49l919 1195q25 35 71 35h23zM1510 509q150 0 237 -64.5t87 -195.5q0 -86 -39 -145.5t-106 -85.5t-157 -28t-191 27q-39 9 -39 50v35
q0 24 14 35t39 5q147 -42 244 -13.5t97 121.5q0 136 -230 136q-51 0 -96 -4q-37 -2 -55 16.5t-13 55.5l36 251q10 71 59 107t123 36h234q46 0 46 -46v-37q0 -47 -46 -47h-226q-49 0 -56 -43l-24 -168q42 2 62 2z" />
    <glyph glyph-name="uni2157" unicode="&#x2157;" horiz-adv-x="1849" 
d="M640 673q0 -80 -47 -134.5t-122.5 -76t-168.5 -17.5t-187 35q-39 12 -39 52v34q0 24 14.5 33.5t38.5 4.5q97 -29 180.5 -30.5t137 30t53.5 93.5q0 122 -204 122h-54q-47 0 -47 46v29q0 46 47 46h54q190 0 190 116q0 59 -51 88.5t-131.5 28t-173.5 -30.5q-54 -11 -54 38
v35q0 41 37 53q92 30 183.5 34t164.5 -17t119 -74.5t46 -130.5q0 -70 -36 -121.5t-103 -78.5q74 -25 113.5 -79t39.5 -128zM1439 1300q37 0 47 -21t-12 -49l-919 -1195q-25 -35 -71 -35h-23q-37 0 -47 21t12 49l919 1195q25 35 71 35h23zM1477 509q150 0 237 -64.5
t87 -195.5q0 -86 -39 -145.5t-106 -85.5t-157 -28t-191 27q-39 9 -39 50v35q0 24 14 35t39 5q147 -42 244 -13.5t97 121.5q0 136 -230 136q-51 0 -96 -4q-37 -2 -55 16.5t-13 55.5l36 251q10 71 59 107t123 36h234q46 0 46 -46v-37q0 -47 -46 -47h-226q-49 0 -56 -43
l-24 -168q42 2 62 2z" />
    <glyph glyph-name="uni2158" unicode="&#x2158;" horiz-adv-x="1890" 
d="M471 500v178h-319q-83 0 -113.5 56t9.5 128l216 405q18 33 54 33h45q26 0 36.5 -16t-2.5 -39l-205 -384q-13 -26 -3.5 -41t40.5 -15h242v184q0 46 46 46h40q46 0 46 -46v-489q0 -46 -46 -46h-40q-46 0 -46 46zM1480 1300q37 0 47 -21t-12 -49l-919 -1195q-25 -35 -71 -35
h-23q-37 0 -47 21t12 49l919 1195q25 35 71 35h23zM1518 509q150 0 237 -64.5t87 -195.5q0 -86 -39 -145.5t-106 -85.5t-157 -28t-191 27q-39 9 -39 50v35q0 24 14 35t39 5q147 -42 244 -13.5t97 121.5q0 136 -230 136q-51 0 -96 -4q-37 -2 -55 16.5t-13 55.5l36 251
q10 71 59 107t123 36h234q46 0 46 -46v-37q0 -47 -46 -47h-226q-49 0 -56 -43l-24 -168q42 2 62 2z" />
    <glyph glyph-name="uni2159" unicode="&#x2159;" horiz-adv-x="1757" 
d="M338 453h-35q-52 0 -52 51v530q0 82 -25.5 106t-100.5 13l-36 -5q-54 -6 -54 45v36q0 46 50 56l37 6q151 23 209.5 -29t58.5 -208v-550q0 -51 -52 -51zM1303 1300q37 0 47 -21t-12 -49l-919 -1195q-25 -35 -71 -35h-23q-37 0 -47 21t12 49l919 1195q25 35 71 35h23z
M1230 494q230 51 349 -13t119 -221q0 -129 -76.5 -199.5t-208.5 -70.5q-163 0 -243.5 111.5t-80.5 322.5q0 209 91 321.5t242 112.5q83 0 172 -38q37 -14 37 -53v-30q0 -24 -14 -34.5t-39 -3.5q-77 28 -141 28q-97 0 -147 -55t-60 -178zM1413 118q69 0 108 35t39 107
q0 97 -79.5 121t-251.5 -19q8 -127 53.5 -185.5t130.5 -58.5z" />
    <glyph glyph-name="uni215A" unicode="&#x215a;" horiz-adv-x="1858" 
d="M615 701q0 -86 -39 -145.5t-106 -85.5t-157 -28t-191 27q-39 9 -39 50v35q0 24 14 35t39 5q147 -42 244 -13.5t97 121.5q0 136 -230 136q-51 0 -96 -4q-37 -2 -55 16.5t-13 55.5l36 251q10 71 59 107t123 36h234q46 0 46 -46v-37q0 -47 -46 -47h-226q-49 0 -56 -43
l-24 -168q42 2 62 2q150 0 237 -64.5t87 -195.5zM1404 1300q37 0 47 -21t-12 -49l-919 -1195q-25 -35 -71 -35h-23q-37 0 -47 21t12 49l919 1195q25 35 71 35h23zM1331 494q230 51 349 -13t119 -221q0 -129 -76.5 -199.5t-208.5 -70.5q-163 0 -243.5 111.5t-80.5 322.5
q0 209 91 321.5t242 112.5q83 0 172 -38q37 -14 37 -53v-30q0 -24 -14 -34.5t-39 -3.5q-77 28 -141 28q-97 0 -147 -55t-60 -178zM1514 118q69 0 108 35t39 107q0 97 -79.5 121t-251.5 -19q8 -127 53.5 -185.5t130.5 -58.5z" />
    <glyph glyph-name="oneeighth" unicode="&#x215b;" horiz-adv-x="1825" 
d="M338 453h-35q-52 0 -52 51v530q0 82 -25.5 106t-100.5 13l-36 -5q-54 -6 -54 45v36q0 46 50 56l37 6q151 23 209.5 -29t58.5 -208v-550q0 -51 -52 -51zM1303 1300q37 0 47 -21t-12 -49l-919 -1195q-25 -35 -71 -35h-23q-37 0 -47 21t12 49l919 1195q25 35 71 35h23z
M1568 451q90 -25 138 -81.5t48 -140.5q0 -114 -88 -176.5t-247 -62.5q-158 0 -244.5 62.5t-86.5 176.5q0 83 47 140t136 82q-144 50 -144 193q0 103 76 158.5t216 55.5t216.5 -55.5t76.5 -158.5q0 -143 -144 -193zM1419 743q-152 0 -152 -107q0 -109 152 -109t152 109
q0 107 -152 107zM1419 117q195 0 192 124q-2 126 -192 126t-190 -126q0 -124 190 -124z" />
    <glyph glyph-name="threeeighths" unicode="&#x215c;" horiz-adv-x="1961" 
d="M640 673q0 -80 -47 -134.5t-122.5 -76t-168.5 -17.5t-187 35q-39 12 -39 52v34q0 24 14.5 33.5t38.5 4.5q97 -29 180.5 -30.5t137 30t53.5 93.5q0 122 -204 122h-54q-47 0 -47 46v29q0 46 47 46h54q190 0 190 116q0 59 -51 88.5t-131.5 28t-173.5 -30.5q-54 -11 -54 38
v35q0 41 37 53q92 30 183.5 34t164.5 -17t119 -74.5t46 -130.5q0 -70 -36 -121.5t-103 -78.5q74 -25 113.5 -79t39.5 -128zM1439 1300q37 0 47 -21t-12 -49l-919 -1195q-25 -35 -71 -35h-23q-37 0 -47 21t12 49l919 1195q25 35 71 35h23zM1704 451q90 -25 138 -81.5
t48 -140.5q0 -114 -88 -176.5t-247 -62.5q-158 0 -244.5 62.5t-86.5 176.5q0 83 47 140t136 82q-144 50 -144 193q0 103 76 158.5t216 55.5t216.5 -55.5t76.5 -158.5q0 -143 -144 -193zM1555 743q-152 0 -152 -107q0 -109 152 -109t152 109q0 107 -152 107zM1555 117
q195 0 192 124q-2 126 -192 126t-190 -126q0 -124 190 -124z" />
    <glyph glyph-name="fiveeighths" unicode="&#x215d;" horiz-adv-x="1926" 
d="M615 701q0 -86 -39 -145.5t-106 -85.5t-157 -28t-191 27q-39 9 -39 50v35q0 24 14 35t39 5q147 -42 244 -13.5t97 121.5q0 136 -230 136q-51 0 -96 -4q-37 -2 -55 16.5t-13 55.5l36 251q10 71 59 107t123 36h234q46 0 46 -46v-37q0 -47 -46 -47h-226q-49 0 -56 -43
l-24 -168q42 2 62 2q150 0 237 -64.5t87 -195.5zM1404 1300q37 0 47 -21t-12 -49l-919 -1195q-25 -35 -71 -35h-23q-37 0 -47 21t12 49l919 1195q25 35 71 35h23zM1669 451q90 -25 138 -81.5t48 -140.5q0 -114 -88 -176.5t-247 -62.5q-158 0 -244.5 62.5t-86.5 176.5
q0 83 47 140t136 82q-144 50 -144 193q0 103 76 158.5t216 55.5t216.5 -55.5t76.5 -158.5q0 -143 -144 -193zM1520 743q-152 0 -152 -107q0 -109 152 -109t152 109q0 107 -152 107zM1520 117q195 0 192 124q-2 126 -192 126t-190 -126q0 -124 190 -124z" />
    <glyph glyph-name="seveneighths" unicode="&#x215e;" horiz-adv-x="1767" 
d="M253 489q-17 -35 -54 -35h-62q-26 0 -36 15t0 39l277 602q12 27 2 41t-38 14h-271q-46 0 -46 46v43q0 46 46 46h363q84 0 114 -48.5t-8 -135.5zM1245 1300q37 0 47 -21t-12 -49l-919 -1195q-25 -35 -71 -35h-23q-37 0 -47 21t12 49l919 1195q25 35 71 35h23zM1510 451
q90 -25 138 -81.5t48 -140.5q0 -114 -88 -176.5t-247 -62.5q-158 0 -244.5 62.5t-86.5 176.5q0 83 47 140t136 82q-144 50 -144 193q0 103 76 158.5t216 55.5t216.5 -55.5t76.5 -158.5q0 -143 -144 -193zM1361 743q-152 0 -152 -107q0 -109 152 -109t152 109q0 107 -152 107
zM1361 117q195 0 192 124q-2 126 -192 126t-190 -126q0 -124 190 -124z" />
    <glyph glyph-name="uni215F" unicode="&#x215f;" horiz-adv-x="1016" 
d="M35 1229q0 46 50 56l37 6q151 23 209.5 -29t58.5 -208v-550q0 -51 -52 -51h-35q-52 0 -52 51v530q0 82 -25.5 106t-100.5 13l-36 -5q-54 -6 -54 45v36zM1209 1265q25 35 71 35h23q37 0 47 -21t-12 -49l-919 -1195q-25 -35 -71 -35h-23q-37 0 -47 21t12 49z" />
    <glyph glyph-name="uni2189" unicode="&#x2189;" horiz-adv-x="2011" 
d="M73 876q0 207 87.5 320.5t246.5 113.5t246 -113.5t87 -320.5t-87 -320.5t-246 -113.5t-246.5 113.5t-87.5 320.5zM1410 1265q25 35 71 35h23q37 0 47 -21t-12 -49l-919 -1195q-25 -35 -71 -35h-23q-37 0 -47 21t12 49zM214 876q0 -300 193 -300q192 0 192 300t-192 300
q-193 0 -193 -300zM1595 367h-54q-47 0 -47 46v29q0 46 47 46h54q190 0 190 116q0 59 -51 88.5t-131.5 28t-173.5 -30.5q-54 -11 -54 38v35q0 41 37 53q92 30 183.5 34t164.5 -17t119 -74.5t46 -130.5q0 -70 -36 -121.5t-103 -78.5q74 -25 113.5 -79t39.5 -128
q0 -80 -47 -134.5t-122.5 -76t-168.5 -17.5t-187 35q-39 12 -39 52v34q0 24 14.5 33.5t38.5 4.5q97 -29 180.5 -30.5t137 30t53.5 93.5q0 122 -204 122z" />
    <glyph glyph-name="arrowleft" unicode="&#x2190;" horiz-adv-x="1639" 
d="M1431 723q70 0 70 -70v-6q0 -70 -70 -70h-1075l313 -309q22 -22 28.5 -42t-4 -32t-35.5 -12h-47q-50 0 -86 37l-364 382q-46 49 0 98l364 382q34 37 86 37h22q47 0 58.5 -26t-22.5 -60l-313 -309h1075z" />
    <glyph glyph-name="arrowup" unicode="&#x2191;" horiz-adv-x="1213" 
d="M1038 956q37 -36 37 -86v-22q0 -47 -26.5 -58.5t-59.5 22.5l-309 313v-1075q0 -70 -70 -70h-6q-70 0 -70 70v1075l-309 -313q-21 -22 -41.5 -28.5t-32.5 4t-12 35.5v47q0 50 37 86l382 364q49 47 98 0z" />
    <glyph glyph-name="arrowright" unicode="&#x2192;" horiz-adv-x="1639" 
d="M1028 1118q50 0 86 -37l364 -382q46 -49 0 -98l-364 -382q-34 -37 -86 -37h-22q-47 0 -58.5 26t22.5 60l313 309h-1075q-70 0 -70 70v6q0 70 70 70h1075l-313 309q-34 34 -22.5 60t58.5 26h22z" />
    <glyph glyph-name="arrowdown" unicode="&#x2193;" horiz-adv-x="1213" 
d="M680 175l309 313q21 22 41.5 28.5t32.5 -4t12 -35.5v-47q0 -50 -37 -86l-382 -364q-49 -47 -98 0l-382 364q-37 36 -37 86v22q0 47 26.5 58.5t59.5 -22.5l309 -313v1075q0 70 70 70h6q70 0 70 -70v-1075z" />
    <glyph glyph-name="arrowboth" unicode="&#x2194;" horiz-adv-x="1710" 
d="M1153 1118q53 0 86 -40l317 -379q40 -49 0 -98l-317 -379q-33 -40 -86 -40h-10q-45 0 -56.5 26t17.5 60l265 309h-1027l265 -309q19 -23 24 -42.5t-4.5 -31.5t-32.5 -12h-36q-53 0 -86 40l-317 379q-40 49 0 98l317 379q33 40 86 40h10q45 0 56.5 -26t-17.5 -60
l-265 -309h1027l-265 309q-29 34 -17.5 60t56.5 26h10z" />
    <glyph glyph-name="arrowupdn" unicode="&#x2195;" horiz-adv-x="1213" 
d="M1075 936q0 -35 -25.5 -39.5t-60.5 25.5l-309 265v-1027l309 265q23 20 42.5 25t31.5 -5t12 -33v-36q0 -52 -40 -86l-379 -317q-49 -40 -98 0l-379 317q-40 34 -40 86v10q0 45 25.5 57t60.5 -18l309 -265v1027l-309 -265q-22 -20 -42 -24.5t-32 5.5t-12 33v35q0 52 40 86
l379 317q49 40 98 0l379 -317q40 -34 40 -86v-35z" />
    <glyph glyph-name="uni2196" unicode="&#x2196;" horiz-adv-x="1324" 
d="M1137 265q49 -49 0 -99l-5 -5q-49 -49 -98 0l-760 760l2 -439q0 -47 -21 -63t-47 10l-34 33q-36 36 -35 87l13 528q2 68 70 70l527 12q51 1 87 -35l15 -15q34 -34 23 -60t-58 -26l-439 2z" />
    <glyph glyph-name="uni2197" unicode="&#x2197;" horiz-adv-x="1324" 
d="M1185 549q1 -51 -35 -87l-16 -16q-33 -33 -59.5 -22t-26.5 58l2 439l-759 -759q-50 -50 -99 0l-5 5q-49 49 0 98l760 760l-439 -2q-47 0 -63.5 20.5t10.5 47.5l33 33q36 36 87 35l527 -12q68 -2 70 -70z" />
    <glyph glyph-name="uni2198" unicode="&#x2198;" horiz-adv-x="1324" 
d="M1048 747q0 46 21.5 62.5t47.5 -9.5l33 -33q36 -36 35 -87l-13 -528q-2 -68 -70 -70l-527 -12q-51 -1 -87 35l-15 15q-34 34 -23 60t58 26l439 -2l-760 760q-49 49 0 99l5 5q49 49 98 0l760 -760z" />
    <glyph glyph-name="uni2199" unicode="&#x2199;" horiz-adv-x="1324" 
d="M1137 1063q49 -50 0 -99l-760 -760l439 2q48 0 64.5 -20.5t-10.5 -47.5l-34 -33q-36 -36 -87 -35l-527 12q-68 2 -70 70l-13 528q-1 51 35 87l16 16q33 33 59.5 22t26.5 -58l-2 -439l760 760q49 49 98 0z" />
    <glyph glyph-name="partialdiff" unicode="&#x2202;" horiz-adv-x="1166" 
d="M278 1179q0 59 54 81q166 68 299.5 56.5t227 -89.5t143.5 -225.5t50 -351.5q0 -668 -501 -668q-205 0 -321 108.5t-116 306.5q0 168 85 267t258 123t434 -43q-16 284 -145 374.5t-386 7.5q-38 -12 -60 2t-22 51zM551 133q163 0 247.5 109.5t94.5 344.5q-152 41 -265 51.5
t-194 -10t-121.5 -78t-40.5 -153.5q0 -130 72.5 -197t206.5 -67z" />
    <glyph glyph-name="emptyset" unicode="&#x2205;" horiz-adv-x="1331" 
d="M1094 973q117 -147 117 -335q0 -148 -73 -273t-198 -198t-273 -73q-188 0 -335 117l-67 -67q-50 -50 -96 -2q-47 47 2 96l67 67q-114 148 -114 333q0 146 73 271t198 198t272 73q186 0 332 -114l67 67q51 51 97 3q45 -49 -3 -97zM252 638q0 -133 78 -241l578 578
q-109 77 -241 77q-171 0 -293 -122t-122 -292zM667 222q171 0 293.5 122t122.5 294q0 135 -81 243l-579 -579q110 -80 244 -80z" />
    <glyph glyph-name="uni2206" unicode="&#x2206;" horiz-adv-x="1301" 
d="M677 1300q59 0 81 -55l469 -1164q15 -36 -0.5 -58.5t-54.5 -22.5h-1043q-39 0 -54 22.5t-1 58.5l468 1164q22 55 81 55h54zM273 151h754l-377 936z" />
    <glyph glyph-name="product" unicode="&#x220f;" horiz-adv-x="1466" 
d="M257 0q-70 0 -70 70v955q0 144 67 209.5t229 65.5h501q162 0 229 -65.5t67 -209.5v-955q0 -70 -70 -70h-19q-70 0 -70 70v945q0 68 -30.5 101t-121.5 33h-472q-91 0 -121.5 -33t-30.5 -101v-945q0 -70 -70 -70h-18z" />
    <glyph glyph-name="summation" unicode="&#x2211;" horiz-adv-x="1379" 
d="M1123 1300q70 0 70 -70v-11q0 -70 -70 -70h-698l298 -450q32 -49 0 -98l-298 -450h698q70 0 70 -70v-11q0 -70 -70 -70h-866q-70 0 -70 41q0 40 26 80l355 529l-355 529q-26 40 -26 80q0 41 70 41h866z" />
    <glyph glyph-name="minus" unicode="&#x2212;" horiz-adv-x="1290" 
d="M196 574q-70 0 -70 70v8q0 70 70 70h897q70 0 70 -70v-8q0 -70 -70 -70h-897z" />
    <glyph glyph-name="radical" unicode="&#x221a;" horiz-adv-x="1387" 
d="M1227 1300q70 0 70 -70v-11q0 -70 -70 -70h-196l-414 -1094q-21 -55 -80 -55h-56q-60 0 -81 54l-261 639q-15 36 0.5 58.5t54.5 22.5h28q60 0 80 -55l205 -534l385 1059q20 56 80 56h255z" />
    <glyph glyph-name="infinity" unicode="&#x221e;" horiz-adv-x="1277" 
d="M970 867q81 0 140 -42.5t86 -106t27 -137.5t-27 -137.5t-86 -106t-140 -42.5q-51 0 -98.5 16t-89.5 46.5t-74 62t-70 76.5q-38 -45 -70 -76.5t-74 -62t-89.5 -46.5t-98.5 -16q-61 0 -110.5 24.5t-80 65t-47 91.5t-16.5 105t16.5 105t47 91.5t80 65t110.5 24.5
q51 0 98.5 -16t89.5 -46.5t74 -62t70 -76.5q38 45 70 76.5t74 62t89.5 46.5t98.5 16zM331 416q62 0 115 41.5t122 123.5q-69 82 -122 123.5t-115 41.5q-39 0 -69.5 -18t-46.5 -47.5t-23.5 -64.5t0 -70t23.5 -64.5t46.5 -47.5t69.5 -18zM945 416q39 0 69.5 18t46.5 47.5
t23.5 64.5t0 70t-23.5 64.5t-46.5 47.5t-69.5 18q-62 0 -115 -41.5t-122 -123.5q69 -82 122 -123.5t115 -41.5z" />
    <glyph glyph-name="integral" unicode="&#x222b;" horiz-adv-x="710" 
d="M655 1401q35 -11 35 -54v-34q0 -49 -62 -49q-9 0 -33.5 4t-41.5 4q-119 0 -119 -176v-1096q0 -210 -103.5 -287t-275.5 -18q-35 11 -35 54v34q0 49 62 49q9 0 33.5 -4t41.5 -4q119 0 119 176v1096q0 210 103.5 287t275.5 18z" />
    <glyph glyph-name="approxequal" unicode="&#x2248;" horiz-adv-x="1290" 
d="M208 825q-38 -18 -60 -9.5t-22 41.5v20q0 59 49 83q108 52 215 52q70 0 141 -25t121 -55t119 -55t136 -25q88 0 175 39q38 18 60 9.5t22 -41.5v-21q0 -59 -50 -83q-108 -51 -214 -51q-70 0 -141 25t-121 55t-119 55t-136 25q-88 0 -175 -39zM208 403q-38 -18 -60 -9
t-22 42v20q0 59 50 83q108 51 214 51q70 0 141 -25t121 -55t119 -55t136 -25q88 0 175 39q38 18 60 9.5t22 -41.5v-21q0 -59 -50 -83q-108 -51 -214 -51q-70 0 -141 25t-121 55t-119 55t-136 25q-88 0 -175 -39z" />
    <glyph glyph-name="notequal" unicode="&#x2260;" horiz-adv-x="1290" 
d="M1163 863q0 -70 -70 -70h-269l-160 -290h429q70 0 70 -70v-8q0 -70 -70 -70h-511l-153 -277q-33 -62 -91 -28t-24 94l116 211h-234q-70 0 -70 70v8q0 70 70 70h316l160 290h-476q-70 0 -70 70v8q0 70 70 70h558l133 240q33 62 91 29q57 -34 24 -94l-97 -175h188
q70 0 70 -70v-8z" />
    <glyph glyph-name="lessequal" unicode="&#x2264;" horiz-adv-x="975" 
d="M794 1129q36 17 59 5t23 -48v-23q0 -57 -53 -81l-476 -209l476 -209q53 -24 53 -81v-13q0 -40 -23 -54.5t-59 1.5l-666 309q-41 20 -41 47t41 47zM142 114q-70 0 -70 70v8q0 70 70 70h664q70 0 70 -70v-8q0 -70 -70 -70h-664z" />
    <glyph glyph-name="greaterequal" unicode="&#x2265;" horiz-adv-x="975" 
d="M99 1086q0 36 23 48t59 -5l666 -309q41 -20 41 -47t-41 -47l-666 -309q-36 -17 -59 -5t-23 48v23q0 57 53 81l476 209l-476 209q-53 24 -53 81v23zM169 114q-70 0 -70 70v8q0 70 70 70h664q70 0 70 -70v-8q0 -70 -70 -70h-664z" />
    <glyph glyph-name="lozenge" unicode="&#x25ca;" horiz-adv-x="1335" 
d="M146 601q-32 49 0 98l333 511q32 50 75.5 70t113.5 20t114.5 -20t75.5 -70l332 -511q31 -49 0 -98l-332 -511q-29 -50 -74 -70t-116 -20t-115 20t-74 70zM305 650l314 -481q30 -48 49 -48q20 0 50 48l312 481l-312 481q-30 48 -50 48q-19 0 -49 -48z" />
    <glyph glyph-name="uni00A40301" horiz-adv-x="883" 
d="M662 1675q26 51 83 51h19q41 0 55.5 -23.5t-5.5 -60.5l-94 -168q-27 -49 -83 -49h-9q-41 0 -55.5 23.5t4.5 59.5zM530 379v851q0 70 70 70h20q70 0 70 -70v-851q0 -132 -42.5 -220t-118 -127.5t-180.5 -47.5t-229 20q-50 9 -50 60v34q0 27 16.5 41t44.5 10
q209 -35 304 14t95 216z" />
    <glyph glyph-name="N.ss03" horiz-adv-x="1432" 
d="M1245 70q0 -70 -70 -70h-19q-70 0 -70 70v746q0 179 -88 265t-282 86t-282.5 -86t-88.5 -265v-746q0 -70 -70 -70h-18q-70 0 -70 70v736q0 259 124.5 385.5t404.5 126.5t404.5 -126.5t124.5 -385.5v-736z" />
    <glyph glyph-name="Nacute.ss03" horiz-adv-x="1432" 
d="M720 1425q-35 0 -45.5 23.5t8.5 59.5l85 167q26 51 83 51h19q41 0 55.5 -23.5t-5.5 -60.5l-94 -168q-27 -49 -83 -49h-23zM1245 70q0 -70 -70 -70h-19q-70 0 -70 70v746q0 179 -88 265t-282 86t-282.5 -86t-88.5 -265v-746q0 -70 -70 -70h-18q-70 0 -70 70v736
q0 259 124.5 385.5t404.5 126.5t404.5 -126.5t124.5 -385.5v-736z" />
    <glyph glyph-name="Ncaron.ss03" horiz-adv-x="1432" 
d="M1011 1667q28 -45 -34 -80l-213 -122q-48 -28 -96 0l-213 121q-61 35 -33 81q27 46 88 16l207 -101l206 101q61 30 88 -16zM716 1318q280 0 404.5 -126.5t124.5 -385.5v-736q0 -70 -70 -70h-19q-70 0 -70 70v746q0 179 -88 265t-282 86t-282.5 -86t-88.5 -265v-746
q0 -70 -70 -70h-18q-70 0 -70 70v736q0 259 124.5 385.5t404.5 126.5z" />
    <glyph glyph-name="uni0145.ss03" horiz-adv-x="1432" 
d="M1245 70q0 -70 -70 -70h-19q-70 0 -70 70v746q0 179 -88 265t-282 86t-282.5 -86t-88.5 -265v-746q0 -70 -70 -70h-18q-70 0 -70 70v736q0 259 124.5 385.5t404.5 126.5t404.5 -126.5t124.5 -385.5v-736zM659 -483q-30 0 -44.5 20t-8.5 55l34 205q11 64 75 64h12
q37 0 53.5 -20.5t7.5 -57.5l-50 -205q-15 -61 -77 -61h-2z" />
    <glyph glyph-name="Eng.ss03" horiz-adv-x="1432" 
d="M716 1318q280 0 404.5 -126.5t124.5 -385.5v-868q0 -95 -23 -164.5t-64.5 -111t-101.5 -61.5t-130.5 -19t-156.5 20q-29 6 -39 24t-10 52q0 67 47 67q12 0 60.5 -7.5t74.5 -7.5q95 0 139.5 48.5t44.5 159.5v878q0 179 -88 265t-282 86t-282.5 -86t-88.5 -265v-746
q0 -70 -70 -70h-18q-70 0 -70 70v736q0 259 124.5 385.5t404.5 126.5z" />
    <glyph glyph-name="uni019D.ss03" horiz-adv-x="1432" 
d="M716 1318q280 0 404.5 -126.5t124.5 -385.5v-736q0 -70 -70 -70h-19q-70 0 -70 70v746q0 179 -88 265t-282 86t-282.5 -86t-88.5 -265v-838q0 -218 -101 -290.5t-277 -23.5q-17 4 -27.5 20t-10.5 37v23q0 27 14 42t40 15q6 0 34 -4t43 -4q65 0 96 40t31 130v843
q0 259 124.5 385.5t404.5 126.5z" />
    <glyph glyph-name="Ntilde.ss03" horiz-adv-x="1432" 
d="M445 1485l-37 18q-17 9 -18 28t15 42q72 98 187 98q52 0 97 -22t83.5 -44t72.5 -22q48 0 80 43q26 34 64 16l37 -18q17 -9 18 -28t-15 -42q-73 -99 -187 -99q-52 0 -97.5 22t-83.5 44t-72 22q-49 0 -80 -42q-27 -35 -64 -16zM1245 70q0 -70 -70 -70h-19q-70 0 -70 70v746
q0 179 -88 265t-282 86t-282.5 -86t-88.5 -265v-746q0 -70 -70 -70h-18q-70 0 -70 70v736q0 259 124.5 385.5t404.5 126.5t404.5 -126.5t124.5 -385.5v-736z" />
    <glyph glyph-name="i.loclTRK" horiz-adv-x="484" 
d="M243 1144q-48 0 -73 26.5t-25 75.5q0 48 25 75.5t73 27.5q47 0 71.5 -27.5t24.5 -75.5q0 -49 -24.5 -75.5t-71.5 -26.5zM234 0q-70 0 -70 70v833q0 70 70 70h18q70 0 70 -70v-833q0 -70 -70 -70h-18z" />
    <glyph glyph-name="uni006A0301" horiz-adv-x="524" 
d="M315 1348q26 51 83 51h19q41 0 55.5 -23.5t-5.5 -60.5l-94 -168q-27 -49 -83 -49h-9q-41 0 -55.5 23.5t4.5 59.5zM185 -62v965q0 70 70 70h18q70 0 70 -70v-965q0 -119 -36 -199t-100 -115t-152 -41.5t-193 20.5q-44 9 -44 67q0 41 12 57t50 16q12 0 54 -5.5t69 -5.5
q93 0 137.5 47.5t44.5 158.5z" />
    <glyph glyph-name="j.alt" horiz-adv-x="530" 
d="M270 1144q-48 0 -73 27t-25 75t25.5 75.5t72.5 27.5q48 0 72.5 -27.5t24.5 -75.5q0 -102 -97 -102zM190 903q0 70 70 70h19q70 0 70 -70v-1039q0 -181 -86.5 -244.5t-231.5 -16.5q-36 13 -36 64v15q0 31 11 45t38 14q6 0 28 -5.5t37 -5.5q81 0 81 134v1039z" />
    <glyph glyph-name="uni0237.alt" horiz-adv-x="530" 
d="M190 903q0 70 70 70h19q70 0 70 -70v-1039q0 -181 -86.5 -244.5t-231.5 -16.5q-36 13 -36 64v15q0 31 11 45t38 14q6 0 28 -5.5t37 -5.5q81 0 81 134v1039z" />
    <glyph glyph-name="uni006A0301.alt" horiz-adv-x="530" 
d="M321 1348q26 51 83 51h19q41 0 55.5 -23.5t-5.5 -60.5l-94 -168q-27 -49 -83 -49h-9q-41 0 -55.5 23.5t4.5 59.5zM190 903q0 70 70 70h19q70 0 70 -70v-1039q0 -181 -86.5 -244.5t-231.5 -16.5q-36 13 -36 64v15q0 31 11 45t38 14q6 0 28 -5.5t37 -5.5q81 0 81 134v1039z
" />
    <glyph glyph-name="jcircumflex.alt" horiz-adv-x="530" 
d="M220 1336q49 36 98 0l140 -103q60 -45 25 -82q-37 -37 -89 -1l-125 83l-125 -83q-53 -36 -88 1q-36 37 24 82zM190 903q0 70 70 70h19q70 0 70 -70v-1039q0 -181 -86.5 -244.5t-231.5 -16.5q-36 13 -36 64v15q0 31 11 45t38 14q6 0 28 -5.5t37 -5.5q81 0 81 134v1039z
" />
    <glyph glyph-name="u.alt" horiz-adv-x="1174" 
d="M880 903q0 70 70 70h16q70 0 70 -70v-459q0 -130 -29.5 -220.5t-89 -143t-139.5 -75.5t-191 -23t-190.5 23t-139 75.5t-89 143t-29.5 220.5v390q0 70 70 70h15q70 0 70 -70v-390q0 -179 68 -248t225 -69t225 69t68 248v459z" />
    <glyph glyph-name="v.alt" horiz-adv-x="1139" 
d="M883 916q19 57 79 57h22q38 0 54.5 -22t3.5 -58l-231 -673q-47 -138 -100.5 -188t-152.5 -50t-152.5 50t-100.5 188l-208 604q-13 36 2.5 58t52.5 22h22q60 0 79 -57l197 -589q27 -79 50 -104t58 -25t58 25t50 104z" />
    <glyph glyph-name="w.alt" horiz-adv-x="1610" 
d="M1367 911q12 62 77 62h18q37 0 53.5 -20.5t8.5 -56.5l-149 -728q-20 -95 -70 -140.5t-139 -45.5q-178 0 -212 183l-126 609q-7 32 -29 32q-25 0 -31 -32l-124 -609q-20 -93 -71 -138t-141 -45t-140.5 46t-69.5 140l-136 659q-8 36 8.5 56.5t53.5 20.5h19q62 0 76 -62
l128 -614q10 -52 23 -70.5t42 -18.5q30 0 42.5 17.5t24.5 69.5l124 590q32 157 172 157q136 0 171 -157l125 -590q9 -50 22.5 -68.5t43.5 -18.5q29 0 41 17.5t25 71.5z" />
    <glyph glyph-name="y.alt" horiz-adv-x="1159" 
d="M865 903q0 70 70 70h16q70 0 70 -70v-957q0 -178 -118 -271t-309 -93q-124 0 -254 39q-58 17 -58 79v4q0 37 21 53t58 6q132 -33 228 -33q127 0 201.5 54t74.5 162v50q-117 -14 -209 -14q-257 0 -387 118t-130 386v348q0 70 70 70h15q70 0 70 -70v-337q0 -204 85 -287
t274 -83q90 0 212 17v759z" />
    <glyph glyph-name="germandbls.calt" horiz-adv-x="1271" 
d="M924 725q233 -61 233 -345q0 -380 -417 -380h-104q-65 0 -65 66v12q0 67 65 67h104q131 0 196.5 56.5t65.5 190.5t-66 195.5t-196 61.5h-66q-37 0 -54 14t-17 53v9q0 39 17 53.5t54 14.5h56q101 0 154.5 45.5t53.5 149.5q0 98 -64 141.5t-231 43.5q-158 0 -229.5 -44
t-71.5 -146v-913q0 -70 -70 -70h-15q-70 0 -70 70v913q0 170 113 252.5t343 82.5q233 0 342 -80.5t109 -239.5q0 -104 -43.5 -169t-126.5 -104z" />
    <glyph glyph-name="a.ss01" horiz-adv-x="1116" 
d="M768 973q210 0 210 -214v-545q0 -214 -210 -214h-152q-234 0 -368 120.5t-134 365.5t134 366t368 121h152zM718 145q57 0 80.5 29.5t23.5 89.5v445q0 60 -23.5 89.5t-80.5 29.5h-115q-169 0 -251.5 -85t-82.5 -257q0 -173 82.5 -257t251.5 -84h115z" />
    <glyph glyph-name="aacute.ss01" horiz-adv-x="1116" 
d="M747 1399q37 0 48.5 -23.5t-8.5 -60.5l-94 -168q-27 -49 -83 -49h-9q-41 0 -55.5 23.5t4.5 59.5l85 167q26 51 83 51h29zM768 973q210 0 210 -214v-545q0 -214 -210 -214h-152q-234 0 -368 120.5t-134 365.5t134 366t368 121h152zM718 145q57 0 80.5 29.5t23.5 89.5v445
q0 60 -23.5 89.5t-80.5 29.5h-115q-169 0 -251.5 -85t-82.5 -257q0 -173 82.5 -257t251.5 -84h115z" />
    <glyph glyph-name="abreve.ss01" horiz-adv-x="1116" 
d="M583 1109q-139 0 -220.5 45t-81.5 140q0 28 16 43t44 15h7q64 0 64 -40q0 -98 171 -98q173 0 173 98q0 40 65 40h7q27 0 43 -15.5t16 -42.5q0 -95 -81.5 -140t-222.5 -45zM768 973q210 0 210 -214v-545q0 -214 -210 -214h-152q-234 0 -368 120.5t-134 365.5t134 366
t368 121h152zM718 145q57 0 80.5 29.5t23.5 89.5v445q0 60 -23.5 89.5t-80.5 29.5h-115q-169 0 -251.5 -85t-82.5 -257q0 -173 82.5 -257t251.5 -84h115z" />
    <glyph glyph-name="uni01CE.ss01" horiz-adv-x="1116" 
d="M878 1340q28 -45 -34 -80l-213 -122q-48 -28 -96 0l-213 121q-61 35 -33 81q27 46 88 16l207 -101l206 101q61 30 88 -16zM768 973q210 0 210 -214v-545q0 -214 -210 -214h-152q-234 0 -368 120.5t-134 365.5t134 366t368 121h152zM718 145q57 0 80.5 29.5t23.5 89.5v445
q0 60 -23.5 89.5t-80.5 29.5h-115q-169 0 -251.5 -85t-82.5 -257q0 -173 82.5 -257t251.5 -84h115z" />
    <glyph glyph-name="acircumflex.ss01" horiz-adv-x="1116" 
d="M583 1232l-207 -101q-59 -29 -88 16q-28 45 34 81l212 121q48 28 96 0l213 -122q62 -35 34 -80q-27 -46 -88 -16zM768 973q210 0 210 -214v-545q0 -214 -210 -214h-152q-234 0 -368 120.5t-134 365.5t134 366t368 121h152zM718 145q57 0 80.5 29.5t23.5 89.5v445
q0 60 -23.5 89.5t-80.5 29.5h-115q-169 0 -251.5 -85t-82.5 -257q0 -173 82.5 -257t251.5 -84h115z" />
    <glyph glyph-name="adieresis.ss01" horiz-adv-x="1116" 
d="M386 1135q-46 0 -70 26t-24 72t24 72.5t70 26.5q45 0 68.5 -26.5t23.5 -72.5q0 -98 -92 -98zM779 1135q-45 0 -69 26t-24 72t24 72.5t69 26.5t69 -26.5t24 -72.5q0 -47 -23.5 -72.5t-69.5 -25.5zM768 973q210 0 210 -214v-545q0 -214 -210 -214h-152q-234 0 -368 120.5
t-134 365.5t134 366t368 121h152zM718 145q57 0 80.5 29.5t23.5 89.5v445q0 60 -23.5 89.5t-80.5 29.5h-115q-169 0 -251.5 -85t-82.5 -257q0 -173 82.5 -257t251.5 -84h115z" />
    <glyph glyph-name="uni1EA1.ss01" horiz-adv-x="1116" 
d="M768 973q210 0 210 -214v-545q0 -214 -210 -214h-152q-234 0 -368 120.5t-134 365.5t134 366t368 121h152zM718 145q57 0 80.5 29.5t23.5 89.5v445q0 60 -23.5 89.5t-80.5 29.5h-115q-169 0 -251.5 -85t-82.5 -257q0 -173 82.5 -257t251.5 -84h115zM586 -171
q48 0 72.5 -27.5t24.5 -75.5t-24.5 -75t-72.5 -27t-73 27t-25 75t25 75.5t73 27.5z" />
    <glyph glyph-name="agrave.ss01" horiz-adv-x="1116" 
d="M640 1181q19 -36 8.5 -59.5t-45.5 -23.5h-23q-56 0 -83 49l-94 168q-20 37 -8.5 60.5t48.5 23.5h29q57 0 83 -51zM768 973q210 0 210 -214v-545q0 -214 -210 -214h-152q-234 0 -368 120.5t-134 365.5t134 366t368 121h152zM718 145q57 0 80.5 29.5t23.5 89.5v445
q0 60 -23.5 89.5t-80.5 29.5h-115q-169 0 -251.5 -85t-82.5 -257q0 -173 82.5 -257t251.5 -84h115z" />
    <glyph glyph-name="amacron.ss01" horiz-adv-x="1116" 
d="M779 1271q70 0 70 -61t-70 -61h-393q-70 0 -70 61t70 61h393zM768 973q210 0 210 -214v-545q0 -214 -210 -214h-152q-234 0 -368 120.5t-134 365.5t134 366t368 121h152zM718 145q57 0 80.5 29.5t23.5 89.5v445q0 60 -23.5 89.5t-80.5 29.5h-115q-169 0 -251.5 -85
t-82.5 -257q0 -173 82.5 -257t251.5 -84h115z" />
    <glyph glyph-name="aogonek.ss01" horiz-adv-x="1167" 
d="M768 973q210 0 210 -214v-545q0 -114 -62 -168l-210 -182q-67 -59 -52.5 -105t86.5 -46q19 0 47 3t36 3q40 0 40 -47v-15q0 -47 -39 -55q-52 -9 -103 -9q-67 0 -118 21.5t-76 58t-28.5 80.5t24 94.5t83.5 95.5l70 57h-60q-234 0 -368 120.5t-134 365.5t134 366t368 121
h152zM718 145q57 0 80.5 29.5t23.5 89.5v445q0 60 -23.5 89.5t-80.5 29.5h-115q-169 0 -251.5 -85t-82.5 -257q0 -173 82.5 -257t251.5 -84h115z" />
    <glyph glyph-name="aring.ss01" horiz-adv-x="1116" 
d="M583 1088q-85 0 -138 43t-53 113t53 113.5t138 43.5q84 0 136 -43.5t52 -113.5t-52.5 -113t-135.5 -43zM583 1307q-35 0 -54.5 -17.5t-19.5 -45.5t19.5 -45t54.5 -17q33 0 52 17t19 45t-19 45.5t-52 17.5zM768 973q210 0 210 -214v-545q0 -214 -210 -214h-152
q-234 0 -368 120.5t-134 365.5t134 366t368 121h152zM718 145q57 0 80.5 29.5t23.5 89.5v445q0 60 -23.5 89.5t-80.5 29.5h-115q-169 0 -251.5 -85t-82.5 -257q0 -173 82.5 -257t251.5 -84h115z" />
    <glyph glyph-name="aringacute.ss01" horiz-adv-x="1116" 
d="M583 1088q-85 0 -138 43t-53 113q0 59 38.5 100t102.5 53l102 200q26 51 83 51h19q41 0 55.5 -23.5t-5.5 -60.5l-103 -184q87 -42 87 -136q0 -70 -52.5 -113t-135.5 -43zM583 1182q33 0 52 17t19 45t-19 45.5t-52 17.5q-35 0 -54.5 -17.5t-19.5 -45.5t19.5 -45t54.5 -17z
M768 973q210 0 210 -214v-545q0 -214 -210 -214h-152q-234 0 -368 120.5t-134 365.5t134 366t368 121h152zM718 145q57 0 80.5 29.5t23.5 89.5v445q0 60 -23.5 89.5t-80.5 29.5h-115q-169 0 -251.5 -85t-82.5 -257q0 -173 82.5 -257t251.5 -84h115z" />
    <glyph glyph-name="atilde.ss01" horiz-adv-x="1116" 
d="M275 1176q-17 9 -18 28t15 42q72 98 187 98q52 0 97 -22t83.5 -44t72.5 -22q48 0 80 43q26 34 64 16l37 -18q17 -9 18 -28t-15 -42q-73 -99 -187 -99q-52 0 -97.5 22t-83.5 44t-72 22q-49 0 -80 -42q-27 -35 -64 -16zM768 973q210 0 210 -214v-545q0 -214 -210 -214h-152
q-234 0 -368 120.5t-134 365.5t134 366t368 121h152zM718 145q57 0 80.5 29.5t23.5 89.5v445q0 60 -23.5 89.5t-80.5 29.5h-115q-169 0 -251.5 -85t-82.5 -257q0 -173 82.5 -257t251.5 -84h115z" />
    <glyph glyph-name="w.ss02" horiz-adv-x="1768" 
d="M1473 903q0 70 70 70h16q70 0 70 -70v-472q0 -230 -105 -339.5t-299 -109.5q-257 0 -341 189q-84 -189 -341 -189q-404 0 -404 449v472q0 70 70 70h15q70 0 70 -70v-482q0 -294 262 -294q130 0 190 72t60 222v482q0 70 70 70h16q70 0 70 -70v-482q0 -150 60 -222t190 -72
q261 0 261 294v482z" />
    </font>
</defs>
</svg>
